<?xml version="1.0" encoding="utf-8"?>
<!-- Generator: Adobe Illustrator 24.3.0, SVG Export Plug-In . SVG Version: 6.00 Build 0)  -->
<svg version="1.1" id="Layer_1" xmlns="http://www.w3.org/2000/svg" xmlns:xlink="http://www.w3.org/1999/xlink" x="0px" y="0px"
	 viewBox="0 0 822 822" style="enable-background:new 0 0 822 822;" xml:space="preserve">
<style type="text/css">
	.st0{fill:#AA40E2;}
	.st1{fill:#FF0031;}
	.st2{fill:#FFFFFF;stroke:#FFFFFF;stroke-width:16;stroke-miterlimit:10;}
	.st3{opacity:0.23;}
	.st4{fill:#020202;}
	.st5{fill:#FFCE00;}
	.st6{fill:#FFE810;}
	.st7{fill:#3A3004;}
</style>
<g>
	<g>
		<circle class="st0" cx="411" cy="411" r="383.4"/>
	</g>
</g>
<circle class="st1" cx="411" cy="411" r="383.4"/>
<g>
	<g>
		<g>
			<path class="st2" d="M577.1,298.8c0,23.1-5.1,40.3-15.2,51.5c-10.2,11.2-24.1,16.9-41.7,16.9c-10.9,0-20.7-2.4-29.3-7.2
				c-8.6-4.8-15.4-12.2-20.2-22.4c-4.8-10.2-7.3-22.6-7.3-37.2c0-15.7,1.9-28.8,5.6-39.4c3.7-10.5,9.8-18.5,18.2-23.9
				c8.4-5.4,19.1-8.2,32.2-8.2c9.4,0,17.7,1.5,24.9,4.4c7.1,2.9,13.2,7.3,18.1,13.3c5,6,8.6,13.3,11.1,21.9
				C575.9,277.1,577.1,287.2,577.1,298.8z M543.2,297c0-15.8-1.7-27.4-5.1-34.6c-3.4-7.2-9.4-10.8-18-10.8c-5.8,0-10.4,1.7-13.9,5.2
				s-5.8,8.5-7.1,15.2c-1.3,6.7-1.9,15.3-1.9,25.7c0,10.8,0.6,19.5,1.9,26.3s3.6,11.9,7,15.3s8,5.2,14,5.2c8.9,0,15-3.8,18.2-11.4
				C541.6,325.5,543.2,313.4,543.2,297z M698.1,252.9L547,496.6c-3.9,6.7-8.2,10-13.1,10c-2.8,0-5.6-1.1-8.3-3.2
				c-2.8-2.1-4.2-4.9-4.2-8.3c0-2.5,1.2-5.6,3.6-9.3l152-245.7c2.7-4.5,5-7.8,7-10.1c2-2.2,4.9-3.4,8.6-3.4c3.6,0,6.6,1.1,8.8,3.2
				c2.2,2.1,3.4,4.9,3.4,8.4C704.9,240.9,702.6,245.8,698.1,252.9z M762.9,430c0,23.1-5.1,40.3-15.2,51.5
				c-10.2,11.2-24.1,16.9-41.7,16.9c-11,0-20.8-2.4-29.5-7.3c-8.6-4.8-15.4-12.3-20.3-22.3c-4.9-10-7.3-22.4-7.3-37.2
				c0-23.6,4.5-41.3,13.5-53.2c9-11.9,23.3-17.9,42.9-17.9c9.4,0,17.7,1.5,24.8,4.4s13.1,7.3,18.1,13.1c5,5.8,8.7,13,11.2,21.7
				C761.7,408.2,762.9,418.4,762.9,430z M729,428.2c0-15.6-1.7-27-5.1-34.2c-3.4-7.2-9.4-10.8-18-10.8c-6,0-10.8,1.7-14.2,5.1
				s-5.8,8.4-7.2,15s-2.1,15.1-2.1,25.7c0,16.2,1.7,28.1,5.2,35.6c3.4,7.5,9.5,11.2,18.2,11.2c8.8,0,14.9-3.8,18.1-11.5
				C727.4,456.5,729,444.5,729,428.2z"/>
		</g>
	</g>
</g>
<g class="st3">
	<g>
		<path class="st4" d="M495.7,777.1c57.2-85,128.6-145.7,80.9-301.5c-182-411.4,0.8-455.4,159.8-267c2.2,2.6-28.5-38.5-58.3-65.4
			S521.3,51.3,412.6,51.3c-211.7,0-373,147.9-373,359.7s170.2,364.7,381.9,364.7C448.4,775.7,470.4,782.4,495.7,777.1z"/>
	</g>
</g>
<g>
	<g>
		<path class="st5" d="M489.4,786.4c57.2-85,122.9-155,75.3-310.8l0,0C382.6,64.2,566.8,86,589.5,92.4
			c70.4,19.9,143.9,112.2,147.1,116.3l0,0c-83.8-137.3-217-181-325.6-181c-210.2,0-380.9,169.2-383.4,378.8
			c-2.5,215.9,175,392,390.8,387.9C442.7,793.9,466.4,791.2,489.4,786.4L489.4,786.4z"/>
	</g>
	<g>
		<path class="st6" d="M489.4,786.4c57.2-85,122.9-155,75.3-310.8l0,0C382.6,64.2,566.8,86,589.5,92.4
			c70.4,19.9,143.9,112.2,147.1,116.3l0,0c-83.8-137.3-217-181-325.6-181c-210.2,0-380.9,169.2-383.4,378.8
			c-2.5,215.9,175,392,390.8,387.9C442.7,793.9,466.4,791.2,489.4,786.4L489.4,786.4z"/>
	</g>
</g>
<g>
	<g>
		<g>
			<path class="st7" d="M144.3,205.2h116.6c11.2,0,19.3,1.8,24.3,5.3s7.5,9.3,7.5,17.3c0,4.9-2.9,11.4-8.8,19.4
				c-5.9,8.1-12.6,17-20.1,26.7c-7.5,9.7-15.3,21.9-23.3,36.3c-8,14.5-15.3,32.2-22,53c-2.8,9.2-4.8,16.9-6,22.9
				c-1.2,6.1-2.5,13.9-3.9,23.6s-2.6,17.1-3.7,22.2c-2.5,11.9-5.9,20.2-10.4,24.8c-4.5,4.6-10.5,6.9-17.9,6.9
				c-7.1,0-12.8-2.5-17.2-7.4c-4.3-5-6.5-12.3-6.5-22c0-7.5,1.6-17.6,4.7-30.5c3.2-12.8,8.3-28.2,15.4-46.1
				c7.1-17.9,16-36.3,26.7-55.1c10.7-18.8,23.4-37.6,38.1-56.3h-93.7c-9.8,0-17.1-1.8-22-5.3c-4.8-3.6-7.3-9.1-7.3-16.7
				c0-8.1,2.6-13.2,7.7-15.6C127.9,206.4,135,205.2,144.3,205.2z"/>
			<path class="st7" d="M483.1,280.6c-4.6-15.7-11.1-29-20.2-39.9c-8.9-10.9-20-18.9-33-24.2c-13.1-5.3-28.2-8-45.4-8
				c-23.9,0-43.3,5.1-58.6,14.9c-15.3,9.8-26.4,24.4-33.1,43.5c-6.7,19.3-10.2,43.2-10.2,71.8c0,26.6,4.6,49.2,13.3,67.8
				s21.1,32.1,36.8,40.8c15.7,8.7,33.5,13.1,53.4,13.1c32.1,0,57.4-10.4,76-30.8c18.4-20.4,27.7-51.7,27.7-93.8
				C489.6,314.7,487.5,296.3,483.1,280.6z M423.8,407.6c-6.7,15.9-19.4,23.8-38,23.8c-12.5,0-22.1-3.8-29.2-10.9
				c-7.1-7.1-11.9-17.7-14.6-31.9c-2.7-14.2-4-32.3-4-54.9c0-21.7,1.3-39.7,4-53.6c2.7-14,7.5-24.4,14.8-31.7
				c7.3-7.3,16.9-10.9,29-10.9c17.9,0,30.5,7.5,37.6,22.5c7.1,15,10.6,39.2,10.6,72.2C434,366.5,430.7,391.7,423.8,407.6z"/>
		</g>
	</g>
</g>
<g>
	<g>
		<g>
			<path class="st7" d="M205.4,507.1c14.6,0,27.1,3,37.5,8.9c10.4,5.9,18.3,14.3,23.7,25.2c5.4,10.9,8,23.7,8,38.4
				c0,10.9-1.5,20.7-4.4,29.6c-2.9,8.9-7.3,16.6-13.2,23.1c-5.9,6.5-13.1,11.5-21.7,14.9c-8.6,3.4-18.4,5.2-29.4,5.2
				s-20.8-1.8-29.5-5.3s-15.9-8.5-21.7-15c-5.8-6.4-10.2-14.2-13.2-23.3s-4.5-18.9-4.5-29.4c0-10.8,1.5-20.7,4.6-29.7
				s7.6-16.7,13.5-23s13-11.2,21.5-14.5C185,508.7,194.6,507.1,205.4,507.1z M245.8,579.3c0-10.3-1.7-19.2-5-26.7
				s-8.1-13.2-14.2-17.1c-6.2-3.9-13.2-5.8-21.2-5.8c-5.7,0-10.9,1.1-15.8,3.2c-4.8,2.1-9,5.3-12.5,9.3c-3.5,4.1-6.2,9.3-8.2,15.7
				s-3,13.5-3,21.4c0,8,1,15.2,3,21.7s4.9,11.8,8.5,16c3.7,4.2,7.9,7.4,12.6,9.5c4.8,2.1,10,3.2,15.7,3.2c7.3,0,14-1.8,20.1-5.5
				c6.1-3.6,11-9.3,14.6-16.9C244,599.8,245.8,590.4,245.8,579.3z"/>
			<path class="st7" d="M368.2,531.4h-56v35.9H359c4.3,0,7.6,1,9.7,2.9s3.2,4.6,3.2,7.8c0,3.3-1.1,5.8-3.3,7.8
				c-2.2,1.9-5.4,2.9-9.7,2.9h-46.8V635c0,5.9-1.3,10.2-4,13.1c-2.7,2.8-6.1,4.3-10.2,4.3c-4.2,0-7.6-1.4-10.3-4.3
				c-2.7-2.9-4-7.2-4-13V526.9c0-4.1,0.6-7.4,1.8-10c1.2-2.6,3.1-4.5,5.7-5.7s5.9-1.8,9.9-1.8h67.1c4.5,0,7.9,1,10.1,3
				s3.3,4.6,3.3,7.9c0,3.3-1.1,6-3.3,8C376.1,530.4,372.7,531.4,368.2,531.4z"/>
			<path class="st7" d="M471.9,531.4h-56v35.9h46.8c4.3,0,7.6,1,9.7,2.9s3.2,4.6,3.2,7.8c0,3.3-1.1,5.8-3.3,7.8
				c-2.2,1.9-5.4,2.9-9.7,2.9h-46.8V635c0,5.9-1.3,10.2-4,13.1c-2.7,2.8-6.1,4.3-10.2,4.3c-4.2,0-7.6-1.4-10.3-4.3
				c-2.7-2.9-4-7.2-4-13V526.9c0-4.1,0.6-7.4,1.8-10c1.2-2.6,3.1-4.5,5.7-5.7s5.9-1.8,9.9-1.8h67.1c4.5,0,7.9,1,10.1,3
				s3.3,4.6,3.3,7.9c0,3.3-1.1,6-3.3,8C479.8,530.4,476.5,531.4,471.9,531.4z"/>
		</g>
	</g>
</g>
</svg>
