<?xml version="1.0" encoding="utf-8"?>
<!-- Generator: Adobe Illustrator 24.3.0, SVG Export Plug-In . SVG Version: 6.00 Build 0)  -->
<svg version="1.1" id="Layer_1" xmlns="http://www.w3.org/2000/svg" xmlns:xlink="http://www.w3.org/1999/xlink" x="0px" y="0px"
	 viewBox="0 0 257 84" style="enable-background:new 0 0 257 84;" xml:space="preserve">
<style type="text/css">
	.st0{fill:#FFFFFF;}
	.st1{fill:#C61A11;}
	.st2{fill:#FDB814;}
</style>
<g>
	<g>
		<path class="st0" d="M105,39.6V6.7l10,0c10.6,0,17.1,6.3,17.1,16.5c0,10.1-6.6,16.4-17.1,16.4H105z M115,31.4
			c5.5,0,8.8-3.1,8.8-8.2c0-5.2-3.3-8.3-8.8-8.3h-1.8v16.6H115z"/>
		<polygon class="st0" points="134.1,39.6 134.1,6.7 154.7,6.7 154.7,14.8 142.3,14.8 142.3,18.8 153,18.8 153,27 142.3,27 
			142.3,31.4 154.7,31.4 154.7,39.6 		"/>
		<path class="st0" d="M167.6,40.2c-5.4,0-9.5-2.2-11.8-6.5l-0.4-0.8l6.6-4.6l0.6,0.9c1.2,1.9,2.8,2.7,5.2,2.7
			c2.2,0,3.9-0.8,3.9-1.8c0-1.6-3.6-3.4-6.2-4.6l-0.2-0.1c-3.5-1.7-7.8-3.9-7.8-9.5c0-5.7,4.7-9.9,11.2-9.9c4.9,0,8.6,2.2,10.1,6.1
			l0.3,0.7l-6.2,4.3l-0.5-1c-0.9-1.8-2.8-2-3.5-2c-1.9,0-3,1-3,1.9c0,0.8,1.2,1.4,3.5,2.4c0.6,0.3,1.2,0.5,1.8,0.8
			c4.6,2.2,8.9,5,8.9,10.7C179.8,36.1,174.9,40.2,167.6,40.2z"/>
		<rect x="181.6" y="6.7" class="st0" width="8.2" height="32.9"/>
		<path class="st0" d="M209.1,40.2c-9.5,0-17.3-7.6-17.3-17c0-9.4,7.7-17.1,17.1-17.1c4.3,0,8.8,2,12,5.1l0.6,0.6l-4.6,6.9l-0.9-0.8
			c-2.3-2.2-4.8-3.4-7.2-3.4c-4.2,0-8.7,3.6-8.7,8.8c0,5,4,8.8,9.2,8.8c3.5,0,6-1.5,6.6-4h-7.8v-7.7h16.4l0.1,0.9
			c0.1,1,0.2,1.9,0.2,2.7C224.8,33.5,218.4,40.2,209.1,40.2z"/>
		<polygon class="st0" points="252,40.2 235.1,23.7 235.1,39.6 226.9,39.6 226.9,6.1 228.6,6.1 245.5,22.5 245.5,6.6 253.7,6.6 
			253.7,40.2 		"/>
		<polygon class="st0" points="118.1,78 104.4,48 112.4,48 118.8,62.4 125.2,48 133.3,48 119.5,78 		"/>
		<rect x="133.4" y="48" class="st0" width="7.5" height="29.4"/>
		<polygon class="st0" points="158,77.3 151.2,67.5 151.2,77.3 143.7,77.3 143.7,48 151.2,48 151.2,57.4 157.3,48 166.1,48 
			156.6,62.3 167.1,77.3 		"/>
		<rect x="166.8" y="48" class="st0" width="7.5" height="29.4"/>
		<polygon class="st0" points="199.4,77.8 184.5,63.4 184.5,77.4 177,77.4 177,47.5 178.7,47.5 193.5,61.9 193.5,47.9 201,47.9 
			201,77.8 		"/>
		<path class="st0" d="M218,77.9c-8.5,0-15.4-6.8-15.4-15.2c0-8.4,6.8-15.3,15.2-15.3c3.8,0,7.8,1.7,10.7,4.6l0.6,0.6l-4.2,6.3
			l-0.9-0.8c-2-2-4.2-3-6.3-3c-3.6,0-7.5,3.1-7.5,7.7c0,4.4,3.5,7.7,8,7.7c3,0,5.1-1.2,5.7-3.3h-6.9V60h14.8l0.1,0.9
			c0.1,0.9,0.1,1.7,0.1,2.4C232.1,71.9,226.3,77.9,218,77.9z"/>
		<path class="st0" d="M242.8,77.9c-4.8,0-8.5-2-10.5-5.8l-0.4-0.8l6-4.2l0.6,0.9c1,1.6,2.4,2.3,4.5,2.3c2.1,0,3.3-0.8,3.3-1.5
			c0-1.3-3.1-2.9-5.4-4l-0.2-0.1c-3.1-1.6-7-3.5-7-8.5c0-5.1,4.2-8.9,10-8.9c4.4,0,7.7,2,9,5.5l0.3,0.7l-5.6,3.9l-0.5-1
			c-0.8-1.6-2.4-1.7-3-1.7c-1.5,0-2.6,0.8-2.6,1.6c0,0.7,1,1.1,3,2c0.5,0.2,1,0.5,1.6,0.7c4.1,2,8,4.5,8,9.6
			C253.7,74.2,249.4,77.9,242.8,77.9z"/>
		<path class="st0" d="M49.5,43c-0.7-1.1-1.3-2.1-1.8-3.2c-0.7-1.9-1.8-2.6-4-2.6c-0.1,0-0.3,0-0.4,0c-2.6,0.1-5.4,0.1-9.1,0.1
			c-1.5,0-3,0-4.6,0c-1.5,0-3,0-4.5,0c-0.7,0-1.8-0.1-2.5-1.4c-1.7-2.8-3.4-5.5-5.2-8.5l-2.7-4.3h31.5c0.6,0,0.8-0.2,1-0.5
			c0.8-1.4,1.5-2.6,2.3-3.9c0,0,0,0,0-0.1H14c-1,0-2.1-0.2-2.9-1.6C9.2,13.8,7,10.3,4.6,6.6C4.4,6.3,4.2,6,3.9,5.5L3.2,4l1.6,0
			c23,0.1,46.4,0.1,69.1,0.1h1.8l-0.9,1.5c-3.9,6.4-7.7,12.7-11.6,19c-3.9,6.3-7.7,12.6-11.6,19L50.8,45L49.5,43z"/>
		<path class="st0" d="M49.9,79.5c-7.5-12.2-15.2-24.4-22.5-36.1l-1-1.5h1.8c0.1,0,0.2,0,0.3,0c0.2,0,0.4-0.1,0.6-0.1h13.6
			c1.1,0,1.7,0.6,2.2,1.2l0.1,0.1c0,0,1.5,2.7,2.2,4c1.2,2.1,2.4,4.2,3.6,6.3c9.8-15.6,19.8-31.7,29.7-47.7C81.2,4.4,82,4,83.3,4
			l15.3,0l-1,1.6c-10.3,16.6-20.6,33-30.8,49.5c-5.1,8.1-16,25.8-16,25.8L49.9,79.5z"/>
	</g>
	<g>
		<path class="st1" d="M131.1,23.2c0,9.6-6.1,15.4-16.1,15.4h-9V7.7l9,0C125,7.6,131.1,13.5,131.1,23.2z M124.8,23.1
			c0-5.8-3.7-9.3-9.8-9.3h-2.8v18.6h2.8C121.1,32.4,124.8,28.9,124.8,23.1z"/>
		<path class="st1" d="M141.3,13.8v6H152V26h-10.7v6.4h12.4v6.2h-18.7V7.7h18.7v6.1H141.3z"/>
		<path class="st1" d="M156.7,33.2l5-3.5c1.4,2.2,3.3,3.2,6,3.2c2.9,0,4.9-1.2,4.9-2.8c0-2.3-3.7-4-6.9-5.7
			c-3.5-1.7-7.3-3.6-7.3-8.6c0-5.4,4.5-8.9,10.2-8.9c4.2,0,7.7,1.7,9.1,5.5l-4.6,3.2c-0.9-1.8-2.7-2.6-4.4-2.6c-2.3,0-4,1.3-4,2.9
			c0,1.8,2.3,2.5,5.9,4.1c5.1,2.4,8.3,5,8.3,9.8c0,5.6-4.6,9.2-11.2,9.2C162.5,39.2,158.8,37.1,156.7,33.2z"/>
		<path class="st1" d="M182.6,7.7h6.2v30.9h-6.2V7.7z"/>
		<path class="st1" d="M223.8,23.8c0,9.7-6.7,15.4-14.8,15.4c-9.1,0-16.3-7.2-16.3-16c0-8.8,7.2-16.1,16.1-16.1
			c4,0,8.3,1.9,11.3,4.8l-3.5,5.2c-2.4-2.4-5.2-3.7-7.9-3.7c-4.8,0-9.7,4.1-9.7,9.8c0,5.4,4.2,9.8,10.2,9.8c4.4,0,7.6-2.3,7.8-6h-8
			v-5.7h14.5C223.8,22.1,223.8,23,223.8,23.8z"/>
		<path class="st1" d="M252.7,7.6v31.6h-0.3l-18.4-17.9v17.3h-6.2V7.1h0.3l18.3,17.8V7.6H252.7z"/>
		<path class="st2" d="M131.7,49l-12.8,28h-0.2L106,49h5.8l7,15.9l7-15.9H131.7z"/>
		<path class="st2" d="M134.4,49h5.5v27.4h-5.5V49z"/>
		<path class="st2" d="M158.5,76.3l-8.3-12v12h-5.5V49h5.5v11.8l7.7-11.8h6.3l-8.8,13.4l9.7,14H158.5z"/>
		<path class="st2" d="M167.8,49h5.5v27.4h-5.5V49z"/>
		<path class="st2" d="M200,48.9v27.9h-0.3L183.5,61v15.3H178V48.5h0.3l16.2,15.8V48.9H200z"/>
		<path class="st2" d="M231.1,63.3c0,8.6-5.9,13.6-13.1,13.6c-8.1,0-14.4-6.4-14.4-14.2c0-7.8,6.4-14.3,14.2-14.3
			c3.5,0,7.3,1.7,10,4.3l-3.1,4.6c-2.1-2.1-4.6-3.3-7-3.3c-4.2,0-8.5,3.6-8.5,8.7c0,4.8,3.7,8.7,9,8.7c3.9,0,6.7-2,6.9-5.3h-7.1V61
			h12.9C231,61.8,231.1,62.5,231.1,63.3z"/>
		<path class="st2" d="M233.2,71.6l4.4-3.1c1.2,1.9,3,2.8,5.3,2.8c2.6,0,4.3-1.1,4.3-2.5c0-2-3.3-3.6-6.1-5
			c-3.1-1.5-6.4-3.2-6.4-7.6c0-4.7,4-7.9,9-7.9c3.7,0,6.8,1.5,8.1,4.9l-4.1,2.8c-0.8-1.6-2.4-2.3-3.9-2.3c-2.1,0-3.6,1.2-3.6,2.6
			c0,1.6,2.1,2.2,5.2,3.7c4.5,2.1,7.4,4.4,7.4,8.7c0,5-4.1,8.2-9.9,8.2C238.3,76.9,235,75,233.2,71.6z"/>
		<path class="st1" d="M73.9,5.2c-7.7,12.7-15.4,25.2-23.1,38c-0.8-1.3-1.6-2.5-2.1-3.7c-0.9-2.5-2.6-3.3-5.3-3.2
			c-6,0.2-12.1,0.1-18.1,0.1c-0.7,0-1.2-0.2-1.6-0.9c-2.2-3.7-4.5-7.3-7-11.3c0.6,0,1.1,0,1.5,0c9.4,0,18.8,0,28.2,0
			c0.9,0,1.5-0.3,1.9-1.1c1-1.8,2.1-3.5,3.2-5.3c-0.5,0-0.9-0.1-1.2-0.1c-12.1,0-24.2,0-36.3,0c-0.9,0-1.5-0.2-2-1.1
			C9.8,13,7.6,9.5,5.4,6.1C5.2,5.8,5,5.5,4.8,5.1C27.9,5.2,50.8,5.2,73.9,5.2z"/>
		<path class="st2" d="M96.8,5.1C81.3,29.8,66.1,54.3,50.8,79c-7.5-12.1-15-24.1-22.5-36.1c0.4,0,0.6-0.1,0.9-0.1
			c4.5,0,9.1,0,13.6,0c0.7,0,1,0.3,1.4,0.8c2.2,3.9,4.3,7.7,6.6,11.7c0.3-0.4,0.5-0.7,0.6-1c10-16,20-32,29.9-48.2
			c0.5-0.8,1-1.1,2-1.1c4,0,8,0,12.1,0C95.8,5.1,96.2,5.1,96.8,5.1z"/>
	</g>
</g>
</svg>
