<?xml version="1.0" encoding="utf-8"?>
<!-- Generator: Adobe Illustrator 25.4.0, SVG Export Plug-In . SVG Version: 6.00 Build 0)  -->
<svg version="1.1" id="Layer_1" xmlns="http://www.w3.org/2000/svg" xmlns:xlink="http://www.w3.org/1999/xlink" x="0px" y="0px"
	 viewBox="0 0 291.7 66.9" style="enable-background:new 0 0 291.7 66.9;" xml:space="preserve">
<style type="text/css">
	.st0{fill:#9AD302;}
	.st1{fill:#FFFFFF;}
	.st2{fill:#ABB6BF;}
	.st3{fill:#1D1D1B;}
	.st4{fill:#FCC200;}
	.st5{fill:#32364E;}
	.st6{fill-rule:evenodd;clip-rule:evenodd;fill:#FFFFFF;}
</style>
<g>
	<g>
		<g>
			<path class="st0" d="M88.1,66.6H1.5C0.7,66.6,0,66,0,65.1V1.5C0,0.7,0.7,0,1.5,0h86.6c0.8,0,1.5,0.7,1.5,1.5v63.6
				C89.6,66,88.9,66.6,88.1,66.6z"/>
			<g>
				<path class="st1" d="M17.5,52v1.7c0,0.2,0,0.4-0.1,0.5c0,0.1-0.1,0.3-0.2,0.4s-0.3,0.2-0.4,0.3c-0.5,0.3-1,0.5-1.5,0.6
					c-0.5,0.1-1,0.2-1.6,0.2c-0.7,0-1.3-0.1-1.8-0.3c-0.5-0.2-1-0.5-1.4-0.9S9.8,53.6,9.6,53c-0.2-0.6-0.3-1.2-0.3-1.9
					c0-0.7,0.1-1.3,0.3-1.8c0.2-0.6,0.5-1,0.9-1.4c0.4-0.4,0.9-0.7,1.4-0.9c0.6-0.2,1.2-0.3,1.9-0.3c0.6,0,1.1,0.1,1.5,0.2
					c0.4,0.2,0.8,0.3,1.1,0.6c0.3,0.2,0.5,0.5,0.6,0.7c0.1,0.3,0.2,0.5,0.2,0.7c0,0.2-0.1,0.4-0.2,0.6c-0.2,0.2-0.4,0.2-0.6,0.2
					c-0.1,0-0.2,0-0.4-0.1c-0.1-0.1-0.2-0.1-0.3-0.2c-0.2-0.3-0.4-0.6-0.5-0.8c-0.1-0.2-0.3-0.3-0.6-0.4c-0.3-0.1-0.6-0.2-1-0.2
					c-0.4,0-0.8,0.1-1.1,0.2c-0.3,0.1-0.6,0.3-0.8,0.6c-0.2,0.3-0.4,0.6-0.5,1c-0.1,0.4-0.2,0.8-0.2,1.3c0,1,0.2,1.8,0.7,2.3
					c0.5,0.5,1.1,0.8,1.9,0.8c0.4,0,0.8-0.1,1.1-0.2c0.4-0.1,0.7-0.3,1.1-0.5v-1.4h-1.4c-0.3,0-0.6,0-0.7-0.1
					c-0.2-0.1-0.3-0.3-0.3-0.5c0-0.2,0.1-0.4,0.2-0.5c0.1-0.1,0.3-0.2,0.6-0.2h2c0.2,0,0.4,0,0.6,0.1s0.3,0.1,0.4,0.3
					C17.5,51.5,17.5,51.7,17.5,52z"/>
				<path class="st1" d="M18.6,51.9v-4.1c0-0.4,0.1-0.6,0.2-0.8c0.2-0.2,0.4-0.3,0.6-0.3c0.3,0,0.5,0.1,0.6,0.3
					c0.2,0.2,0.2,0.4,0.2,0.8V52c0,0.5,0.1,0.9,0.2,1.2c0.1,0.3,0.3,0.6,0.6,0.8c0.3,0.2,0.7,0.3,1.2,0.3c0.7,0,1.2-0.2,1.4-0.5
					c0.3-0.4,0.4-0.9,0.4-1.7v-4.3c0-0.4,0.1-0.6,0.2-0.8c0.2-0.2,0.4-0.3,0.6-0.3c0.3,0,0.5,0.1,0.6,0.3c0.2,0.2,0.2,0.4,0.2,0.8
					v4.1c0,0.7-0.1,1.2-0.2,1.7c-0.1,0.5-0.4,0.8-0.7,1.2c-0.3,0.3-0.7,0.5-1.1,0.6c-0.4,0.1-0.9,0.2-1.5,0.2
					c-0.7,0-1.2-0.1-1.7-0.2c-0.5-0.1-0.9-0.4-1.2-0.7s-0.5-0.7-0.7-1.2C18.7,53.1,18.6,52.6,18.6,51.9z"/>
				<path class="st1" d="M32.1,54.5l-0.4-1.1h-3.5l-0.4,1.1c-0.2,0.4-0.3,0.7-0.4,0.9c-0.1,0.2-0.3,0.2-0.6,0.2
					c-0.2,0-0.4-0.1-0.6-0.2c-0.2-0.2-0.3-0.3-0.3-0.5c0-0.1,0-0.2,0.1-0.4c0-0.1,0.1-0.3,0.2-0.5l2.2-5.6c0.1-0.2,0.1-0.4,0.2-0.6
					c0.1-0.2,0.2-0.4,0.3-0.6c0.1-0.1,0.2-0.3,0.4-0.4c0.2-0.1,0.4-0.1,0.6-0.1c0.2,0,0.4,0,0.6,0.1c0.2,0.1,0.3,0.2,0.4,0.4
					c0.1,0.1,0.2,0.3,0.3,0.5c0.1,0.2,0.2,0.4,0.3,0.7l2.3,5.6c0.2,0.4,0.3,0.7,0.3,0.9c0,0.2-0.1,0.4-0.2,0.5
					c-0.2,0.2-0.4,0.3-0.6,0.3c-0.1,0-0.3,0-0.4-0.1c-0.1,0-0.2-0.1-0.2-0.2s-0.1-0.2-0.2-0.4C32.2,54.8,32.1,54.6,32.1,54.5z
					 M28.6,52.1h2.6l-1.3-3.6L28.6,52.1z"/>
				<path class="st1" d="M37,51.8h-0.6v2.8c0,0.4-0.1,0.6-0.2,0.8c-0.2,0.2-0.4,0.3-0.6,0.3c-0.3,0-0.5-0.1-0.6-0.3
					c-0.2-0.2-0.2-0.4-0.2-0.8v-6.6c0-0.4,0.1-0.6,0.3-0.8c0.2-0.2,0.4-0.3,0.8-0.3h2.8c0.4,0,0.7,0,1,0.1c0.3,0,0.5,0.1,0.8,0.2
					c0.3,0.1,0.5,0.3,0.7,0.5c0.2,0.2,0.4,0.5,0.5,0.7c0.1,0.3,0.2,0.6,0.2,0.9c0,0.6-0.2,1.2-0.5,1.5c-0.4,0.4-0.9,0.7-1.6,0.8
					c0.3,0.2,0.6,0.4,0.9,0.7c0.3,0.3,0.5,0.7,0.8,1c0.2,0.4,0.4,0.7,0.5,1c0.1,0.3,0.2,0.5,0.2,0.6c0,0.1,0,0.2-0.1,0.3
					c-0.1,0.1-0.2,0.2-0.3,0.3c-0.1,0.1-0.3,0.1-0.4,0.1c-0.2,0-0.4,0-0.5-0.1s-0.2-0.2-0.3-0.4c-0.1-0.1-0.2-0.3-0.4-0.6L39,53.3
					c-0.3-0.4-0.5-0.8-0.7-1s-0.4-0.4-0.6-0.5C37.5,51.8,37.3,51.8,37,51.8z M38,48.2h-1.6v2.4h1.6c0.4,0,0.8,0,1.1-0.1
					c0.3-0.1,0.5-0.2,0.7-0.4s0.2-0.4,0.2-0.7c0-0.2-0.1-0.5-0.2-0.6c-0.1-0.2-0.3-0.3-0.5-0.4C39,48.2,38.6,48.2,38,48.2z"/>
				<path class="st1" d="M48.2,54.5l-0.4-1.1h-3.5l-0.4,1.1c-0.2,0.4-0.3,0.7-0.4,0.9c-0.1,0.2-0.3,0.2-0.6,0.2
					c-0.2,0-0.4-0.1-0.6-0.2C42.1,55.2,42,55,42,54.8c0-0.1,0-0.2,0.1-0.4c0-0.1,0.1-0.3,0.2-0.5l2.2-5.6c0.1-0.2,0.1-0.4,0.2-0.6
					c0.1-0.2,0.2-0.4,0.3-0.6c0.1-0.1,0.2-0.3,0.4-0.4c0.2-0.1,0.4-0.1,0.6-0.1c0.2,0,0.4,0,0.6,0.1c0.2,0.1,0.3,0.2,0.4,0.4
					c0.1,0.1,0.2,0.3,0.3,0.5c0.1,0.2,0.2,0.4,0.3,0.7l2.3,5.6c0.2,0.4,0.3,0.7,0.3,0.9c0,0.2-0.1,0.4-0.2,0.5
					c-0.2,0.2-0.4,0.3-0.6,0.3c-0.1,0-0.3,0-0.4-0.1c-0.1,0-0.2-0.1-0.2-0.2s-0.1-0.2-0.2-0.4C48.3,54.8,48.2,54.6,48.2,54.5z
					 M44.7,52.1h2.6L46,48.6L44.7,52.1z"/>
				<path class="st1" d="M53,47.8l3.4,5.1v-5.1c0-0.3,0.1-0.6,0.2-0.8s0.3-0.2,0.6-0.2c0.3,0,0.4,0.1,0.6,0.2
					c0.1,0.2,0.2,0.4,0.2,0.8v6.8c0,0.8-0.3,1.1-0.9,1.1c-0.2,0-0.3,0-0.4-0.1c-0.1,0-0.2-0.1-0.4-0.2S56,55.1,55.9,55
					c-0.1-0.1-0.2-0.3-0.3-0.4l-3.3-5v5.1c0,0.3-0.1,0.6-0.2,0.7c-0.2,0.2-0.3,0.3-0.6,0.3c-0.2,0-0.4-0.1-0.6-0.3
					c-0.1-0.2-0.2-0.4-0.2-0.7V48c0-0.3,0-0.5,0.1-0.7c0.1-0.2,0.2-0.3,0.4-0.4c0.2-0.1,0.4-0.2,0.6-0.2c0.2,0,0.3,0,0.4,0.1
					c0.1,0.1,0.2,0.1,0.3,0.2s0.2,0.2,0.3,0.3C52.8,47.5,52.9,47.6,53,47.8z"/>
				<path class="st1" d="M64.9,48.3H63v6.3c0,0.4-0.1,0.6-0.2,0.8c-0.2,0.2-0.4,0.3-0.6,0.3c-0.3,0-0.5-0.1-0.6-0.3
					c-0.2-0.2-0.2-0.4-0.2-0.8v-6.3h-1.9c-0.3,0-0.5-0.1-0.7-0.2c-0.1-0.1-0.2-0.3-0.2-0.5c0-0.2,0.1-0.4,0.2-0.5
					c0.2-0.1,0.4-0.2,0.7-0.2h5.6c0.3,0,0.5,0.1,0.7,0.2c0.1,0.1,0.2,0.3,0.2,0.5c0,0.2-0.1,0.4-0.2,0.5
					C65.4,48.2,65.2,48.3,64.9,48.3z"/>
				<path class="st1" d="M71.9,48.2h-3.9v2.1h3.6c0.3,0,0.5,0.1,0.6,0.2c0.1,0.1,0.2,0.3,0.2,0.5c0,0.2-0.1,0.4-0.2,0.5
					c-0.1,0.1-0.3,0.2-0.6,0.2h-3.6v2.5H72c0.3,0,0.5,0.1,0.6,0.2s0.2,0.3,0.2,0.5c0,0.2-0.1,0.4-0.2,0.5c-0.1,0.1-0.3,0.2-0.6,0.2
					h-4.7c-0.4,0-0.7-0.1-0.8-0.3c-0.2-0.2-0.3-0.4-0.3-0.8v-6.5c0-0.3,0-0.5,0.1-0.6c0.1-0.2,0.2-0.3,0.3-0.3
					c0.2-0.1,0.4-0.1,0.6-0.1h4.6c0.3,0,0.5,0.1,0.6,0.2s0.2,0.3,0.2,0.5c0,0.2-0.1,0.4-0.2,0.5S72.2,48.2,71.9,48.2z"/>
				<path class="st1" d="M79.3,48.2h-3.9v2.1H79c0.3,0,0.5,0.1,0.6,0.2c0.1,0.1,0.2,0.3,0.2,0.5c0,0.2-0.1,0.4-0.2,0.5
					c-0.1,0.1-0.3,0.2-0.6,0.2h-3.6v2.5h4.1c0.3,0,0.5,0.1,0.6,0.2s0.2,0.3,0.2,0.5c0,0.2-0.1,0.4-0.2,0.5c-0.1,0.1-0.3,0.2-0.6,0.2
					h-4.7c-0.4,0-0.7-0.1-0.8-0.3c-0.2-0.2-0.3-0.4-0.3-0.8v-6.5c0-0.3,0-0.5,0.1-0.6c0.1-0.2,0.2-0.3,0.3-0.3
					c0.2-0.1,0.4-0.1,0.6-0.1h4.6c0.3,0,0.5,0.1,0.6,0.2c0.1,0.1,0.2,0.3,0.2,0.5c0,0.2-0.1,0.4-0.2,0.5
					C79.8,48.1,79.6,48.2,79.3,48.2z"/>
			</g>
			<g>
				<g>
					<path d="M21,27V16.2c-2,1.5-3.4,2.3-4.1,2.3c-0.3,0-0.6-0.1-0.9-0.4c-0.3-0.3-0.4-0.6-0.4-0.9c0-0.4,0.1-0.7,0.4-0.9
						c0.3-0.2,0.7-0.4,1.3-0.7c1-0.5,1.7-0.9,2.3-1.4c0.6-0.5,1.1-1.1,1.5-1.7c0.4-0.6,0.7-1,0.9-1.1c0.1-0.1,0.4-0.2,0.8-0.2
						c0.4,0,0.8,0.2,1,0.5c0.3,0.3,0.4,0.8,0.4,1.3v13.6c0,1.6-0.5,2.4-1.6,2.4c-0.5,0-0.9-0.2-1.2-0.5C21.1,28.1,21,27.6,21,27z"/>
					<path d="M40.6,20.1c0,1.3-0.1,2.4-0.2,3.3c-0.2,0.9-0.5,1.8-0.9,2.5c-0.5,0.9-1.2,1.7-2.1,2.2c-0.9,0.5-1.8,0.8-2.8,0.8
						c-1.2,0-2.3-0.3-3.2-1c-1-0.7-1.7-1.6-2.2-2.8c-0.2-0.7-0.4-1.4-0.5-2.2c-0.1-0.8-0.2-1.7-0.2-2.6c0-1.2,0.1-2.3,0.2-3.2
						c0.1-1,0.3-1.8,0.6-2.5c0.5-1.1,1.1-2,2-2.6c0.9-0.6,2-0.9,3.2-0.9c0.8,0,1.6,0.1,2.2,0.4c0.7,0.3,1.2,0.7,1.8,1.2
						c0.5,0.5,0.9,1.1,1.3,1.9C40.3,15.9,40.6,17.7,40.6,20.1z M37.4,19.9c0-1.4-0.1-2.6-0.3-3.6c-0.2-0.9-0.5-1.6-0.9-2.1
						c-0.4-0.5-1-0.7-1.7-0.7c-1,0-1.8,0.5-2.2,1.6c-0.4,1.1-0.6,2.7-0.6,4.9c0,1.5,0.1,2.7,0.3,3.7c0.2,0.9,0.5,1.7,0.9,2.2
						c0.4,0.5,1,0.7,1.7,0.7c0.7,0,1.3-0.3,1.7-0.8c0.4-0.5,0.7-1.2,0.9-2.2C37.3,22.6,37.4,21.4,37.4,19.9z"/>
					<path d="M53.8,20.1c0,1.3-0.1,2.4-0.2,3.3c-0.2,0.9-0.5,1.8-0.9,2.5c-0.5,0.9-1.2,1.7-2.1,2.2c-0.9,0.5-1.8,0.8-2.8,0.8
						c-1.2,0-2.3-0.3-3.2-1c-1-0.7-1.7-1.6-2.2-2.8c-0.2-0.7-0.4-1.4-0.5-2.2c-0.1-0.8-0.2-1.7-0.2-2.6c0-1.2,0.1-2.3,0.2-3.2
						c0.1-1,0.3-1.8,0.6-2.5c0.5-1.1,1.1-2,2-2.6c0.9-0.6,2-0.9,3.2-0.9c0.8,0,1.6,0.1,2.2,0.4c0.7,0.3,1.2,0.7,1.8,1.2
						c0.5,0.5,0.9,1.1,1.3,1.9C53.5,15.9,53.8,17.7,53.8,20.1z M50.6,19.9c0-1.4-0.1-2.6-0.3-3.6c-0.2-0.9-0.5-1.6-0.9-2.1
						c-0.4-0.5-1-0.7-1.7-0.7c-1,0-1.8,0.5-2.2,1.6C45.2,16.2,45,17.8,45,20c0,1.5,0.1,2.7,0.3,3.7c0.2,0.9,0.5,1.7,0.9,2.2
						c0.4,0.5,1,0.7,1.7,0.7c0.7,0,1.3-0.3,1.7-0.8c0.4-0.5,0.7-1.2,0.9-2.2C50.5,22.6,50.6,21.4,50.6,19.9z"/>
					<path d="M61.8,15.7c0,1.5-0.3,2.6-1,3.4c-0.7,0.7-1.6,1.1-2.7,1.1c-0.7,0-1.4-0.2-1.9-0.5c-0.6-0.3-1-0.8-1.3-1.5
						c-0.3-0.7-0.5-1.5-0.5-2.4c0-1,0.1-1.9,0.4-2.6c0.2-0.7,0.6-1.2,1.2-1.6c0.5-0.4,1.3-0.5,2.1-0.5c0.6,0,1.2,0.1,1.6,0.3
						c0.5,0.2,0.9,0.5,1.2,0.9c0.3,0.4,0.6,0.9,0.7,1.4C61.7,14.3,61.8,14.9,61.8,15.7z M59.6,15.6c0-1-0.1-1.8-0.3-2.3
						c-0.2-0.5-0.6-0.7-1.2-0.7c-0.4,0-0.7,0.1-0.9,0.3c-0.2,0.2-0.4,0.6-0.5,1c-0.1,0.4-0.1,1-0.1,1.7c0,0.7,0,1.3,0.1,1.7
						s0.2,0.8,0.5,1c0.2,0.2,0.5,0.3,0.9,0.3c0.6,0,1-0.2,1.2-0.7C59.5,17.5,59.6,16.7,59.6,15.6z M69.7,12.7l-9.9,15.9
						c-0.3,0.4-0.5,0.7-0.9,0.7c-0.2,0-0.4-0.1-0.5-0.2c-0.2-0.1-0.3-0.3-0.3-0.5c0-0.2,0.1-0.4,0.2-0.6l9.9-16.1
						c0.2-0.3,0.3-0.5,0.5-0.7c0.1-0.1,0.3-0.2,0.6-0.2c0.2,0,0.4,0.1,0.6,0.2c0.1,0.1,0.2,0.3,0.2,0.6C70.2,11.9,70,12.2,69.7,12.7
						z M73.9,24.3c0,1.5-0.3,2.6-1,3.4c-0.7,0.7-1.6,1.1-2.7,1.1c-0.7,0-1.4-0.2-1.9-0.5c-0.6-0.3-1-0.8-1.3-1.5
						c-0.3-0.7-0.5-1.5-0.5-2.4c0-1.5,0.3-2.7,0.9-3.5c0.6-0.8,1.5-1.2,2.8-1.2c0.6,0,1.2,0.1,1.6,0.3c0.5,0.2,0.9,0.5,1.2,0.9
						c0.3,0.4,0.6,0.9,0.7,1.4C73.9,22.9,73.9,23.5,73.9,24.3z M71.7,24.2c0-1-0.1-1.8-0.3-2.2c-0.2-0.5-0.6-0.7-1.2-0.7
						c-0.4,0-0.7,0.1-0.9,0.3c-0.2,0.2-0.4,0.5-0.5,1c-0.1,0.4-0.1,1-0.1,1.7c0,1.1,0.1,1.8,0.3,2.3c0.2,0.5,0.6,0.7,1.2,0.7
						c0.6,0,1-0.3,1.2-0.8S71.7,25.2,71.7,24.2z"/>
				</g>
				<g>
					<path d="M13.5,40.2l-1.3-5v5.4c0,0.3-0.1,0.5-0.2,0.7c-0.1,0.2-0.3,0.2-0.5,0.2c-0.2,0-0.4-0.1-0.5-0.2
						c-0.1-0.1-0.2-0.4-0.2-0.7v-6.2c0-0.3,0.1-0.6,0.3-0.7c0.2-0.1,0.4-0.2,0.7-0.2h0.5c0.3,0,0.5,0,0.6,0.1
						c0.1,0.1,0.2,0.1,0.3,0.3s0.1,0.4,0.2,0.7l1.1,4.3l1.1-4.3c0.1-0.3,0.2-0.5,0.2-0.7c0.1-0.1,0.2-0.2,0.3-0.3
						c0.1-0.1,0.3-0.1,0.6-0.1h0.5c0.3,0,0.5,0.1,0.7,0.2c0.2,0.1,0.3,0.4,0.3,0.7v6.2c0,0.3-0.1,0.5-0.2,0.7
						c-0.1,0.2-0.3,0.2-0.5,0.2c-0.2,0-0.4-0.1-0.5-0.2c-0.1-0.2-0.2-0.4-0.2-0.7v-5.4l-1.3,5c-0.1,0.3-0.1,0.6-0.2,0.7
						c-0.1,0.2-0.1,0.3-0.3,0.4c-0.1,0.1-0.3,0.2-0.6,0.2c-0.2,0-0.3,0-0.5-0.1c-0.1-0.1-0.2-0.2-0.3-0.3c-0.1-0.1-0.1-0.3-0.2-0.4
						C13.6,40.5,13.5,40.4,13.5,40.2z"/>
					<path d="M22.9,33.4c0.8,0,1.5,0.2,2.1,0.5c0.6,0.3,1,0.8,1.3,1.4c0.3,0.6,0.4,1.3,0.4,2.1c0,0.6-0.1,1.2-0.2,1.7
						c-0.2,0.5-0.4,0.9-0.7,1.3c-0.3,0.4-0.7,0.6-1.2,0.8s-1,0.3-1.6,0.3c-0.6,0-1.2-0.1-1.6-0.3c-0.5-0.2-0.9-0.5-1.2-0.8
						c-0.3-0.4-0.6-0.8-0.7-1.3c-0.2-0.5-0.2-1.1-0.2-1.6c0-0.6,0.1-1.2,0.3-1.7c0.2-0.5,0.4-0.9,0.8-1.3c0.3-0.4,0.7-0.6,1.2-0.8
						C21.7,33.5,22.3,33.4,22.9,33.4z M25.1,37.4c0-0.6-0.1-1.1-0.3-1.5c-0.2-0.4-0.5-0.7-0.8-1c-0.3-0.2-0.7-0.3-1.2-0.3
						c-0.3,0-0.6,0.1-0.9,0.2c-0.3,0.1-0.5,0.3-0.7,0.5c-0.2,0.2-0.3,0.5-0.5,0.9c-0.1,0.4-0.2,0.8-0.2,1.2c0,0.4,0.1,0.8,0.2,1.2
						c0.1,0.4,0.3,0.7,0.5,0.9c0.2,0.2,0.4,0.4,0.7,0.5c0.3,0.1,0.6,0.2,0.9,0.2c0.4,0,0.8-0.1,1.1-0.3c0.3-0.2,0.6-0.5,0.8-0.9
						C25,38.6,25.1,38.1,25.1,37.4z"/>
					<path d="M29.6,34.4l3.1,4.6v-4.7c0-0.3,0.1-0.5,0.2-0.7c0.1-0.2,0.3-0.2,0.5-0.2c0.2,0,0.4,0.1,0.5,0.2
						c0.1,0.2,0.2,0.4,0.2,0.7v6.2c0,0.7-0.3,1-0.9,1c-0.1,0-0.3,0-0.4-0.1c-0.1,0-0.2-0.1-0.3-0.2c-0.1-0.1-0.2-0.2-0.3-0.3
						s-0.2-0.2-0.3-0.4l-3-4.6v4.6c0,0.3-0.1,0.5-0.2,0.7c-0.1,0.2-0.3,0.2-0.5,0.2c-0.2,0-0.4-0.1-0.5-0.2
						c-0.1-0.2-0.2-0.4-0.2-0.7v-6.1c0-0.3,0-0.5,0.1-0.6c0.1-0.2,0.2-0.3,0.3-0.4c0.2-0.1,0.3-0.2,0.5-0.2c0.1,0,0.3,0,0.4,0.1
						c0.1,0,0.2,0.1,0.3,0.2s0.2,0.2,0.2,0.3C29.5,34.1,29.5,34.2,29.6,34.4z"/>
					<path d="M40.5,34.8h-3.6v1.9h3.3c0.2,0,0.4,0.1,0.5,0.2c0.1,0.1,0.2,0.3,0.2,0.4c0,0.2-0.1,0.3-0.2,0.4
						c-0.1,0.1-0.3,0.2-0.5,0.2h-3.3v2.2h3.7c0.2,0,0.4,0.1,0.6,0.2c0.1,0.1,0.2,0.3,0.2,0.5c0,0.2-0.1,0.3-0.2,0.5
						c-0.1,0.1-0.3,0.2-0.6,0.2h-4.3c-0.3,0-0.6-0.1-0.7-0.2c-0.2-0.2-0.2-0.4-0.2-0.7v-5.9c0-0.2,0-0.4,0.1-0.6
						c0.1-0.1,0.2-0.2,0.3-0.3c0.1-0.1,0.3-0.1,0.6-0.1h4.2c0.3,0,0.4,0.1,0.6,0.2c0.1,0.1,0.2,0.3,0.2,0.4c0,0.2-0.1,0.3-0.2,0.4
						S40.7,34.8,40.5,34.8z"/>
					<path d="M43.8,40.6v-2.5l-1.9-3c-0.2-0.3-0.3-0.5-0.4-0.6c-0.1-0.2-0.1-0.3-0.1-0.4c0-0.2,0.1-0.3,0.2-0.5
						c0.1-0.1,0.3-0.2,0.5-0.2c0.2,0,0.4,0.1,0.5,0.2c0.1,0.1,0.3,0.4,0.5,0.7l1.5,2.4l1.5-2.4c0.1-0.1,0.2-0.3,0.2-0.4
						c0.1-0.1,0.1-0.2,0.2-0.3c0.1-0.1,0.2-0.2,0.2-0.2c0.1,0,0.2-0.1,0.3-0.1c0.2,0,0.4,0.1,0.5,0.2c0.1,0.1,0.2,0.3,0.2,0.5
						c0,0.1,0,0.3-0.1,0.4c-0.1,0.1-0.2,0.3-0.3,0.6l-2,3v2.5c0,0.3-0.1,0.6-0.2,0.7c-0.2,0.2-0.3,0.2-0.6,0.2
						c-0.2,0-0.4-0.1-0.6-0.2C43.9,41.1,43.8,40.9,43.8,40.6z"/>
					<path d="M53.9,41.4h-2.4c-0.3,0-0.6-0.1-0.7-0.2c-0.1-0.2-0.2-0.4-0.2-0.7v-5.9c0-0.3,0.1-0.6,0.2-0.7c0.2-0.2,0.4-0.2,0.7-0.2
						h2.5c0.4,0,0.7,0,1,0.1c0.3,0,0.5,0.1,0.7,0.3c0.2,0.1,0.3,0.3,0.5,0.4c0.1,0.2,0.3,0.4,0.3,0.6c0.1,0.2,0.1,0.4,0.1,0.7
						c0,0.8-0.4,1.4-1.2,1.7c1,0.3,1.5,1,1.5,1.9c0,0.4-0.1,0.8-0.3,1.2c-0.2,0.4-0.5,0.6-0.9,0.8c-0.2,0.1-0.5,0.2-0.8,0.2
						C54.7,41.4,54.3,41.4,53.9,41.4z M52.2,34.7v2h1.5c0.4,0,0.7,0,0.9-0.1s0.4-0.2,0.5-0.4c0.1-0.2,0.1-0.3,0.1-0.5
						c0-0.4-0.1-0.7-0.4-0.8c-0.3-0.1-0.7-0.2-1.3-0.2H52.2z M53.8,37.9h-1.7v2.3h1.7c1.1,0,1.6-0.4,1.6-1.2c0-0.4-0.1-0.7-0.4-0.9
						C54.8,38,54.4,37.9,53.8,37.9z"/>
					<path d="M62.5,40.5l-0.4-1h-3.2l-0.4,1c-0.1,0.4-0.3,0.7-0.4,0.8c-0.1,0.1-0.3,0.2-0.5,0.2c-0.2,0-0.4-0.1-0.5-0.2
						c-0.2-0.1-0.2-0.3-0.2-0.5c0-0.1,0-0.2,0.1-0.3c0-0.1,0.1-0.3,0.2-0.5l2-5.1c0.1-0.1,0.1-0.3,0.2-0.5c0.1-0.2,0.2-0.4,0.3-0.5
						c0.1-0.1,0.2-0.2,0.4-0.3c0.1-0.1,0.3-0.1,0.5-0.1c0.2,0,0.4,0,0.6,0.1c0.1,0.1,0.3,0.2,0.4,0.3c0.1,0.1,0.2,0.3,0.2,0.4
						c0.1,0.2,0.1,0.4,0.2,0.6l2,5.1c0.2,0.4,0.2,0.7,0.2,0.8c0,0.2-0.1,0.3-0.2,0.5c-0.2,0.2-0.3,0.2-0.5,0.2c-0.1,0-0.2,0-0.3-0.1
						c-0.1,0-0.2-0.1-0.2-0.2s-0.1-0.2-0.2-0.4C62.6,40.8,62.6,40.6,62.5,40.5z M59.4,38.3h2.3l-1.2-3.2L59.4,38.3z"/>
					<path d="M71.2,38.9c0,0.2-0.1,0.5-0.2,0.8c-0.1,0.3-0.3,0.6-0.6,0.9c-0.3,0.3-0.6,0.5-1,0.7c-0.4,0.2-0.9,0.3-1.4,0.3
						c-0.4,0-0.8,0-1.1-0.1c-0.3-0.1-0.6-0.2-0.9-0.4s-0.5-0.4-0.8-0.7c-0.2-0.2-0.4-0.5-0.5-0.8c-0.1-0.3-0.3-0.6-0.3-1
						c-0.1-0.3-0.1-0.7-0.1-1.1c0-0.6,0.1-1.2,0.3-1.7c0.2-0.5,0.4-0.9,0.8-1.3c0.3-0.4,0.7-0.6,1.2-0.8c0.5-0.2,1-0.3,1.5-0.3
						c0.6,0,1.2,0.1,1.7,0.4s0.9,0.6,1.1,0.9c0.3,0.4,0.4,0.7,0.4,1.1c0,0.2-0.1,0.3-0.2,0.5c-0.1,0.1-0.3,0.2-0.5,0.2
						c-0.2,0-0.4,0-0.5-0.1c-0.1-0.1-0.2-0.3-0.3-0.5c-0.2-0.4-0.5-0.7-0.7-0.9c-0.3-0.2-0.6-0.3-1-0.3c-0.7,0-1.2,0.2-1.6,0.7
						c-0.4,0.5-0.6,1.2-0.6,2.1c0,0.6,0.1,1.1,0.3,1.5s0.4,0.7,0.7,0.9c0.3,0.2,0.7,0.3,1.1,0.3c0.5,0,0.8-0.1,1.2-0.3
						c0.3-0.2,0.6-0.6,0.7-1c0.1-0.2,0.2-0.4,0.3-0.5c0.1-0.1,0.3-0.2,0.5-0.2c0.2,0,0.4,0.1,0.5,0.2C71.2,38.6,71.2,38.7,71.2,38.9
						z"/>
					<path d="M73.7,34.4v2.7l3.1-3.3c0.1-0.2,0.3-0.3,0.4-0.3c0.1-0.1,0.2-0.1,0.4-0.1c0.2,0,0.4,0.1,0.6,0.2
						c0.1,0.1,0.2,0.3,0.2,0.5c0,0.2-0.1,0.5-0.4,0.7l-1.9,1.8l2.2,3.2c0.2,0.2,0.3,0.4,0.4,0.6c0.1,0.2,0.1,0.3,0.1,0.5
						c0,0.2-0.1,0.3-0.2,0.5c-0.1,0.1-0.3,0.2-0.6,0.2c-0.2,0-0.4,0-0.5-0.1c-0.1-0.1-0.3-0.2-0.4-0.4c-0.1-0.2-0.2-0.3-0.3-0.4
						L75,37.7l-1.3,1.2v1.6c0,0.3-0.1,0.6-0.2,0.7c-0.2,0.2-0.3,0.2-0.6,0.2c-0.1,0-0.3,0-0.4-0.1c-0.1-0.1-0.2-0.2-0.3-0.3
						c0-0.1-0.1-0.2-0.1-0.3c0-0.1,0-0.3,0-0.6v-5.8c0-0.3,0.1-0.6,0.2-0.7c0.1-0.2,0.3-0.2,0.6-0.2c0.2,0,0.4,0.1,0.6,0.2
						C73.6,33.8,73.7,34,73.7,34.4z"/>
				</g>
			</g>
		</g>
		<g>
			<path class="st0" d="M189.2,66.6h-86.6c-0.8,0-1.5-0.7-1.5-1.5V1.5c0-0.8,0.7-1.5,1.5-1.5h86.6c0.8,0,1.5,0.7,1.5,1.5v63.6
				C190.7,66,190,66.6,189.2,66.6z"/>
			<g>
				<g>
					<polygon class="st1" points="179.8,9.9 179.8,10.2 179.4,10.2 179.4,11.8 179,11.8 179,10.2 178.6,10.2 178.6,9.9 					"/>
					<polygon class="st1" points="180.1,11.8 180.1,9.9 180.6,9.9 180.9,11.1 181.2,9.9 181.7,9.9 181.7,11.8 181.4,11.8 
						181.4,10.3 181.4,10.3 181.1,11.8 180.8,11.8 180.4,10.3 180.4,10.3 180.4,11.8 					"/>
					<path class="st1" d="M122.2,10.5h49.6c0,0,9.7,1.2,10.8,10.7c1.1,9.5-7.5,12.9-9.8,12.9s-51.2,0-51.2,0s-11.3-0.7-11-13.8
						C110.6,19,114.1,10.4,122.2,10.5z"/>
					<circle class="st1" cx="122.4" cy="22.5" r="10.2"/>
					<path class="st2" d="M170.3,34.9h-48c-6.9,0-12.5-5.6-12.4-12.5c0-6.9,5.6-12.4,12.4-12.4h48c6.9,0,12.5,5.6,12.4,12.5
						C182.7,29.3,177.1,34.8,170.3,34.9 M122.3,10.9c-6.4-0.1-11.6,5.1-11.6,11.4c-0.1,6.4,5.1,11.6,11.4,11.6c0.1,0,0.1,0,0.2,0h48
						c6.4-0.1,11.5-5.3,11.4-11.6c-0.1-6.3-5.1-11.4-11.4-11.4L122.3,10.9z"/>
					<path class="st3" d="M165.7,20.1c-1.9,0-3.5,1.5-3.5,3.5s1.5,3.5,3.5,3.5c1.9,0,3.5-1.5,3.5-3.5
						C169.1,21.6,167.6,20.1,165.7,20.1 M165.7,25.3c-1,0-1.8-0.8-1.8-1.8s0.8-1.8,1.8-1.8s1.8,0.8,1.8,1.8c0,0,0,0,0,0
						C167.4,24.5,166.6,25.3,165.7,25.3L165.7,25.3"/>
					<path class="st3" d="M149.8,20.1c-1.9,0-3.5,1.5-3.5,3.5c0,1.9,1.5,3.5,3.5,3.5c1.9,0,3.5-1.5,3.5-3.5
						C153.3,21.6,151.7,20.1,149.8,20.1C149.8,20.1,149.8,20.1,149.8,20.1 M149.8,25.3c-1,0-1.8-0.8-1.8-1.8s0.8-1.8,1.8-1.8
						s1.8,0.8,1.8,1.8c0,0,0,0,0,0C151.6,24.5,150.8,25.3,149.8,25.3C149.8,25.3,149.8,25.3,149.8,25.3"/>
					<path class="st3" d="M162,25.4c-0.2,0.1-0.4,0.1-0.7,0.1c-0.6,0-0.7-0.2-0.7-0.8v-3.2h1.4v-1.3h-1.4v-1.9H159l-0.3,1.9h-1.1v0
						h-0.1c-0.9,0-1.6,0.6-2,1.4l-0.6-1.4h-1.1v6.6h1.9V24c0-1.5,0.9-2.4,1.9-2.4h1.1v3.3c0,1.6,0.8,2.1,2.1,2.1
						c0.5,0,1-0.1,1.5-0.2L162,25.4z"/>
					<polyline class="st3" points="171.5,22.3 171.5,26.8 169.6,26.8 169.6,20.2 170.7,20.2 171.1,21.2 					"/>
					<path class="st3" d="M171.1,21.2c0.6-0.7,1.4-1.2,2.3-1.2c1.6,0,2.2,1.3,2.2,2.4v4.4h-1.9v-4.3c0-0.6-0.5-0.9-1-0.9
						c-0.5,0-0.9,0.3-1.2,0.6"/>
					<polygon class="st3" points="138.8,17.8 140.9,17.8 143.9,23.5 143.9,17.8 145.7,17.8 145.7,26.8 143.8,26.8 140.6,20.6 
						140.6,26.8 138.8,26.8 					"/>
					<path class="st4" d="M122.2,35.9c-7.4,0-13.5-6-13.5-13.5c0-7.4,6-13.5,13.5-13.5c7.4,0,13.5,6,13.5,13.5
						C135.7,29.8,129.6,35.9,122.2,35.9 M122.2,13.2c-5.1,0-9.2,4.1-9.2,9.2s4.1,9.2,9.2,9.2c5.1,0,9.2-4.1,9.2-9.2
						c0-2.4-1-4.8-2.7-6.5C127,14.1,124.6,13.2,122.2,13.2"/>
					<rect x="136.9" y="6.8" class="st4" width="1.1" height="1.1"/>
					<rect x="133.9" y="7.9" class="st4" width="1" height="1"/>
					<rect x="132" y="9.9" class="st3" width="1" height="1"/>
					<rect x="134.9" y="8.9" class="st3" width="1.1" height="1"/>
					<rect x="131" y="8.9" class="st3" width="1" height="0.9"/>
					<rect x="133.9" y="9.9" class="st3" width="1" height="1"/>
					<rect x="135.8" y="5.8" class="st3" width="1" height="1"/>
					<rect x="133.9" y="6.8" class="st3" width="1.9" height="1"/>
					<rect x="133" y="7.9" class="st3" width="1" height="2"/>
					<path class="st3" d="M133,10.9v1h-1v-1h-1.6v0.7h-0.9v0.9h1v1h-1v-1h-1V14h-1v1h-0.7v1h-0.7c-0.8,1.2-2.8,5-3.5,6.5
						c-2.2-3.1-3.9-4.3-5.3-4.7c-0.7-0.2-1.6,0.6-0.4,1.8c2.8,3.1,3.7,5.6,4.5,7.6c0.4,1.1,2.5,1.2,2.9,0.1c0.9-2.5,2.1-4.8,3.6-7
						v-1.1h0.8v-1h0.8v-1.1h1V16h-1v-1h1v1h1l0-1h0.8v-1.2h0.9v-0.8h0.8v-2.1H133z"/>
				</g>
				<g>
					<path d="M131.1,44.3c0,0.5-0.1,0.9-0.4,1.2c-0.2,0.4-0.6,0.7-1,0.9c-0.5,0.2-1,0.3-1.6,0.3c-0.8,0-1.4-0.1-1.9-0.4
						c-0.3-0.2-0.6-0.5-0.8-0.8c-0.2-0.3-0.3-0.7-0.3-1c0-0.2,0.1-0.3,0.2-0.5c0.1-0.1,0.3-0.2,0.5-0.2c0.2,0,0.3,0.1,0.4,0.2
						s0.2,0.3,0.3,0.5c0.1,0.2,0.2,0.4,0.3,0.6c0.1,0.2,0.3,0.3,0.5,0.4c0.2,0.1,0.5,0.2,0.8,0.2c0.5,0,0.8-0.1,1.1-0.3
						c0.3-0.2,0.4-0.5,0.4-0.8c0-0.3-0.1-0.5-0.2-0.6c-0.2-0.2-0.4-0.3-0.6-0.4c-0.2-0.1-0.6-0.2-1-0.3c-0.6-0.1-1-0.3-1.4-0.5
						c-0.4-0.2-0.7-0.4-0.9-0.7c-0.2-0.3-0.3-0.7-0.3-1.1c0-0.4,0.1-0.8,0.3-1.1c0.2-0.3,0.6-0.6,1-0.8c0.4-0.2,0.9-0.3,1.5-0.3
						c0.5,0,0.9,0.1,1.2,0.2c0.3,0.1,0.6,0.3,0.9,0.5c0.2,0.2,0.4,0.4,0.5,0.6c0.1,0.2,0.2,0.4,0.2,0.6c0,0.2-0.1,0.4-0.2,0.5
						s-0.3,0.2-0.5,0.2c-0.2,0-0.3,0-0.4-0.1c-0.1-0.1-0.2-0.2-0.3-0.4c-0.1-0.3-0.3-0.5-0.5-0.7c-0.2-0.2-0.5-0.2-0.9-0.2
						c-0.4,0-0.7,0.1-1,0.3c-0.2,0.2-0.4,0.4-0.4,0.6c0,0.2,0,0.3,0.1,0.4c0.1,0.1,0.2,0.2,0.3,0.3c0.1,0.1,0.3,0.1,0.4,0.2
						c0.1,0,0.4,0.1,0.7,0.2c0.4,0.1,0.8,0.2,1.2,0.3c0.4,0.1,0.6,0.3,0.9,0.4s0.4,0.4,0.6,0.7C131,43.6,131.1,43.9,131.1,44.3z"/>
					<path d="M136.9,40.2h-3.5V42h3.2c0.2,0,0.4,0.1,0.5,0.2c0.1,0.1,0.2,0.2,0.2,0.4c0,0.2-0.1,0.3-0.2,0.4
						c-0.1,0.1-0.3,0.2-0.5,0.2h-3.2v2.2h3.6c0.2,0,0.4,0.1,0.6,0.2c0.1,0.1,0.2,0.3,0.2,0.5c0,0.2-0.1,0.3-0.2,0.4
						c-0.1,0.1-0.3,0.2-0.6,0.2h-4.2c-0.3,0-0.6-0.1-0.7-0.2c-0.1-0.1-0.2-0.4-0.2-0.7v-5.8c0-0.2,0-0.4,0.1-0.5
						c0.1-0.1,0.2-0.2,0.3-0.3c0.1-0.1,0.3-0.1,0.5-0.1h4.1c0.2,0,0.4,0.1,0.6,0.2c0.1,0.1,0.2,0.3,0.2,0.4c0,0.2-0.1,0.3-0.2,0.4
						C137.3,40.1,137.1,40.2,136.9,40.2z"/>
					<path d="M145,44.2c0,0.2-0.1,0.5-0.2,0.8c-0.1,0.3-0.3,0.6-0.6,0.8c-0.3,0.3-0.6,0.5-1,0.7s-0.9,0.3-1.4,0.3
						c-0.4,0-0.8,0-1.1-0.1s-0.6-0.2-0.9-0.4c-0.3-0.2-0.5-0.4-0.7-0.6c-0.2-0.2-0.4-0.5-0.5-0.8c-0.1-0.3-0.2-0.6-0.3-1
						c-0.1-0.3-0.1-0.7-0.1-1.1c0-0.6,0.1-1.2,0.3-1.7c0.2-0.5,0.4-0.9,0.8-1.3c0.3-0.3,0.7-0.6,1.2-0.8c0.4-0.2,0.9-0.3,1.4-0.3
						c0.6,0,1.2,0.1,1.7,0.4c0.5,0.2,0.9,0.6,1.1,0.9c0.3,0.4,0.4,0.7,0.4,1c0,0.2-0.1,0.3-0.2,0.5c-0.1,0.1-0.3,0.2-0.5,0.2
						c-0.2,0-0.3,0-0.4-0.1c-0.1-0.1-0.2-0.3-0.3-0.5c-0.2-0.4-0.4-0.7-0.7-0.9s-0.6-0.3-1-0.3c-0.6,0-1.1,0.2-1.5,0.7
						c-0.4,0.5-0.6,1.2-0.6,2.1c0,0.6,0.1,1.1,0.3,1.5c0.2,0.4,0.4,0.7,0.7,0.9c0.3,0.2,0.7,0.3,1.1,0.3c0.4,0,0.8-0.1,1.1-0.3
						c0.3-0.2,0.5-0.5,0.7-1c0.1-0.2,0.1-0.4,0.2-0.5c0.1-0.1,0.3-0.2,0.5-0.2c0.2,0,0.3,0.1,0.5,0.2C144.9,43.9,145,44,145,44.2z"
						/>
					<path d="M145.8,43.5v-3.7c0-0.3,0.1-0.5,0.2-0.7c0.1-0.2,0.3-0.2,0.6-0.2c0.2,0,0.4,0.1,0.6,0.2c0.1,0.2,0.2,0.4,0.2,0.7v3.8
						c0,0.4,0,0.8,0.1,1.1c0.1,0.3,0.3,0.5,0.5,0.7c0.2,0.2,0.6,0.2,1,0.2c0.6,0,1-0.2,1.3-0.5c0.3-0.3,0.4-0.8,0.4-1.5v-3.8
						c0-0.3,0.1-0.6,0.2-0.7c0.1-0.2,0.3-0.2,0.6-0.2c0.2,0,0.4,0.1,0.6,0.2s0.2,0.4,0.2,0.7v3.7c0,0.6-0.1,1.1-0.2,1.5
						c-0.1,0.4-0.3,0.8-0.7,1.1c-0.3,0.3-0.6,0.4-1,0.6s-0.8,0.2-1.3,0.2c-0.6,0-1.1-0.1-1.5-0.2c-0.4-0.1-0.8-0.3-1-0.6
						c-0.3-0.3-0.5-0.6-0.6-1C145.9,44.5,145.8,44,145.8,43.5z"/>
					<path d="M155.5,43.3h-0.5v2.5c0,0.3-0.1,0.6-0.2,0.7c-0.1,0.2-0.3,0.2-0.6,0.2c-0.2,0-0.4-0.1-0.6-0.2
						c-0.1-0.2-0.2-0.4-0.2-0.7v-5.9c0-0.3,0.1-0.6,0.2-0.7c0.1-0.1,0.4-0.2,0.7-0.2h2.5c0.3,0,0.6,0,0.9,0s0.5,0.1,0.7,0.2
						c0.2,0.1,0.5,0.2,0.6,0.4s0.3,0.4,0.4,0.7c0.1,0.2,0.1,0.5,0.1,0.8c0,0.6-0.2,1-0.5,1.4c-0.3,0.3-0.8,0.6-1.5,0.7
						c0.3,0.1,0.5,0.4,0.8,0.6c0.3,0.3,0.5,0.6,0.7,0.9c0.2,0.3,0.3,0.6,0.5,0.9c0.1,0.3,0.2,0.4,0.2,0.5c0,0.1,0,0.2-0.1,0.3
						c-0.1,0.1-0.2,0.2-0.3,0.2c-0.1,0.1-0.2,0.1-0.4,0.1c-0.2,0-0.3,0-0.4-0.1c-0.1-0.1-0.2-0.2-0.3-0.3c-0.1-0.1-0.2-0.3-0.3-0.6
						l-0.6-1c-0.2-0.4-0.4-0.7-0.6-0.9c-0.2-0.2-0.4-0.3-0.5-0.4C156,43.4,155.8,43.3,155.5,43.3z M156.4,40.1h-1.4v2.1h1.4
						c0.4,0,0.7,0,0.9-0.1c0.3-0.1,0.4-0.2,0.6-0.3c0.1-0.2,0.2-0.4,0.2-0.6c0-0.2-0.1-0.4-0.2-0.6c-0.1-0.2-0.3-0.3-0.4-0.4
						C157.3,40.2,156.9,40.1,156.4,40.1z"/>
					<path d="M165.6,40.2h-3.5V42h3.2c0.2,0,0.4,0.1,0.5,0.2c0.1,0.1,0.2,0.2,0.2,0.4c0,0.2-0.1,0.3-0.2,0.4
						c-0.1,0.1-0.3,0.2-0.5,0.2h-3.2v2.2h3.6c0.2,0,0.4,0.1,0.6,0.2c0.1,0.1,0.2,0.3,0.2,0.5c0,0.2-0.1,0.3-0.2,0.4
						c-0.1,0.1-0.3,0.2-0.6,0.2h-4.2c-0.3,0-0.6-0.1-0.7-0.2c-0.1-0.1-0.2-0.4-0.2-0.7v-5.8c0-0.2,0-0.4,0.1-0.5
						c0.1-0.1,0.2-0.2,0.3-0.3c0.1-0.1,0.3-0.1,0.5-0.1h4.1c0.2,0,0.4,0.1,0.6,0.2c0.1,0.1,0.2,0.3,0.2,0.4c0,0.2-0.1,0.3-0.2,0.4
						C166,40.1,165.9,40.2,165.6,40.2z"/>
				</g>
				<g>
					<path d="M120.1,56c0,0.3-0.1,0.6-0.2,0.9c-0.1,0.3-0.4,0.7-0.7,1c-0.3,0.3-0.7,0.6-1.2,0.8c-0.5,0.2-1,0.3-1.6,0.3
						c-0.5,0-0.9,0-1.3-0.1c-0.4-0.1-0.7-0.2-1.1-0.4c-0.3-0.2-0.6-0.4-0.9-0.7c-0.2-0.3-0.4-0.6-0.6-0.9c-0.2-0.3-0.3-0.7-0.4-1.1
						c-0.1-0.4-0.1-0.8-0.1-1.3c0-0.7,0.1-1.4,0.3-1.9c0.2-0.6,0.5-1.1,0.9-1.5c0.4-0.4,0.8-0.7,1.4-0.9c0.5-0.2,1.1-0.3,1.7-0.3
						c0.7,0,1.4,0.1,1.9,0.4s1,0.6,1.3,1.1c0.3,0.4,0.5,0.8,0.5,1.2c0,0.2-0.1,0.4-0.2,0.5c-0.1,0.2-0.3,0.2-0.5,0.2
						c-0.2,0-0.4-0.1-0.5-0.2c-0.1-0.1-0.2-0.3-0.4-0.6c-0.2-0.4-0.5-0.8-0.8-1c-0.3-0.2-0.7-0.3-1.2-0.3c-0.7,0-1.3,0.3-1.8,0.8
						c-0.4,0.6-0.7,1.4-0.7,2.4c0,0.7,0.1,1.3,0.3,1.7c0.2,0.5,0.5,0.8,0.8,1c0.4,0.2,0.8,0.3,1.3,0.3c0.5,0,1-0.1,1.3-0.4
						c0.4-0.3,0.6-0.6,0.8-1.1c0.1-0.2,0.2-0.4,0.3-0.6c0.1-0.1,0.3-0.2,0.5-0.2c0.2,0,0.4,0.1,0.6,0.2
						C120,55.5,120.1,55.7,120.1,56z"/>
					<path d="M122.9,50.8v2.6h3.9v-2.6c0-0.4,0.1-0.6,0.2-0.8c0.2-0.2,0.4-0.3,0.6-0.3c0.3,0,0.5,0.1,0.7,0.3
						c0.2,0.2,0.3,0.5,0.3,0.8v7c0,0.4-0.1,0.6-0.3,0.8c-0.2,0.2-0.4,0.3-0.7,0.3c-0.3,0-0.5-0.1-0.7-0.3c-0.2-0.2-0.2-0.5-0.2-0.8
						v-3h-3.9v3c0,0.4-0.1,0.6-0.3,0.8c-0.2,0.2-0.4,0.3-0.7,0.3c-0.3,0-0.5-0.1-0.7-0.3c-0.2-0.2-0.2-0.5-0.2-0.8v-7
						c0-0.4,0.1-0.6,0.2-0.8c0.2-0.2,0.4-0.3,0.7-0.3c0.3,0,0.5,0.1,0.7,0.3C122.9,50.1,122.9,50.4,122.9,50.8z"/>
					<path d="M135.9,51.2h-4.1v2.2h3.8c0.3,0,0.5,0.1,0.6,0.2c0.1,0.1,0.2,0.3,0.2,0.5s-0.1,0.4-0.2,0.5c-0.1,0.1-0.3,0.2-0.6,0.2
						h-3.8v2.5h4.2c0.3,0,0.5,0.1,0.6,0.2c0.1,0.1,0.2,0.3,0.2,0.5c0,0.2-0.1,0.4-0.2,0.5c-0.1,0.1-0.4,0.2-0.6,0.2h-4.9
						c-0.4,0-0.7-0.1-0.9-0.3c-0.2-0.2-0.3-0.5-0.3-0.8v-6.7c0-0.3,0-0.5,0.1-0.6c0.1-0.2,0.2-0.3,0.4-0.4c0.2-0.1,0.4-0.1,0.6-0.1
						h4.8c0.3,0,0.5,0.1,0.6,0.2c0.1,0.1,0.2,0.3,0.2,0.5c0,0.2-0.1,0.4-0.2,0.5C136.4,51.2,136.2,51.2,135.9,51.2z"/>
					<path d="M145.3,56c0,0.3-0.1,0.6-0.2,0.9c-0.1,0.3-0.4,0.7-0.7,1c-0.3,0.3-0.7,0.6-1.2,0.8c-0.5,0.2-1,0.3-1.6,0.3
						c-0.5,0-0.9,0-1.3-0.1c-0.4-0.1-0.7-0.2-1.1-0.4c-0.3-0.2-0.6-0.4-0.9-0.7c-0.2-0.3-0.4-0.6-0.6-0.9c-0.2-0.3-0.3-0.7-0.4-1.1
						c-0.1-0.4-0.1-0.8-0.1-1.3c0-0.7,0.1-1.4,0.3-1.9c0.2-0.6,0.5-1.1,0.9-1.5c0.4-0.4,0.8-0.7,1.4-0.9s1.1-0.3,1.7-0.3
						c0.7,0,1.4,0.1,1.9,0.4c0.6,0.3,1,0.6,1.3,1.1c0.3,0.4,0.5,0.8,0.5,1.2c0,0.2-0.1,0.4-0.2,0.5s-0.3,0.2-0.5,0.2
						c-0.2,0-0.4-0.1-0.5-0.2c-0.1-0.1-0.2-0.3-0.4-0.6c-0.2-0.4-0.5-0.8-0.8-1c-0.3-0.2-0.7-0.3-1.2-0.3c-0.7,0-1.3,0.3-1.8,0.8
						c-0.4,0.6-0.7,1.4-0.7,2.4c0,0.7,0.1,1.3,0.3,1.7c0.2,0.5,0.5,0.8,0.8,1s0.8,0.3,1.3,0.3c0.5,0,1-0.1,1.3-0.4
						c0.4-0.3,0.6-0.6,0.8-1.1c0.1-0.2,0.2-0.4,0.3-0.6c0.1-0.1,0.3-0.2,0.5-0.2c0.2,0,0.4,0.1,0.6,0.2
						C145.2,55.5,145.3,55.7,145.3,56z"/>
					<path d="M148.1,50.8v3.1l3.6-3.7c0.2-0.2,0.3-0.3,0.4-0.4c0.1-0.1,0.3-0.1,0.5-0.1c0.3,0,0.5,0.1,0.6,0.2
						c0.2,0.2,0.2,0.3,0.2,0.6c0,0.3-0.1,0.5-0.4,0.8l-2.2,2.1l2.5,3.6c0.2,0.3,0.3,0.5,0.4,0.7c0.1,0.2,0.1,0.4,0.1,0.6
						c0,0.2-0.1,0.4-0.2,0.5c-0.2,0.1-0.4,0.2-0.6,0.2c-0.3,0-0.5-0.1-0.6-0.2c-0.2-0.1-0.3-0.3-0.4-0.4c-0.1-0.2-0.2-0.3-0.3-0.5
						l-2.1-3.3l-1.5,1.4v1.8c0,0.4-0.1,0.7-0.3,0.8c-0.2,0.2-0.4,0.3-0.7,0.3c-0.2,0-0.3,0-0.4-0.1c-0.1-0.1-0.3-0.2-0.3-0.3
						c-0.1-0.1-0.1-0.2-0.1-0.4c0-0.2,0-0.4,0-0.7v-6.6c0-0.4,0.1-0.6,0.2-0.8c0.2-0.2,0.4-0.3,0.7-0.3c0.3,0,0.5,0.1,0.7,0.3
						C148,50.1,148.1,50.4,148.1,50.8z"/>
					<path d="M158.4,49.7c0.9,0,1.7,0.2,2.4,0.6c0.7,0.4,1.2,0.9,1.5,1.6c0.3,0.7,0.5,1.5,0.5,2.4c0,0.7-0.1,1.3-0.3,1.9
						c-0.2,0.6-0.5,1.1-0.8,1.5s-0.8,0.7-1.4,1c-0.5,0.2-1.2,0.3-1.9,0.3c-0.7,0-1.3-0.1-1.9-0.3c-0.6-0.2-1-0.5-1.4-1
						c-0.4-0.4-0.6-0.9-0.8-1.5S154,55,154,54.3c0-0.7,0.1-1.3,0.3-1.9c0.2-0.6,0.5-1.1,0.9-1.5c0.4-0.4,0.8-0.7,1.4-0.9
						C157.1,49.8,157.7,49.7,158.4,49.7z M160.9,54.3c0-0.7-0.1-1.2-0.3-1.7c-0.2-0.5-0.5-0.8-0.9-1.1c-0.4-0.2-0.8-0.4-1.3-0.4
						c-0.4,0-0.7,0.1-1,0.2c-0.3,0.1-0.6,0.3-0.8,0.6s-0.4,0.6-0.5,1c-0.1,0.4-0.2,0.9-0.2,1.4c0,0.5,0.1,1,0.2,1.4
						c0.1,0.4,0.3,0.8,0.5,1c0.2,0.3,0.5,0.5,0.8,0.6c0.3,0.1,0.6,0.2,1,0.2c0.5,0,0.9-0.1,1.3-0.3c0.4-0.2,0.7-0.6,0.9-1.1
						C160.8,55.6,160.9,55,160.9,54.3z"/>
					<path d="M163.7,55.1v-4.3c0-0.4,0.1-0.6,0.2-0.8c0.2-0.2,0.4-0.3,0.6-0.3c0.3,0,0.5,0.1,0.7,0.3c0.2,0.2,0.2,0.5,0.2,0.8v4.4
						c0,0.5,0.1,0.9,0.2,1.3c0.1,0.3,0.3,0.6,0.6,0.8c0.3,0.2,0.7,0.3,1.2,0.3c0.7,0,1.2-0.2,1.5-0.6c0.3-0.4,0.4-0.9,0.4-1.7v-4.4
						c0-0.4,0.1-0.6,0.2-0.8c0.2-0.2,0.4-0.3,0.7-0.3s0.5,0.1,0.7,0.3c0.2,0.2,0.3,0.5,0.3,0.8v4.3c0,0.7-0.1,1.3-0.2,1.7
						c-0.1,0.5-0.4,0.9-0.8,1.2c-0.3,0.3-0.7,0.5-1.1,0.7c-0.4,0.1-0.9,0.2-1.5,0.2c-0.7,0-1.3-0.1-1.8-0.2
						c-0.5-0.1-0.9-0.4-1.2-0.7c-0.3-0.3-0.5-0.7-0.7-1.2C163.8,56.3,163.7,55.8,163.7,55.1z"/>
					<path d="M178.4,51.3h-2v6.5c0,0.4-0.1,0.7-0.2,0.8c-0.2,0.2-0.4,0.3-0.6,0.3c-0.3,0-0.5-0.1-0.7-0.3c-0.2-0.2-0.3-0.5-0.3-0.8
						v-6.5h-2c-0.3,0-0.5-0.1-0.7-0.2c-0.2-0.1-0.2-0.3-0.2-0.5c0-0.2,0.1-0.4,0.2-0.5c0.2-0.1,0.4-0.2,0.7-0.2h5.8
						c0.3,0,0.5,0.1,0.7,0.2c0.2,0.1,0.2,0.3,0.2,0.5s-0.1,0.4-0.2,0.5C178.9,51.3,178.7,51.3,178.4,51.3z"/>
				</g>
			</g>
		</g>
		<g>
		</g>
		<g>
			<g>
				<path class="st5" d="M290.2,66.6h-86.6c-0.8,0-1.5-0.7-1.5-1.5V1.5c0-0.8,0.7-1.5,1.5-1.5h86.6c0.8,0,1.5,0.7,1.5,1.5v63.6
					C291.7,66,291,66.6,290.2,66.6z"/>
			</g>
			<g>
				<path class="st6" d="M281.3,45.6h-9.2c0.2,2.2,1.8,2.9,3.7,2.9c1.9,0,3.4-0.4,4.6-1v3.8c-1.3,0.7-3,1.2-5.2,1.2
					c-4.6,0-7.8-2.9-7.8-8.6c0-4.8,2.7-8.6,7.2-8.6c4.5,0,6.8,3.8,6.8,8.7C281.4,44.3,281.3,45.3,281.3,45.6L281.3,45.6z M274.5,39
					c-1.2,0-2.5,0.9-2.5,3h4.9C276.9,39.9,275.7,39,274.5,39z M259.8,52.4c-1.7,0-2.7-0.7-3.3-1.2l0,5.3l-4.7,1l0-22h4.2l0.2,1.2
					c0.7-0.6,1.8-1.5,3.7-1.5c3.3,0,6.4,3,6.4,8.5C266.3,49.7,263.2,52.4,259.8,52.4L259.8,52.4z M258.7,39.4
					c-1.1,0-1.8,0.4-2.3,0.9l0,7c0.5,0.5,1.1,0.9,2.2,0.9c1.7,0,2.9-1.9,2.9-4.4C261.6,41.3,260.5,39.4,258.7,39.4L258.7,39.4z
					 M245.1,35.5h4.7v16.6h-4.7V35.5z M245.1,30.2l4.7-1v3.8l-4.7,1V30.2z M240.2,40.8v11.2h-4.7V35.5h4.1l0.3,1.4
					c1.1-2,3.3-1.6,3.9-1.4v4.3C243.2,39.7,241.3,39.4,240.2,40.8L240.2,40.8z M230.2,46.3c0,2.8,3,1.9,3.6,1.7v3.8
					c-0.6,0.3-1.8,0.6-3.3,0.6c-2.8,0-4.9-2.1-4.9-4.9l0-15.2l4.6-1l0,4.1h3.6v4h-3.6L230.2,46.3z M224.5,47.1
					c0,3.4-2.7,5.3-6.6,5.3c-1.6,0-3.4-0.3-5.2-1.1v-4.5c1.6,0.9,3.6,1.5,5.2,1.5c1.1,0,1.8-0.3,1.8-1.2c0-2.3-7.2-1.4-7.2-6.6
					c0-3.3,2.6-5.3,6.4-5.3c1.6,0,3.1,0.2,4.7,0.9v4.4c-1.4-0.8-3.3-1.2-4.7-1.2c-1,0-1.6,0.3-1.6,1
					C217.3,42.4,224.5,41.4,224.5,47.1L224.5,47.1z"/>
				<g>
					<polygon class="st6" points="278.1,23.6 276.5,23.6 277.8,20.5 275.2,14 277,14 278.6,18.4 280.2,14 281.9,14 					"/>
					<path class="st6" d="M271.8,13.9c-0.6,0-1.2,0.2-1.7,0.6v-3.4h-1.7v9.6h1.7v-0.5c0.5,0.4,1.1,0.6,1.7,0.6c1.8,0,3-1.4,3-3.5
						C274.8,15.3,273.6,13.9,271.8,13.9z M271.4,19.4c-0.5,0-0.9-0.2-1.3-0.6v-2.9c0.4-0.4,0.9-0.6,1.3-0.6c1,0,1.6,0.8,1.6,2
						C273,18.6,272.4,19.4,271.4,19.4z"/>
					<path class="st1" d="M255.8,17.2c0-2-1.2-3.3-2.9-3.3c-1.9,0-3.3,1.4-3.3,3.4c0,2.1,1.4,3.6,3.4,3.6c0.7,0,1.5-0.2,2.3-0.5
						v-1.4c-0.7,0.4-1.4,0.6-2,0.6c-1.1,0-1.9-0.7-2-1.7h4.5C255.8,17.6,255.8,17.4,255.8,17.2z M251.3,16.7
						c0.1-0.9,0.7-1.5,1.6-1.5c0.8,0,1.3,0.6,1.4,1.5H251.3z"/>
					<path class="st6" d="M246.8,16.2v4.5H245V14h1.7v0.7c0.5-0.5,1.1-0.8,1.6-0.8c0.2,0,0.4,0,0.6,0.1v1.5
						c-0.2-0.1-0.4-0.1-0.6-0.1C247.8,15.4,247.2,15.7,246.8,16.2z"/>
					<path class="st6" d="M243.7,17.2c0-2-1.2-3.3-2.9-3.3c-1.9,0-3.3,1.4-3.3,3.4c0,2.1,1.4,3.6,3.4,3.6c0.7,0,1.5-0.2,2.3-0.5
						v-1.4c-0.7,0.4-1.4,0.6-2,0.6c-1.1,0-1.9-0.7-2-1.7h4.5C243.7,17.6,243.7,17.4,243.7,17.2z M239.1,16.7
						c0.1-0.9,0.7-1.5,1.6-1.5c0.8,0,1.3,0.6,1.4,1.5H239.1z"/>
					<polygon class="st6" points="233.1,20.7 231.8,16.2 230.4,20.7 228.9,20.7 226.6,14 228.3,14 229.7,18.6 231,14 232.6,14 
						233.9,18.6 235.3,14 237,14 234.7,20.7 					"/>
					<path class="st6" d="M222.7,13.9c-2,0-3.4,1.4-3.4,3.5c0,2,1.4,3.5,3.4,3.5c2,0,3.4-1.5,3.4-3.5
						C226.1,15.3,224.7,13.9,222.7,13.9z M222.7,19.4c-1,0-1.7-0.8-1.7-2.1c0-1.2,0.7-2.1,1.7-2.1c1,0,1.7,0.8,1.7,2.1
						C224.4,18.6,223.7,19.4,222.7,19.4z"/>
					<path class="st6" d="M215.2,11.5h-3.2v9.2h1.7v-3.3h1.5c1.9,0,3.2-1.2,3.2-2.9C218.4,12.7,217,11.5,215.2,11.5z M214.9,16h-1.3
						v-3.1h1.3c1,0,1.7,0.6,1.7,1.6C216.6,15.4,215.9,16,214.9,16z"/>
					<path class="st6" d="M261.4,11.1v3.4c-0.5-0.4-1.1-0.6-1.7-0.6c-1.8,0-3,1.4-3,3.5c0,2.1,1.2,3.5,3,3.5c0.6,0,1.2-0.2,1.7-0.6
						l0,0.5h1.7v-9.6H261.4z M261.4,18.8c-0.4,0.4-0.9,0.6-1.3,0.6c-1,0-1.6-0.8-1.6-2c0-1.2,0.7-2,1.6-2c0.5,0,0.9,0.2,1.3,0.6
						V18.8z"/>
				</g>
			</g>
		</g>
	</g>
</g>
</svg>
