<svg id="Layer_1" data-name="Layer 1" xmlns="http://www.w3.org/2000/svg" viewBox="0 0 257 84">
  <defs>
    <style>
      .cls-1 {
        fill: #5856e9;
      }

      .cls-2 {
        fill: #ffba02;
      }
    </style>
  </defs>
  <g>
    <g>
      <g>
        <path class="cls-1" d="M70.60461,6.82963c-7.369,12.15411-14.73806,24.11682-22.10708,36.27094a27.285,27.285,0,0,1-2.00974-3.541c-.86131-2.39255-2.48824-3.15816-5.07218-3.06246-5.74211.1914-11.57991.0957-17.322.0957a1.55437,1.55437,0,0,1-1.53123-.86132c-2.10543-3.541-4.30657-6.98622-6.69911-10.81428h28.4234A1.79983,1.79983,0,0,0,46.105,23.86453c.957-1.72263,2.00973-3.34956,3.06245-5.07219-.47851,0-.86131-.0957-1.14842-.0957H13.27932a1.86867,1.86867,0,0,1-1.914-1.05272c-2.00973-3.34956-4.11517-6.69912-6.22061-9.953a8.4176,8.4176,0,0,1-.57421-.957C26.58184,6.82963,48.49752,6.82963,70.60461,6.82963Z"/>
        <path class="cls-2" d="M92.42459,6.73393c-14.738,23.63831-29.28471,47.08522-43.92707,70.62784C41.3199,65.78186,34.14227,54.29766,26.96465,42.81346c.3828,0,.57421-.0957.86131-.0957H40.84139a1.52731,1.52731,0,0,1,1.33982.76562c2.10544,3.73236,4.11518,7.369,6.31631,11.19709a3.58284,3.58284,0,0,0,.57421-.957Q63.427,30.75505,77.68653,7.691a1.93307,1.93307,0,0,1,1.914-1.05272h11.5799A4.31852,4.31852,0,0,0,92.42459,6.73393Z"/>
      </g>
      <g>
        <g>
          <path class="cls-1" d="M101.99476,40.13381V12.38033h9.47446a16.67538,16.67538,0,0,1,8.03894,1.72263,11.00411,11.00411,0,0,1,4.68938,4.88078,15.95355,15.95355,0,0,1,1.53123,7.27333,15.68218,15.68218,0,0,1-1.53123,7.27333,11.00417,11.00417,0,0,1-4.68938,4.88078,16.67542,16.67542,0,0,1-8.03895,1.72263Zm5.07219-4.30657h4.21087a11.40867,11.40867,0,0,0,5.5507-1.14842,6.36074,6.36074,0,0,0,2.871-3.25386,13.90816,13.90816,0,0,0,.86132-5.16789,13.04918,13.04918,0,0,0-.86132-5.07219,6.36072,6.36072,0,0,0-2.871-3.25385,11.157,11.157,0,0,0-5.5507-1.14842H107.067Z"/>
          <path class="cls-1" d="M130.13106,40.13381V12.38033h18.08761V16.4955H135.20323v7.65613h11.867V28.0754h-11.867v8.03894h13.01544v4.01947Z"/>
          <path class="cls-1" d="M162.57392,40.61232a13.37771,13.37771,0,0,1-5.3593-1.05271,9.54108,9.54108,0,0,1-3.73236-2.96676,9.40751,9.40751,0,0,1-1.43553-4.78508h5.3593a4.47956,4.47956,0,0,0,1.43553,3.25386,4.99189,4.99189,0,0,0,3.63666,1.33982,5.05971,5.05971,0,0,0,3.25385-.957,3.27687,3.27687,0,0,0,1.14842-2.584,3.60119,3.60119,0,0,0-1.05272-2.67964,7.00107,7.00107,0,0,0-2.77535-1.53123c-1.14841-.38281-2.39254-.86132-3.73235-1.24412a13.17535,13.17535,0,0,1-4.8808-2.87105,6.20849,6.20849,0,0,1-1.72263-4.59368,7.49309,7.49309,0,0,1,1.14842-4.21088,8.06424,8.06424,0,0,1,3.34956-2.77535,12.92462,12.92462,0,0,1,9.76158,0,8.71681,8.71681,0,0,1,3.34956,2.77535,7.53929,7.53929,0,0,1,1.24412,4.21088h-5.455a3.57016,3.57016,0,0,0-1.14842-2.584A4.041,4.041,0,0,0,161.904,16.2084a4.36665,4.36665,0,0,0-2.77534.86132,2.96052,2.96052,0,0,0-1.14842,2.48824,2.88309,2.88309,0,0,0,.86131,2.20114,6.28094,6.28094,0,0,0,2.39254,1.33982q1.5791.57421,3.44527,1.14842a33.66046,33.66046,0,0,1,3.73236,1.62693,8.66834,8.66834,0,0,1,2.77534,2.48824,6.63438,6.63438,0,0,1,1.05273,4.01947,7.533,7.533,0,0,1-1.14842,4.01947,8.17334,8.17334,0,0,1-3.25385,2.96675A9.7506,9.7506,0,0,1,162.57392,40.61232Z"/>
          <path class="cls-1" d="M176.73777,40.13381V12.38033H181.81V40.13381Z"/>
          <path class="cls-1" d="M199.41906,40.61232a12.41475,12.41475,0,0,1-11.4842-6.79482,16.5092,16.5092,0,0,1-1.62693-7.46473,16.01473,16.01473,0,0,1,1.72264-7.56043,11.69043,11.69043,0,0,1,4.78508-5.07219,15.0026,15.0026,0,0,1,7.369-1.81833,13.82812,13.82812,0,0,1,8.13464,2.29684,10.99281,10.99281,0,0,1,4.21087,6.50772h-5.6464a5.2835,5.2835,0,0,0-2.29683-3.06246,7.58069,7.58069,0,0,0-4.30658-1.05272,7.85064,7.85064,0,0,0-6.412,2.67965,10.69243,10.69243,0,0,0-2.29683,7.27333c0,3.06245.76562,5.455,2.20114,7.08192a7.67735,7.67735,0,0,0,6.1249,2.48824c2.48825,0,4.40229-.66991,5.6464-2.00973a9.50043,9.50043,0,0,0,2.29683-5.35929h-6.98623V24.91725h12.15411V40.22951h-4.68937l-.3828-3.63666a9.33534,9.33534,0,0,1-3.34956,3.06246A13.8274,13.8274,0,0,1,199.41906,40.61232Z"/>
          <path class="cls-1" d="M217.88949,40.13381V12.38033h5.07219l13.01543,19.52314V12.38033h5.07219V40.13381h-5.07219L222.96168,20.61067V40.13381Z"/>
        </g>
        <g>
          <path class="cls-2" d="M111.08641,71.81107l-9.09165-24.97814h4.88078l7.08192,20.28875,7.08193-20.28875h4.78509l-9.09166,24.97814Z"/>
          <path class="cls-2" d="M128.79122,71.81107V46.73723h4.59369V71.71537h-4.59369Z"/>
          <path class="cls-2" d="M138.17,71.81107V46.73723h4.59368V56.88161l9.28306-10.14438h5.6464l-9.18737,9.953,9.47446,15.02516h-5.64639l-7.17762-11.48421-2.39254,2.58395v8.996Z"/>
          <path class="cls-2" d="M161.04268,71.81107V46.73723h4.59369V71.71537h-4.59369Z"/>
          <path class="cls-2" d="M170.51716,71.81107V46.73723h4.59368l11.77131,17.60911V46.73723h4.59368V71.71537h-4.59368L175.01513,54.202V71.71537h-4.498Z"/>
          <path class="cls-2" d="M207.1709,72.19387a12.047,12.047,0,0,1-6.22061-1.62692,11.02055,11.02055,0,0,1-4.11517-4.498,14.706,14.706,0,0,1-1.43553-6.69911,13.96431,13.96431,0,0,1,1.53124-6.79482,11.11758,11.11758,0,0,1,4.30657-4.59368,13.34993,13.34993,0,0,1,6.69912-1.62693,11.7064,11.7064,0,0,1,7.27333,2.10544,9.75175,9.75175,0,0,1,3.73236,5.8378H213.87a5.0698,5.0698,0,0,0-2.10544-2.77535,6.68905,6.68905,0,0,0-3.82806-.957,6.985,6.985,0,0,0-5.7421,2.39254,9.80091,9.80091,0,0,0-2.00974,6.50772,9.36228,9.36228,0,0,0,2.00974,6.412,7.91243,7.91243,0,0,0,10.62287.47851,8.79189,8.79189,0,0,0,2.10544-4.88078h-6.31632V58.03h10.91v13.781h-4.21087l-.3828-3.25386a8.55045,8.55045,0,0,1-3.06245,2.77535A11.72007,11.72007,0,0,1,207.1709,72.19387Z"/>
          <path class="cls-2" d="M232.34043,72.19387a11.40149,11.40149,0,0,1-4.88079-.957,8.5065,8.5065,0,0,1-3.34956-2.67965,7.62948,7.62948,0,0,1-1.24413-4.30658H227.651a4.37515,4.37515,0,0,0,1.24412,2.96675A4.50225,4.50225,0,0,0,232.149,68.3658a4.28635,4.28635,0,0,0,2.871-.86132,3.23707,3.23707,0,0,0,.09571-4.68938,7.74132,7.74132,0,0,0-2.48825-1.43553c-1.05272-.3828-2.20114-.76561-3.34956-1.14842a11.4087,11.4087,0,0,1-4.40228-2.58394,5.56623,5.56623,0,0,1-1.53123-4.21088,6.40861,6.40861,0,0,1,1.05272-3.82806A7.5391,7.5391,0,0,1,227.36393,47.12a10.32085,10.32085,0,0,1,4.40228-.86131,10.6283,10.6283,0,0,1,4.40229.86131,6.92746,6.92746,0,0,1,2.96675,2.48825,6.26575,6.26575,0,0,1,1.14842,3.82806h-4.88079a3.21589,3.21589,0,0,0-1.05272-2.29684,4.29309,4.29309,0,0,0-5.2636-.2871,2.59533,2.59533,0,0,0-1.05272,2.20113,2.74151,2.74151,0,0,0,.76562,2.00974,7.19274,7.19274,0,0,0,2.10543,1.24412c.86131.2871,1.914.66991,3.06245,1.05272a15.442,15.442,0,0,1,3.34956,1.53122,7.16752,7.16752,0,0,1,2.48825,2.29684,6.80864,6.80864,0,0,1,.957,3.63667,6.89767,6.89767,0,0,1-.957,3.63666,6.76879,6.76879,0,0,1-2.96676,2.67965A8.44152,8.44152,0,0,1,232.34043,72.19387Z"/>
        </g>
      </g>
    </g>
    <g>
      <path d="M243.87751,7.52432h-1.51884V6.63823h4.1148v.88609H244.96v4.11391h-1.08244Z"/>
      <path d="M251.38666,9.76272c0-.85332.01418-1.80968.03544-2.37481h-.03425c-.235,1.02014-.73521,2.68572-1.21472,4.25032h-.92063c-.36436-1.368-.88166-3.26532-1.10075-4.2639h-.03366c.04252.58669.06378,1.61539.06378,2.47313v1.79077h-.98559v-5h1.60919c.38974,1.30625.82674,2.94526.97673,3.69051h.00827c.12224-.65726.67143-2.40936,1.08893-3.69051h1.55014v5h-1.04288Z"/>
    </g>
  </g>
</svg>
