<svg xmlns="http://www.w3.org/2000/svg" width="560.012" height="559.51" viewBox="0 0 560.012 559.51">
  <path id="phone-icon" d="M137.36,15.555,102.516,50.09a108.884,108.884,0,0,0-30.18,100.33,575.589,575.589,0,0,0,145.29,261.8,574.4,574.4,0,0,0,261.49,145.45A114.046,114.046,0,0,0,501.827,560a109.686,109.686,0,0,0,77.781-32.512l34.844-34.844a53.824,53.824,0,0,0,0-75.6L547.4,350a53.354,53.354,0,0,0-75.442,0l-33.91,33.91h0a293.746,293.746,0,0,1-118.07-74.043,295.6,295.6,0,0,1-74.043-118.22l33.91-33.91a53.672,53.672,0,0,0,0-75.6L212.8,15.558a54.759,54.759,0,0,0-75.446,0Zm120.4,88.668a22.088,22.088,0,0,1,0,31.11l-40.133,40.6a15.559,15.559,0,0,0-4.2,14A303.507,303.507,0,0,0,297.9,331.8a306.612,306.612,0,0,0,141.86,84.777,15.55,15.55,0,0,0,14-4.355l40.133-40.133h0a22.4,22.4,0,0,1,31.11,0l66.891,66.891v0a22.406,22.406,0,0,1,0,31.114L557.516,505.56a78.724,78.724,0,0,1-71.867,21.625,541.476,541.476,0,0,1-246.09-136.89,541.558,541.558,0,0,1-136.73-246.25,78.714,78.714,0,0,1,21.625-72.02L159.3,37.181a22.391,22.391,0,0,1,31.11,0Z" transform="translate(-69.948 -0.492)"/>
</svg>
