<svg xmlns="http://www.w3.org/2000/svg" xmlns:xlink="http://www.w3.org/1999/xlink" width="452.373" height="373.166" viewBox="0 0 452.373 373.166">
  <defs>
    <clipPath id="clip-path">
      <path id="Path_246" data-name="Path 246" d="M337.024,110.53c1.5,9.475,13.483,15.429,22.958,13.933s18.978-9.2,17.482-18.675S363.581,85.744,354.1,87.24,335.528,101.054,337.024,110.53Z" transform="translate(-336.862 -87.098)" fill="none"/>
    </clipPath>
    <clipPath id="clip-path-2">
      <path id="Path_292" data-name="Path 292" d="M81.477,195.613c.43,9.583-10.122,17.816-19.705,18.246s-20.436-5.215-20.866-14.8S50.5,176.643,60.08,176.213,81.047,186.03,81.477,195.613Z" transform="translate(-40.893 -176.2)" fill="none"/>
    </clipPath>
  </defs>
  <g id="vector4" transform="translate(-24.572 -71.074)">
    <g id="Group_523" data-name="Group 523" transform="translate(27.207 72.273)" opacity="0.23" style="mix-blend-mode: multiply;isolation: isolate">
      <g id="Group_522" data-name="Group 522" transform="translate(45.886)">
        <path id="Path_224" data-name="Path 224" d="M419.883,346.364l-149.931-7.8L233.7,322.788l-2.643,50.83h0a37.024,37.024,0,0,0,35.051,38.9l149.931,7.8a37.025,37.025,0,0,0,38.9-35.052h0A37.022,37.022,0,0,0,419.883,346.364Z" transform="translate(-53.51 -48.396)" fill="#1400bd" opacity="0.57" style="mix-blend-mode: multiply;isolation: isolate"/>
        <path id="Path_225" data-name="Path 225" d="M372.109,80.681l-149.9-8.452a37.025,37.025,0,0,0-39.049,34.881h0L180.3,157.928l37.746-11.769,149.9,8.452a37.023,37.023,0,0,0,39.049-34.88h0A37.025,37.025,0,0,0,372.109,80.681Z" transform="translate(-58.32 -72.169)" fill="#1400bd" opacity="0.57" style="mix-blend-mode: multiply;isolation: isolate"/>
        <path id="Path_226" data-name="Path 226" d="M250.042,250.908,101.156,270.215A37.024,37.024,0,0,0,69.2,311.692h0a37.025,37.025,0,0,0,41.478,31.956l148.887-19.307,38.5,9-6.545-50.476h0A37.024,37.024,0,0,0,250.042,250.908Z" transform="translate(-68.888 -55.244)" fill="#1400bd" opacity="0.57" style="mix-blend-mode: multiply;isolation: isolate"/>
      </g>
      <path id="Path_227" data-name="Path 227" d="M211.418,163.972,61.6,173.713a37.024,37.024,0,0,0-34.544,39.348h0A37.025,37.025,0,0,0,66.406,247.6l149.817-9.741a37.024,37.024,0,0,0,34.543-39.348h0l-3.3-50.792Z" transform="translate(-26.978 -65.002)" fill="#1400bd" opacity="0.57" style="mix-blend-mode: multiply;isolation: isolate"/>
    </g>
    <g id="Group_527" data-name="Group 527" transform="translate(252.764 346.79)">
      <path id="Path_228" data-name="Path 228" d="M270.017,410.825H420.149A37.024,37.024,0,0,0,457.174,373.8h0a37.024,37.024,0,0,0-37.025-37.024H270.017L232.993,322.9v50.9h0A37.024,37.024,0,0,0,270.017,410.825Z" transform="translate(-232.993 -322.902)" fill="#fff" opacity="0.32"/>
      <path id="Path_229" data-name="Path 229" d="M269.3,339.1H419.919a34.365,34.365,0,1,1,0,68.731H269.786a34.4,34.4,0,0,1-34.365-34.365V326.4Z" transform="translate(-232.763 -322.57)" fill="#fff"/>
      <g id="Group_525" data-name="Group 525" transform="translate(160.816 30.358)">
        <path id="Path_230" data-name="Path 230" d="M400.056,350.63c-9.593,0-20.18,12.372-20.18,21.964,0,10.979,12.49,16.183,21.907,15.559a22.04,22.04,0,0,0,15.024-7.729,14.8,14.8,0,0,0,3.754-9.453C420.561,361.378,409.65,350.63,400.056,350.63Zm-5.666,36.756.016-.081a3.376,3.376,0,0,0,.266.212Z" transform="translate(-379.876 -350.63)" fill="#e4dfea"/>
        <path id="Path_231" data-name="Path 231" d="M390.83,368.865l.014.027v-.027Z" transform="translate(-378.837 -348.9)" fill="#ffb27a"/>
        <g id="Group_524" data-name="Group 524" transform="translate(9.984 9.09)">
          <path id="Path_232" data-name="Path 232" d="M390.844,370.094v-.027h-.014Z" transform="translate(-388.821 -357.877)" fill="none"/>
          <path id="Path_233" data-name="Path 233" d="M395.256,381.944c-.518.612-1.066,2.748-1.5,4.843a25.829,25.829,0,0,0,7.165.579A20.634,20.634,0,0,0,407,385.984c-.678-2.174-1.49-4.255-2.24-4.74a5.854,5.854,0,0,0-2.546-.574v-.878c2.829-.508,4.965-2.006,5.551-5.282.067-.368.1-.74.136-1.112a1.412,1.412,0,0,0,1.763-.925,1.77,1.77,0,0,0-.337-1.492,1.115,1.115,0,0,0-.658-.453.809.809,0,0,0-.258.01c.076-3.49,1.03-8.132-2.421-10.341a9.713,9.713,0,0,0-5.457-1.26,18.566,18.566,0,0,0-7.467,1.74,7.7,7.7,0,0,0-3.051,2.27c-1.834,2.509.341,4.921.37,7.557v.043a.759.759,0,0,0-.346-.018,1.109,1.109,0,0,0-.657.453,1.767,1.767,0,0,0-.337,1.492,1.359,1.359,0,0,0,1.862.85,10.751,10.751,0,0,0,1.336,4.189c1.216,2.044,3.8,2.4,6.17,2.474v.859A5.938,5.938,0,0,0,395.256,381.944Zm-4.238-10.793-.014-.028h.014Z" transform="translate(-388.995 -358.933)" fill="#c4bece"/>
        </g>
      </g>
      <path id="Path_234" data-name="Path 234" d="M268.687,366.163h0a3.366,3.366,0,0,0,3.2,3.259l93.358,4.424a3.365,3.365,0,0,0,3.523-3.465l-.12-3.916a3.365,3.365,0,0,0-3.345-3.262l-93.238-.509A3.366,3.366,0,0,0,268.687,366.163Z" transform="translate(-229.607 -319.127)" fill="#e4dfea"/>
      <path id="Path_235" data-name="Path 235" d="M264.427,378.606l.022.743a3.51,3.51,0,0,0,3.472,3.4l76.4.769a3.509,3.509,0,0,0,3.542-3.616h0a3.506,3.506,0,0,0-3.437-3.4L268,374.992A3.507,3.507,0,0,0,264.427,378.606Z" transform="translate(-230.011 -317.961)" fill="#e4dfea"/>
      <g id="Group_526" data-name="Group 526" transform="translate(36.659 22.364)">
        <path id="Path_236" data-name="Path 236" d="M276.733,351.123l-2.04,2.112.71,3.5-3.822-1.1-4.909,1.594,1.658-3.81-1.855-2.639,2.958-1.137,1.846-4.043,2.086,3.925Z" transform="translate(-266.476 -343.112)" fill="#fd7500"/>
        <path id="Path_237" data-name="Path 237" d="M295.359,350.553l-2.04,2.112.71,3.5-3.822-1.1-4.909,1.594,1.658-3.81-1.855-2.639,2.958-1.137,1.846-4.043,2.086,3.925Z" transform="translate(-264.709 -343.166)" fill="#e4dfea"/>
        <path id="Path_238" data-name="Path 238" d="M316.4,350.553l-2.04,2.112.71,3.5-3.822-1.1-4.909,1.594,1.658-3.81-1.855-2.639,2.958-1.137,1.846-4.043,2.086,3.925Z" transform="translate(-262.713 -343.166)" fill="#e4dfea"/>
        <path id="Path_239" data-name="Path 239" d="M332.611,349.414l-2.04,2.112.71,3.5-3.822-1.1-4.909,1.594,1.658-3.81-1.855-2.639,2.958-1.137,1.846-4.043,2.086,3.925Z" transform="translate(-261.175 -343.274)" fill="#e4dfea"/>
        <path id="Path_240" data-name="Path 240" d="M351.236,348.844l-2.04,2.112.71,3.5-3.822-1.1-4.909,1.594,1.658-3.809-1.855-2.639,2.958-1.137,1.846-4.043,2.086,3.925Z" transform="translate(-259.408 -343.328)" fill="#e4dfea"/>
      </g>
    </g>
    <g id="Group_538" data-name="Group 538" transform="translate(196.244 71.074)">
      <g id="Group_528" data-name="Group 528">
        <path id="Path_241" data-name="Path 241" d="M218.394,71.074H368.526A37.025,37.025,0,0,1,405.551,108.1h0a37.024,37.024,0,0,1-37.025,37.024H218.394L181.37,159V108.1h0A37.025,37.025,0,0,1,218.394,71.074Z" transform="translate(-181.37 -71.074)" fill="#fff" opacity="0.32"/>
        <path id="Path_242" data-name="Path 242" d="M217.682,142.234H368.3a34.365,34.365,0,0,0,0-68.731H218.163A34.4,34.4,0,0,0,183.8,107.868v47.064Z" transform="translate(-181.14 -70.844)" fill="#fff"/>
      </g>
      <g id="Group_536" data-name="Group 536" transform="translate(170.242 17.544)">
        <g id="Group_529" data-name="Group 529">
          <path id="Path_243" data-name="Path 243" d="M337.024,110.53c1.5,9.475,13.483,15.429,22.958,13.933s18.978-9.2,17.482-18.675S363.581,85.744,354.1,87.24,335.528,101.054,337.024,110.53Z" transform="translate(-336.862 -87.098)" fill="#e4dfea"/>
        </g>
        <g id="Group_535" data-name="Group 535">
          <g id="Group_533" data-name="Group 533">
            <path id="Path_244" data-name="Path 244" d="M365.341,98.964a9.913,9.913,0,0,0-3.836-6.155,10.473,10.473,0,0,0-6.049-1.51,8.617,8.617,0,0,0-5.37,1.634,8.166,8.166,0,0,0-2.209,3.207c-2.075,4.948-1.293,10.589-.177,15.837a1.811,1.811,0,0,0,2.211,1.886l10.46-.369a6.7,6.7,0,0,0,4.079-1.047c1.687-1.378,1.629-3.875,1.424-5.832C365.606,104.069,365.912,101.5,365.341,98.964Z" transform="translate(-335.94 -86.699)" fill="#ff7132"/>
            <g id="Group_531" data-name="Group 531">
              <g id="Group_530" data-name="Group 530" clip-path="url(#clip-path)">
                <path id="Path_245" data-name="Path 245" d="M352.114,111.251a40.459,40.459,0,0,1,10.168.1c1.723.487,4.018,8.935,4.018,8.935l.117.74a11.221,11.221,0,0,1-9.622,5.767c-6.078.085-9.381-4.862-9.575-5.166C346.684,117.391,348.261,112.484,352.114,111.251Z" transform="translate(-335.889 -84.832)" fill="#1e1e20"/>
              </g>
            </g>
            <g id="Group_532" data-name="Group 532" transform="translate(11.426 6.024)">
              <path id="Path_247" data-name="Path 247" d="M357.805,109.587l.577,3.656a2.7,2.7,0,0,1-1.43,1.086,2.868,2.868,0,0,1-2.455-.473q-.389-2.572-.78-5.143Z" transform="translate(-346.689 -91.071)" fill="#ef9c62"/>
              <path id="Path_248" data-name="Path 248" d="M363.265,97.8c.214.55.725,9.081-3.337,12.861s-10.249-1.42-11.669-8.486S361.9,94.289,363.265,97.8Z" transform="translate(-347.216 -92.298)" fill="#ffb27a"/>
              <path id="Path_249" data-name="Path 249" d="M354.367,98.67c-1.343,1.232-2.936,2.175-4.216,3.473a5.659,5.659,0,0,0-1.875,4.9,9.191,9.191,0,0,1,6.51-13.216C358.485,93.15,355.616,97.525,354.367,98.67Z" transform="translate(-347.298 -92.49)" fill="#ff7132"/>
              <path id="Path_250" data-name="Path 250" d="M354.943,95.77a5.352,5.352,0,0,0,2.341,1.777c.905.406,1.861.7,2.735,1.175a7.765,7.765,0,0,1,3.986,6.4,12.637,12.637,0,0,0-1.662-8.8,8.675,8.675,0,0,0-5.006-3.59C355.153,92.176,353.423,93.487,354.943,95.77Z" transform="translate(-346.628 -92.6)" fill="#ff7132"/>
            </g>
            <path id="Path_251" data-name="Path 251" d="M356.19,114.011" transform="translate(-335.029 -84.545)" fill="#ef9c62"/>
          </g>
          <g id="Group_534" data-name="Group 534">
            <path id="Path_252" data-name="Path 252" d="M337.024,110.53c1.5,9.475,13.483,15.429,22.958,13.933s18.978-9.2,17.482-18.675S363.581,85.744,354.1,87.24,335.528,101.054,337.024,110.53Z" transform="translate(-336.862 -87.098)" fill="none"/>
          </g>
        </g>
      </g>
      <g id="Group_537" data-name="Group 537" transform="translate(53.715 14.65)">
        <path id="Path_253" data-name="Path 253" d="M240.674,90.135l-2.1,2.048.6,3.524-3.786-1.213-4.955,1.443L232.2,92.18l-1.774-2.695,2.991-1.046,1.969-3.985,1.965,3.987Z" transform="translate(-230.431 -84.454)" fill="#febd00"/>
        <path id="Path_254" data-name="Path 254" d="M259.309,90.135l-2.1,2.048.6,3.524-3.786-1.213-4.955,1.443,1.774-3.757-1.774-2.695,2.991-1.046,1.969-3.985,1.965,3.987Z" transform="translate(-228.664 -84.454)" fill="#febd00"/>
        <path id="Path_255" data-name="Path 255" d="M277.943,90.135l-2.1,2.048.6,3.524-3.786-1.213L267.7,95.937l1.774-3.757L267.7,89.485l2.991-1.046,1.969-3.985,1.965,3.987Z" transform="translate(-226.896 -84.454)" fill="#febd00"/>
        <path id="Path_256" data-name="Path 256" d="M296.577,90.135l-2.1,2.048.6,3.524-3.786-1.213-4.955,1.443,1.774-3.757-1.774-2.695,2.991-1.046,1.969-3.985,1.965,3.987Z" transform="translate(-225.128 -84.454)" fill="#febd00"/>
        <path id="Path_257" data-name="Path 257" d="M315.212,90.135l-2.1,2.048.6,3.524-3.786-1.213-4.955,1.443,1.774-3.757-1.774-2.695,2.991-1.046,1.969-3.985,1.965,3.987Z" transform="translate(-223.361 -84.454)" fill="#febd00"/>
      </g>
      <rect id="Rectangle_128" data-name="Rectangle 128" width="107.616" height="8.802" rx="4.02" transform="translate(43.071 33.375)" fill="#e4dfea"/>
      <path id="Path_258" data-name="Path 258" d="M287.414,122.991H221.73a3.878,3.878,0,0,1-3.878-3.878v-1.652a3.878,3.878,0,0,1,3.975-3.877l65.684,1.653a3.877,3.877,0,0,1,3.781,3.876h0A3.878,3.878,0,0,1,287.414,122.991Z" transform="translate(-177.909 -67.042)" fill="#e4dfea"/>
      <path id="Path_259" data-name="Path 259" d="M294.291,122.035h23.584a3.834,3.834,0,0,0,3.834-3.834v-.056a3.835,3.835,0,0,0-3.843-3.834l-23.584.056a3.835,3.835,0,0,0-3.825,3.834h0A3.834,3.834,0,0,0,294.291,122.035Z" transform="translate(-171.022 -66.973)" fill="#e4dfea"/>
    </g>
    <g id="Group_543" data-name="Group 543" transform="translate(77.322 262.84)">
      <g id="Group_542" data-name="Group 542">
        <path id="Path_260" data-name="Path 260" d="M259.908,246.225H109.776a37.024,37.024,0,0,0-37.024,37.024h0a37.024,37.024,0,0,0,37.024,37.024H259.908l37.024,13.874v-50.9h0A37.024,37.024,0,0,0,259.908,246.225Z" transform="translate(-72.752 -246.225)" fill="#fff" opacity="0.32"/>
        <path id="Path_261" data-name="Path 261" d="M260.16,317.384H109.545a34.365,34.365,0,1,1,0-68.731H259.678a34.4,34.4,0,0,1,34.365,34.365v47.064Z" transform="translate(-72.522 -245.995)" fill="#fff"/>
        <g id="Group_540" data-name="Group 540" transform="translate(21.775 16.606)">
          <path id="Path_262" data-name="Path 262" d="M112.82,261.392c-9.593,0-20.18,12.372-20.18,21.964,0,10.979,12.491,16.183,21.907,15.559a22.037,22.037,0,0,0,15.024-7.729,14.8,14.8,0,0,0,3.754-9.453C133.325,272.14,122.414,261.392,112.82,261.392Zm-5.666,36.756.016-.081c.09.069.169.151.266.212Z" transform="translate(-92.64 -261.392)" fill="#e4dfea"/>
          <path id="Path_263" data-name="Path 263" d="M103.594,279.627l.014.027v-.027Z" transform="translate(-91.601 -259.662)" fill="#ffb27a"/>
          <g id="Group_539" data-name="Group 539" transform="translate(9.985 9.09)">
            <path id="Path_264" data-name="Path 264" d="M103.608,280.855v-.026h-.014Z" transform="translate(-101.585 -268.639)" fill="none"/>
            <path id="Path_265" data-name="Path 265" d="M108.02,292.706c-.518.612-1.065,2.748-1.5,4.841a25.793,25.793,0,0,0,7.165.58,20.626,20.626,0,0,0,6.081-1.382c-.677-2.174-1.49-4.255-2.24-4.74a5.849,5.849,0,0,0-2.546-.574v-.879c2.829-.507,4.965-2.006,5.552-5.281.066-.368.1-.74.136-1.112a1.412,1.412,0,0,0,1.762-.925,1.77,1.77,0,0,0-.337-1.492,1.112,1.112,0,0,0-.657-.453.814.814,0,0,0-.259.01c.076-3.49,1.031-8.132-2.421-10.341a9.713,9.713,0,0,0-5.457-1.26,18.571,18.571,0,0,0-7.467,1.74,7.7,7.7,0,0,0-3.05,2.27c-1.835,2.509.339,4.921.369,7.557v.043a.76.76,0,0,0-.346-.018,1.109,1.109,0,0,0-.657.453,1.77,1.77,0,0,0-.337,1.492,1.36,1.36,0,0,0,1.863.85,10.731,10.731,0,0,0,1.335,4.189c1.216,2.044,3.8,2.4,6.171,2.474v.859A5.942,5.942,0,0,0,108.02,292.706Zm-4.238-10.794-.014-.027h.014Z" transform="translate(-101.759 -269.695)" fill="#c4bece"/>
          </g>
        </g>
        <path id="Path_266" data-name="Path 266" d="M159.906,281.66h0a3.365,3.365,0,0,0,3.2,3.258l93.358,4.424a3.365,3.365,0,0,0,3.523-3.464l-.119-3.916a3.366,3.366,0,0,0-3.346-3.263l-93.237-.508A3.366,3.366,0,0,0,159.906,281.66Z" transform="translate(-64.485 -243.193)" fill="#e4dfea"/>
        <path id="Path_267" data-name="Path 267" d="M155.646,294.1l.022.743a3.509,3.509,0,0,0,3.472,3.4l76.4.769a3.509,3.509,0,0,0,3.543-3.615h0a3.509,3.509,0,0,0-3.438-3.4l-76.42-1.512A3.509,3.509,0,0,0,155.646,294.1Z" transform="translate(-64.889 -242.026)" fill="#e4dfea"/>
        <g id="Group_541" data-name="Group 541" transform="translate(93 13.795)">
          <path id="Path_268" data-name="Path 268" d="M167.953,266.619l-2.04,2.112.71,3.5-3.822-1.1-4.909,1.594,1.658-3.81-1.855-2.639,2.958-1.137L162.5,261.1l2.086,3.925Z" transform="translate(-157.695 -258.608)" fill="#fd7500"/>
          <path id="Path_269" data-name="Path 269" d="M186.578,266.05l-2.04,2.112.71,3.5-3.822-1.1-4.909,1.594,1.658-3.81-1.855-2.639,2.958-1.137,1.846-4.043,2.086,3.925Z" transform="translate(-155.928 -258.662)" fill="#fd7500"/>
          <path id="Path_270" data-name="Path 270" d="M202.787,267.592l2.04-2.112-3.368-1.592-2.086-3.925-.454.995.822,9.059L203.5,271.1Z" transform="translate(-153.784 -258.716)" fill="#e4dfea"/>
          <path id="Path_271" data-name="Path 271" d="M223.83,264.91l-2.04,2.112.71,3.5-3.822-1.1-4.909,1.594,1.658-3.809-1.855-2.639,2.958-1.137,1.846-4.043,2.086,3.925Z" transform="translate(-152.394 -258.77)" fill="#e4dfea"/>
          <path id="Path_272" data-name="Path 272" d="M242.455,264.341l-2.04,2.112.71,3.5-3.822-1.1-4.909,1.594,1.658-3.81L232.2,264l2.958-1.137L237,258.824l2.086,3.925Z" transform="translate(-150.627 -258.824)" fill="#e4dfea"/>
        </g>
      </g>
      <path id="Path_273" data-name="Path 273" d="M197.9,263.921l-2.958,1.137L196.8,267.7l-1.658,3.81,4.909-1.594.066.019-.822-9.059Z" transform="translate(-61.161 -244.836)" fill="#fd7500"/>
    </g>
    <g id="Group_557" data-name="Group 557" transform="translate(24.572 155.626)">
      <g id="Group_548" data-name="Group 548">
        <g id="Group_544" data-name="Group 544">
          <path id="Path_274" data-name="Path 274" d="M211.73,236.223H61.6A37.024,37.024,0,0,1,24.572,199.2h0A37.024,37.024,0,0,1,61.6,162.174H211.73L248.753,148.3v50.9h0A37.024,37.024,0,0,1,211.73,236.223Z" transform="translate(-24.572 -148.3)" fill="#fff" opacity="0.32"/>
          <path id="Path_275" data-name="Path 275" d="M211.981,164.5H61.366a34.365,34.365,0,0,0,0,68.731H211.5a34.4,34.4,0,0,0,34.365-34.365V151.8Z" transform="translate(-24.342 -147.968)" fill="#fff"/>
        </g>
        <g id="Group_547" data-name="Group 547" transform="translate(77.102 32.874)">
          <path id="Path_276" data-name="Path 276" d="M164.555,216.862H98.871a3.876,3.876,0,0,1-3.877-3.877v-1.652a3.878,3.878,0,0,1,3.974-3.877l65.684,1.652a3.879,3.879,0,0,1,3.781,3.877h0A3.877,3.877,0,0,1,164.555,216.862Z" transform="translate(-94.994 -175.563)" fill="#e4dfea"/>
          <g id="Group_546" data-name="Group 546" transform="translate(3.128)">
            <g id="Group_545" data-name="Group 545" transform="translate(10.644)">
              <path id="Path_277" data-name="Path 277" d="M117.815,184.007l-2.1,2.048.6,3.524-3.786-1.213-4.955,1.443,1.774-3.757-1.774-2.695,2.991-1.046,1.969-3.985,1.965,3.987Z" transform="translate(-107.573 -178.326)" fill="#febd00"/>
              <path id="Path_278" data-name="Path 278" d="M136.45,184.007l-2.1,2.048.6,3.524-3.786-1.213-4.955,1.443,1.774-3.757-1.774-2.695,2.991-1.046,1.969-3.985,1.965,3.987Z" transform="translate(-105.805 -178.326)" fill="#febd00"/>
              <path id="Path_279" data-name="Path 279" d="M155.084,184.007l-2.1,2.048.6,3.524-3.786-1.213-4.955,1.443,1.774-3.757-1.774-2.695,2.991-1.046,1.969-3.985,1.965,3.987Z" transform="translate(-104.037 -178.326)" fill="#febd00"/>
              <path id="Path_280" data-name="Path 280" d="M173.719,184.007l-2.1,2.048.6,3.524-3.786-1.213-4.955,1.443,1.774-3.757-1.774-2.695,2.991-1.046,1.969-3.985,1.965,3.987Z" transform="translate(-102.27 -178.326)" fill="#febd00"/>
              <path id="Path_281" data-name="Path 281" d="M192.353,184.007l-2.1,2.048.6,3.524-3.786-1.213-4.955,1.443,1.774-3.757-1.774-2.695,2.991-1.046,1.969-3.985,1.965,3.987Z" transform="translate(-100.502 -178.326)" fill="#febd00"/>
            </g>
            <path id="Path_282" data-name="Path 282" d="M206.752,206.425,102.2,204.318a4.44,4.44,0,0,1-4.35-4.44h0a4.44,4.44,0,0,1,4.451-4.44l104.551.263a4.439,4.439,0,0,1,4.429,4.44v1.844A4.441,4.441,0,0,1,206.752,206.425Z" transform="translate(-97.851 -176.703)" fill="#e4dfea"/>
            <path id="Path_283" data-name="Path 283" d="M171.355,215.969l29.4.577a3.833,3.833,0,0,0,3.908-3.832v-.059a3.833,3.833,0,0,0-3.765-3.832l-29.4-.518a3.833,3.833,0,0,0-3.9,3.832h0A3.833,3.833,0,0,0,171.355,215.969Z" transform="translate(-91.235 -175.482)" fill="#e4dfea"/>
          </g>
        </g>
      </g>
      <g id="Group_556" data-name="Group 556" transform="translate(17.869 30.547)">
        <path id="Path_284" data-name="Path 284" d="M81.477,195.613c.43,9.583-10.122,17.816-19.705,18.246s-20.436-5.215-20.866-14.8S50.5,176.643,60.08,176.213,81.047,186.03,81.477,195.613Z" transform="translate(-40.893 -176.2)" fill="#e4dfea"/>
        <g id="Group_555" data-name="Group 555">
          <g id="Group_554" data-name="Group 554" clip-path="url(#clip-path-2)">
            <g id="Group_553" data-name="Group 553" transform="translate(9.059 8.382)">
              <g id="Group_552" data-name="Group 552">
                <path id="Path_285" data-name="Path 285" d="M55.346,218.115l-1.311-1.343s.879-8.25,1.92-9.6,7.713-2.148,9.461-1.127,4.2,10.225,4.2,10.225Z" transform="translate(-48.705 -181.794)" fill="#2b9aff"/>
                <path id="Path_286" data-name="Path 286" d="M62.525,208.07a2.038,2.038,0,0,1-3.8.171l-.211-4.7,3.8-.171Z" transform="translate(-48.28 -182.004)" fill="#ffb27a"/>
                <g id="Group_551" data-name="Group 551">
                  <g id="Group_550" data-name="Group 550">
                    <g id="Group_549" data-name="Group 549" transform="translate(1.397)">
                      <path id="Path_287" data-name="Path 287" d="M70.8,199.408a20.669,20.669,0,0,0,.119-3.62c-.247-5.52-5.276-6.774-10.261-6.549s-9.913,1.576-9.665,7.1a14.538,14.538,0,0,0,2.032,7.345c1.723,2.621,5.392,2.608,8.387,2.511C66.241,206.034,70.136,204.413,70.8,199.408Z" transform="translate(-50.391 -183.347)" fill="#ef9c62"/>
                      <path id="Path_288" data-name="Path 288" d="M69.12,198.99a19.311,19.311,0,0,0,.107-3.352c-.23-5.113-3.958-3.162-8.506-2.762-4.864.428-7.135-1.214-7.135-1.214s-2.7,2.065-2.589,4.473a13.583,13.583,0,0,0,1.862,6.8c1.578,2.428,4.935,2.417,7.674,2.329C64.949,205.123,68.513,203.623,69.12,198.99Z" transform="translate(-50.39 -183.115)" fill="#ffb27a"/>
                      <path id="Path_289" data-name="Path 289" d="M60.231,183.875c-11.05.914-9.883,7.275-9.626,13.011l.968-.018s.612-3.392,2.019-4.984c0,0,1.342,1.52,7.446,1.245l-1.256-.62c6.1-.275,8.2-1.272,8.2-1.272,1.544,1.459,2.458,4.782,2.458,4.782l.965-.069C71.152,190.215,72.838,183.448,60.231,183.875Z" transform="translate(-50.443 -183.855)" fill="#ffce6b"/>
                    </g>
                    <path id="Path_290" data-name="Path 290" d="M69.971,194.281a1.289,1.289,0,0,1,.783.489,2.046,2.046,0,0,1,.466,1.706c-.236,1.1-2.042,1.865-2.546.549C68.355,196.19,68.8,194.127,69.971,194.281Z" transform="translate(-47.326 -182.867)" fill="#ef9c62"/>
                    <path id="Path_291" data-name="Path 291" d="M50.293,195.165a1.283,1.283,0,0,0-.735.557,2.044,2.044,0,0,0-.312,1.742c.334,1.075,2.2,1.673,2.585.318C52.074,196.922,51.448,194.907,50.293,195.165Z" transform="translate(-49.167 -182.785)" fill="#ffb27a"/>
                  </g>
                </g>
              </g>
            </g>
          </g>
        </g>
      </g>
    </g>
  </g>
</svg>
