<svg id="vector02" xmlns="http://www.w3.org/2000/svg" width="504.675" height="524.84" viewBox="0 0 504.675 524.84">
  <g id="Group_468" data-name="Group 468" transform="translate(0 0)">
    <path id="Path_137" data-name="Path 137" d="M276,380.786l-2.051,1.185-2.051,1.184v4.738l2.051,1.185L276,390.262l2.051-1.185,2.052-1.185v-4.738l-2.052-1.184Z" transform="translate(-85.004 48.58)" fill="#ffd600" fill-rule="evenodd"/>
    <path id="Path_138" data-name="Path 138" d="M245.987,167.545h7.688V182.92H238.3V167.545Zm-4.974,12.661h9.949v-9.949h-9.949Z" transform="translate(-15.688 -10.378)" fill="#f1f1f1" fill-rule="evenodd"/>
    <rect id="Rectangle_117" data-name="Rectangle 117" width="9.335" height="9.335" transform="translate(194.562 515.504)" fill="#ffcb12"/>
    <rect id="Rectangle_118" data-name="Rectangle 118" width="6.617" height="6.617" transform="translate(0 142.741)" fill="#ffcb12"/>
    <rect id="Rectangle_119" data-name="Rectangle 119" width="14.365" height="14.365" transform="translate(314.962 236.224)" fill="#ffd600"/>
    <rect id="Rectangle_120" data-name="Rectangle 120" width="14.365" height="14.365" transform="translate(464.172 181.659)" fill="#ffd600"/>
    <rect id="Rectangle_121" data-name="Rectangle 121" width="10.445" height="10.445" transform="translate(177.463 10.679)" fill="#ffd600"/>
    <rect id="Rectangle_122" data-name="Rectangle 122" width="10.444" height="10.444" transform="translate(376.758 15.902)" fill="#ffd600"/>
    <path id="Path_139" data-name="Path 139" d="M69.466,140.337l-2.388,4.125-2.388,4.125h9.534l-2.37-4.125Z" transform="translate(385.374 -17.9)" fill="#92278f"/>
    <path id="Path_140" data-name="Path 140" d="M99.792,88.107l-4.776,8.25-4.776,8.25h19.069l-4.74-8.25Z" transform="translate(317.675 -32.341)" fill="#92278f"/>
    <path id="Path_141" data-name="Path 141" d="M393.731,112.544l-3.089,5.335-3.089,5.335h12.331l-3.065-5.335Z" transform="translate(-352.418 -25.585)" fill="#92278f"/>
    <path id="Path_142" data-name="Path 142" d="M185.142,322.331,181.57,328.5,178,334.673H192.26l-3.546-6.171Z" transform="translate(122.702 32.419)" fill="#92278f"/>
    <path id="Path_143" data-name="Path 143" d="M46.757,334.477l-2.745,4.742-2.745,4.742H52.227L49.5,339.219Z" transform="translate(437.271 35.777)" fill="#92278f"/>
    <path id="Path_144" data-name="Path 144" d="M109.841,424.913l-3.573,6.171-3.573,6.171h14.263l-3.546-6.171Z" transform="translate(294.125 60.781)" fill="#92278f"/>
    <path id="Path_145" data-name="Path 145" d="M148.278,220.5a7.585,7.585,0,1,0,7.585-7.585A7.584,7.584,0,0,0,148.278,220.5Z" transform="translate(189.451 2.167)" fill="#ff3a58"/>
    <ellipse id="Ellipse_14" data-name="Ellipse 14" cx="8.883" cy="8.883" rx="8.883" ry="8.883" transform="translate(280.626 12.241)" fill="#ff3a58"/>
    <path id="Path_146" data-name="Path 146" d="M318.658,52.314a7.893,7.893,0,1,0,7.893-7.894A7.893,7.893,0,0,0,318.658,52.314Z" transform="translate(-199.034 -44.42)" fill="#ff3a58"/>
    <path id="Path_147" data-name="Path 147" d="M359.414,89.544a8.865,8.865,0,1,0,8.865-8.865A8.866,8.866,0,0,0,359.414,89.544Z" transform="translate(-293.758 -34.395)" fill="#ff3a58"/>
    <path id="Path_148" data-name="Path 148" d="M359.414,121.346a1.773,1.773,0,1,0,1.773-1.774A1.773,1.773,0,0,0,359.414,121.346Z" transform="translate(-279.574 -23.642)" fill="#ff3a58"/>
    <ellipse id="Ellipse_15" data-name="Ellipse 15" cx="7.802" cy="7.802" rx="7.802" ry="7.802" transform="translate(50.053 134.939)" fill="#ff3a58"/>
    <path id="Path_149" data-name="Path 149" d="M354.969,196.968a4.61,4.61,0,1,0,4.611-4.609A4.61,4.61,0,0,0,354.969,196.968Z" transform="translate(-275.129 -3.517)" fill="#ff3a58"/>
    <path id="Path_150" data-name="Path 150" d="M38.266,173.5A3.829,3.829,0,1,0,42.1,169.67,3.829,3.829,0,0,0,38.266,173.5Z" transform="translate(447.402 -9.79)" fill="#ff3a58"/>
    <ellipse id="Ellipse_16" data-name="Ellipse 16" cx="4.255" cy="4.255" rx="4.255" ry="4.255" transform="translate(441.553 407.996)" fill="#ff3a58"/>
    <ellipse id="Ellipse_17" data-name="Ellipse 17" cx="3.634" cy="3.634" rx="3.634" ry="3.634" transform="translate(497.408 347.482)" fill="#ff3a58"/>
    <path id="Path_151" data-name="Path 151" d="M151.823,283.513a5.052,5.052,0,1,0,5.051-5.051A5.051,5.051,0,0,0,151.823,283.513Z" transform="translate(186.447 20.289)" fill="#ff3a58"/>
    <path id="Path_152" data-name="Path 152" d="M190.978,378.548a3.947,3.947,0,1,0,3.947-3.946A3.947,3.947,0,0,0,190.978,378.548Z" transform="translate(99.521 46.871)" fill="#ff3a58"/>
    <path id="Path_153" data-name="Path 153" d="M209.8,399.443a3.591,3.591,0,1,0,3.592-3.591A3.591,3.591,0,0,0,209.8,399.443Z" transform="translate(57.374 52.746)" fill="#ff3a58"/>
    <path id="Path_154" data-name="Path 154" d="M277.182,404.334a5.669,5.669,0,1,0,5.669-5.669A5.668,5.668,0,0,0,277.182,404.334Z" transform="translate(-100.165 53.524)" fill="#ff3a58"/>
    <path id="Path_155" data-name="Path 155" d="M144.945,438.137a3.554,3.554,0,1,0,3.555-3.555A3.555,3.555,0,0,0,144.945,438.137Z" transform="translate(205.099 63.454)" fill="#ff3a58"/>
    <g id="Group_467" data-name="Group 467" transform="translate(68.006 25.249)">
      <path id="Path_156" data-name="Path 156" d="M97.709,484.483c3.526,1.631,23.791,15.948,63.215-.842,39.371-16.791,38.319-42.213,48.951-36.687,10.633,5.475,4.632,17.212-.895,25.634-5.474,8.473-22.423,17.949-1.684,13.685,20.79-4.317,38.792-3.158,67.321-39.688,28.528-36.476,22.581-63.268,32.161-62.425,9.526.842-1.737,22.37,7.422,23.9,6.105,1.052,11.9-21.16,17.527-44.741,14.369-60.479-28.686-80.743-18.055-91.9,10.685-11.159,21,19.738,27,17.527,6-2.159,5.948-32.739-24.108-65.585-30.055-32.9-62.11-42.53-100.639-35s-76.9,55.425-93.27,45-14.58-49.163,15.527-71.479,208.806-31.529,227.334,57.794c18.527,89.376,16.58,174.54-27.792,221.386s-121.483,72.8-169.014,71.006c-47.476-1.79-71-27.581-71-27.581Z" transform="translate(-27.125 -41.362)" fill="#92278f" fill-rule="evenodd"/>
      <path id="Path_157" data-name="Path 157" d="M95.282,162.714c-6.579,6.527,47.741-31.162,44.372-43s-109.9,38.424-104.377,20.948c5.527-17.423,56.373-40.213,49.847-41.9-6.58-1.631-51.952,21.686-38.266.421C60.594,77.97,133.811,65.074,205.343,78.391c71.479,13.37,96.534,38.582,92.218,23.791-4.316-14.737-40.056-32.633-23.9-37.739,16.107-5.158,85.481,72.9,111.535,134.169,26,61.215,18.212,107.64,25.9,100.008,7.632-7.632-3.948-49,13.475-41,36.056,21.845-2.58,169.119-84.849,235.755-8.633,7,18.475-3.736,20.738,6.107,2.317,9.789-23.527,17.369-101.165,40.055s-145.38-7.789-145.38-7.789,109.325,2.789,165.171-30.371c55.794-33.108,80.48-80.953,92.323-171.172,11.791-90.27-56.267-171.7-125.062-181.751S95.282,162.714,95.282,162.714Z" transform="translate(-8.697 -64.2)" fill="#ffd600" fill-rule="evenodd"/>
      <path id="Path_158" data-name="Path 158" d="M136.659,499.674c103.428,42,228.86-10.633,261.178-127.747,29.95-108.64-47.056-270.023-250.231-146.433-33.9,20.685-44.529,11.053-33-13.738,11.58-24.844-41.529,16.264-46.95-6.739-5.369-22.949.157-39.318,61.426-76.216,191.067-115.167,365.713,58,319.235,256.6C417.1,518.781,224.244,587.1,136.659,499.674Z" transform="translate(-66.075 -56.553)" fill="#ff3a58" fill-rule="evenodd"/>
      <path id="Path_159" data-name="Path 159" d="M86.6,485.37c78.584,12.159,79.637-7.369,86.059-4.738s8.421,9.58,1.315,15.318c-7.1,5.684,38.266-1.685,54.058-8.212,15.79-6.579,41.371-21.528,51.267-41.425,9.9-19.949,2.789-29.792,15.106-26.476,12.264,3.316-5.317,18.633,9.58,17.423,14.949-1.211,27.16-17.738,36.95-54.951s-20-67.216-7.686-77.586c12.317-10.317,17.95,35.056,24.844,14.265,6.843-20.738,1.264-60.32-19.686-85.533-20.948-25.16-48.425-16.528-46.74-30.844s11.053-4.317,15.158-3.79-11.579-17.212-36.792-23.739-36.319-2-66.9,9.369c-30.634,11.368-50.32-5.054-26.74-20.581,23.582-15.581,113.483-35.161,152.7-2.79,39.214,32.318,50.951,77.691,50.53,137.748-.368,60.11-35.528,131.221-70.057,158.855-34.529,27.687-77.638,47.688-122.8,53.425C141.661,516.846,86.6,485.37,86.6,485.37Z" transform="translate(-16.02 -42.249)" fill="#ff3a58" fill-rule="evenodd"/>
      <path id="Path_160" data-name="Path 160" d="M62.426,532.59s41.764-.874,80.8-25.581c20.4-12.914,14.211-27.792,24.791-29.686,10.581-1.948,10.475,10.685,5.685,20.317-4.843,9.686,42.213-9.263,59.53-44.424s-4.263-42.424,8.633-54.478c12.9-12.106,3.158,39.74,15.212,20.422,12.106-19.369,22.9-60.583,20.528-103.745-2.317-43.108-44.951-53.794-30.582-73.532,14.317-19.738,23.37,32.318,31.844,27.95,8.475-4.317-5-56.795-40.424-89.692-35.371-32.9-72.059-16.422-67.005-43.371s29.423-29.214,51.741-8.37S258.7,171.457,270.6,204.249c11.9,32.844,20.581,59.636,21.528,103.324s-1.316,66.058-15.579,96.9c-14.317,30.791-34.372,59.163-51.847,73-63.372,50.162-116.853,58.25-162.276,55.11Z" transform="translate(102.165 -50.309)" fill="#ffd600" fill-rule="evenodd"/>
    </g>
    <path id="Path_161" data-name="Path 161" d="M350.138,158.377c-15.614,2.217-30.536,7.78-45.182,13.628-4.44,1.772-9.131,3.61-13.86,2.917s-9.293-4.967-8.452-9.672c.817-4.57,6.137-7.563,6.275-12.2.106-3.586-3.2-6.56-6.712-7.277s-7.136.288-10.532,1.445c-33.383,11.361-61.35,38.02-96.354,42.291-4.078.5-8.494.605-11.98-1.57-4.833-3.014-6.317-9.705-4.8-15.2s5.4-9.99,9.437-14.012c28.541-28.457,71.045-42.189,110.841-35.808,2.7.431,6.519.162,6.8-2.553s-3.4-3.764-5.348-5.683c-3.024-2.979-1.266-8.6,2.387-10.765s8.247-1.777,12.406-.924a66.91,66.91,0,0,1,27.3,12.513c3.641,2.808,7.063,6.039,11.293,7.84s9.641,1.823,12.927-1.393c1.368-1.34,2.337-3.189,4.085-3.974,2.912-1.307,6.091.985,8.459,3.126l29.045,26.256c3.244,2.932,6.538,6.185,8.413,10.2.609,1.306,1.807,3.776.853,5.157-.853,1.232-2.825.994-4.059.66-4.449-1.2-8.572-3.258-13.134-4.251a77.18,77.18,0,0,0-14.2-1.69A93.933,93.933,0,0,0,350.138,158.377Z" transform="translate(-57.28 -28.412)" fill="#ff657d"/>
    <path id="Path_162" data-name="Path 162" d="M104.4,303.593c-.371,4.141-2.138,9.424-6.3,9.363-1.736-.026-3.3-1.089-5.024-1.3-3.864-.474-7.037,3.667-7.028,7.561s2.2,7.407,4.395,10.625q6.836,10.037,14.6,19.391c1.3,1.562,2.849,3.231,4.876,3.338,3.5.186,5.291-4.071,5.964-7.51a186.336,186.336,0,0,0-9.539-103.579c-1.44-3.642-5.146-10.7-10.186-7.684-3.384,2.022,1.022,7.808,1.92,10.244,4.352,11.807,6.063,25.234,6.716,37.733A154.655,154.655,0,0,1,104.4,303.593Z" transform="translate(313.048 7.738)" fill="#ff657d"/>
    <path id="Path_163" data-name="Path 163" d="M118.7,398.162c-1.321,3.268-.583,7.7,2.581,9.251,2.051,1.006,4.539.551,6.615-.4,4.719-2.164,8-6.555,10.728-10.969a104.287,104.287,0,0,0,8.471-16.979q1.739-4.456,3.065-9.059c.283-.985,1.277-3.283.023-4.03-2.215-1.319-7.062,3.564-8.376,4.794-3.863,3.615-6.524,8.194-9.9,12.23a95.493,95.493,0,0,1-7.267,7.7C122.344,392.9,119.919,395.156,118.7,398.162Z" transform="translate(240.642 44.424)" fill="#ff657d"/>
    <path id="Path_164" data-name="Path 164" d="M253.725,427.675c11.693.072,23.306-1.687,34.94-2.849,4.161-.416,9.483-.086,10.983,3.819.989,2.572-.425,5.581-2.628,7.235s-5.011,2.242-7.735,2.654a88,88,0,0,1-35.891-2.12,89.331,89.331,0,0,1-16.892-6.431c-2.347-1.179-5.162-2.332-6.98-4.286-.234-.251-1.421-1.428-1.056-1.856.348-.408,2.881.756,3.355.895A79.252,79.252,0,0,0,253.725,427.675Z" transform="translate(-49.34 60.461)" fill="#ff657d"/>
    <path id="Path_165" data-name="Path 165" d="M136.1,200.291c-1.7,1.345-4.3.954-6.042-.329a14.279,14.279,0,0,1-3.836-5.18c-2.682-5.167-5.139-10.5-8.657-15.14a26.714,26.714,0,0,0-14.33-9.962c-2.785-.807-3.487-3.352-.115-3.875,3.141-.486,6.444.435,9.491,1.1,3.66.8,7.493,1.63,10.564,3.9,3.607,2.669,6.312,6.836,8.662,10.58a49.345,49.345,0,0,1,4.987,10.443C137.7,194.428,138.634,198.285,136.1,200.291Z" transform="translate(275.686 -10.897)" fill="#ff657d"/>
    <path id="Path_166" data-name="Path 166" d="M150.672,158.957c1.6,3.415,2.829,8.078-.1,10.454-1.767,1.435-4.42,1.266-6.451.24a20.848,20.848,0,0,1-5.193-4.383,84.074,84.074,0,0,0-35.083-21.448c-2.033-.631-4.17-1.225-5.751-2.653s-2.378-3.986-1.144-5.721c2.887-4.059,10.588,1.7,13.992-1.935,2.026-2.167.544-5.734-1.394-7.982-2.161-2.506-4.812-4.6-6.658-7.346-1.529-2.275-2.494-5.309-1.638-8.015a6.189,6.189,0,0,1,6.177-4.235,13.012,13.012,0,0,1,6.028,1.471,17.066,17.066,0,0,1,3.829,3.646c4.038,4.57,8.268,8.924,12.087,13.69a170.39,170.39,0,0,1,11.053,15.5,168.975,168.975,0,0,1,9.214,16.561Q150.166,157.875,150.672,158.957Z" transform="translate(266.838 -27.414)" fill="#ffe24a"/>
    <path id="Path_167" data-name="Path 167" d="M52.143,281.192a10.043,10.043,0,0,1,.973-4.221,5,5,0,0,1,8.99,4.326c6.71-4.937,11.086-12.531,13.6-20.475s3.333-16.308,4.137-24.6c2.462.25,4.322,2.54,4.886,4.95s.115,4.927-.336,7.361c-2.368,12.79-4.823,25.831-11.09,37.227-3.228,5.869-7.42,11.2-10.185,17.307-4.625,10.209-4.941,21.818-8.232,32.531A60.7,60.7,0,0,1,45,354.732c-1.206,1.568-2.867,3.231-4.823,2.93a4,4,0,0,1-3-3.641,11.725,11.725,0,0,1,.9-4.951c1.126-4.5,3.013-8.946,4.494-13.347q2.279-6.763,4.556-13.526,1.139-3.381,2.277-6.763a9.91,9.91,0,0,0,.437-4.456,42.218,42.218,0,0,1,.416-6.61q.287-3.552.577-7.1Q51.489,289.229,52.143,281.192Z" transform="translate(409.77 8.61)" fill="#ffe24a"/>
    <path id="Path_168" data-name="Path 168" d="M113.486,424.278c-1.439.449-3.149.855-4.332-.078a3.151,3.151,0,0,1-.574-3.792,8.109,8.109,0,0,1,2.9-2.9,54.591,54.591,0,0,1,15.277-7.031,85.553,85.553,0,0,1,8.444-2.019,20.929,20.929,0,0,1,6.926-.628,15.512,15.512,0,0,1,5.429,1.837c.8.458,2.489,1.448,2.212,2.609-.135.568-.748.845-1.234,1.044-1.407.572-2.944.927-4.392,1.38l-9.413,2.941-18.914,5.91Z" transform="translate(254.251 56.028)" fill="#ffe24a"/>
    <path id="Path_169" data-name="Path 169" d="M269.994,188.7c-5.485,2.79-10.54,6.727-13.7,12.005a12.861,12.861,0,0,0-2.1,6.467,6.63,6.63,0,0,0,3.056,5.811c2.644,1.49,5.97.438,8.672-.942,12.036-6.14,20.971-18.245,34.106-21.41a9.426,9.426,0,0,0,3.407-1.218,2.642,2.642,0,0,0,1.058-3.168c-.853-1.634-3.283-1.171-4.99-.472l-19.418,7.955c-.574-2.05,1.4-3.946,3.375-4.746,1.87-.76,4.122-1.076,5.614-2.548.883-.869,1.755-3.212.135-3.824-1.349-.509-3.237.231-4.529.613-2.25.665-4.493,1.363-6.709,2.139A64.7,64.7,0,0,0,269.994,188.7Z" transform="translate(-86.997 -6.26)" fill="#a750a4"/>
    <path id="Path_170" data-name="Path 170" d="M132.272,327.775c-2.122,7.183-5.3,14-8.334,20.848a7.457,7.457,0,0,0-.86,3.094,2.57,2.57,0,0,0,1.689,2.5c1.26.327,2.446-.682,3.323-1.644a45.429,45.429,0,0,0,7.483-11.248,48.029,48.029,0,0,0,3.988-13.048,46.493,46.493,0,0,0,.112-13.629q-.241-1.693-.613-3.365c-.225-1.007-.447-2.476-1.271-3.193a2.017,2.017,0,0,0-3.19,1.391c-.117,1.292.114,2.677.082,3.984-.032,1.382-.132,2.762-.287,4.137a57.585,57.585,0,0,1-1.561,8.173Q132.567,326.778,132.272,327.775Z" transform="translate(244.947 28.364)" fill="#a750a4"/>
  </g>
  <g id="Group_469" data-name="Group 469" transform="translate(138.302 332.063)">
    <path id="Path_171" data-name="Path 171" d="M292.032,377.826,250.189,424.8a293.811,293.811,0,0,0,16.423-73.272c15.032.878,26.545-4.3,35.6-13.713l16.25,14.475L334.7,366.752c-8.307,10.08-12.128,22.113-9.524,36.943a293.726,293.726,0,0,0-70.893,24.75l41.843-46.973a5.926,5.926,0,1,0-4.091-3.644Z" transform="translate(-250.189 -295.364)" fill="#f8fbf5" fill-rule="evenodd"/>
    <rect id="Rectangle_123" data-name="Rectangle 123" width="44.31" height="13.118" transform="translate(86.691 69.035) rotate(-138.305)" fill="#f8fbf5"/>
    <path id="Path_172" data-name="Path 172" d="M220.931,332.01l33.087,29.474,24.1-27.056-.032-.028a.386.386,0,0,0,.117-.1c1.38-1.548-4.9-9.395-14.046-17.54s-17.66-13.482-19.04-11.934a.373.373,0,0,0-.086.129h0Z" transform="translate(-156.539 -304.559)" fill="#f8fbf5" fill-rule="evenodd"/>
  </g>
  <g id="Group_474" data-name="Group 474" transform="translate(190.742 264.6)">
    <g id="Group_470" data-name="Group 470" transform="translate(4.049 3.578)">
      <line id="Line_88" data-name="Line 88" x2="97.052" transform="translate(0 0.521)" fill="#002940"/>
      <rect id="Rectangle_124" data-name="Rectangle 124" width="97.053" height="1.042" transform="translate(0)" fill="#f8fbf5"/>
    </g>
    <g id="Group_471" data-name="Group 471" transform="translate(0 0.355)">
      <path id="Path_173" data-name="Path 173" d="M273.189,259.474a3.744,3.744,0,1,1,3.744-3.744A3.744,3.744,0,0,1,273.189,259.474Z" transform="translate(-269.445 -251.986)" fill="#f8fbf5"/>
      <path id="Path_174" data-name="Path 174" d="M196.68,259.474a3.744,3.744,0,1,1,3.744-3.744A3.744,3.744,0,0,1,196.68,259.474Z" transform="translate(-95.273 -251.986)" fill="#f8fbf5"/>
    </g>
    <g id="Group_472" data-name="Group 472" transform="translate(6.162 2.75)">
      <path id="Path_175" data-name="Path 175" d="M244.176,253.862a46.467,46.467,0,0,0-46.414,46.414h2.7a43.716,43.716,0,0,1,87.433,0h2.7A46.468,46.468,0,0,0,244.176,253.862Z" transform="translate(-197.762 -253.862)" fill="#f8fbf5"/>
    </g>
    <g id="Group_473" data-name="Group 473" transform="translate(3.585 45.428)">
      <rect id="Rectangle_125" data-name="Rectangle 125" width="7.488" height="6.745" rx="2.082" transform="translate(90.493 0)" fill="#f8fbf5"/>
      <rect id="Rectangle_126" data-name="Rectangle 126" width="7.488" height="6.745" rx="2.082" transform="translate(0 0)" fill="#f8fbf5"/>
    </g>
    <rect id="Rectangle_127" data-name="Rectangle 127" width="7.488" height="6.745" rx="2.082" transform="translate(48.831 0)" fill="#f8fbf5"/>
  </g>
</svg>
