<svg xmlns="http://www.w3.org/2000/svg" width="366.019" height="241.613" viewBox="0 0 366.019 241.613">
  <g id="vector3" transform="translate(636.18 -114.101)">
    <g id="Group_517" data-name="Group 517" transform="translate(-635.045 114.101)">
      <g id="Group_487" data-name="Group 487" transform="translate(68.954 66.674)">
        <g id="Group_475" data-name="Group 475">
          <path id="Path_176" data-name="Path 176" d="M-368.082,170.69H-556.968a19.668,19.668,0,0,0-19.668,19.668v95.876A19.668,19.668,0,0,0-556.968,305.9h100.741a4.914,4.914,0,0,1,1.865.368l59.09,24.238a8.605,8.605,0,0,0,11.87-7.961V310.819a4.916,4.916,0,0,1,4.917-4.917h10.4a19.667,19.667,0,0,0,19.667-19.668V190.358A19.667,19.667,0,0,0-368.082,170.69Z" transform="translate(576.636 -170.69)" fill="#bb0723"/>
          <path id="Path_177" data-name="Path 177" d="M-460.556,283.968c-14.273-10.913-26.922-23.968-35.012-39.357s-11.366-33.267-6.963-49.881a56.586,56.586,0,0,1,13.421-24.04h-67.858a19.668,19.668,0,0,0-19.668,19.668v95.876A19.668,19.668,0,0,0-556.968,305.9h100.741a4.914,4.914,0,0,1,1.865.368l59.09,24.238a8.605,8.605,0,0,0,11.87-7.961v-3.239A196.616,196.616,0,0,1-460.556,283.968Z" transform="translate(576.636 -170.69)" fill="#7d0013"/>
        </g>
        <g id="Group_486" data-name="Group 486" transform="translate(21.699 21.699)">
          <g id="Group_479" data-name="Group 479" transform="translate(0 44.221)">
            <g id="Group_476" data-name="Group 476">
              <path id="Path_178" data-name="Path 178" d="M-376.659,233.164h-178.3a3.263,3.263,0,0,1-3.262-3.262h0a3.262,3.262,0,0,1,3.262-3.262h178.3a3.262,3.262,0,0,1,3.264,3.262h0A3.263,3.263,0,0,1-376.659,233.164Z" transform="translate(558.219 -226.639)" fill="#f8fbf5"/>
              <path id="Path_179" data-name="Path 179" d="M-554.957,226.639a3.262,3.262,0,0,0-3.262,3.262h0a3.263,3.263,0,0,0,3.262,3.262h55.349q-1.6-3.2-2.915-6.525Z" transform="translate(558.219 -226.639)" fill="#dfdfdf"/>
            </g>
            <g id="Group_477" data-name="Group 477" transform="translate(0 20.534)">
              <path id="Path_180" data-name="Path 180" d="M-376.659,250.592h-178.3a3.263,3.263,0,0,1-3.262-3.262h0a3.263,3.263,0,0,1,3.262-3.262h178.3a3.263,3.263,0,0,1,3.264,3.262h0A3.263,3.263,0,0,1-376.659,250.592Z" transform="translate(558.219 -244.067)" fill="#f8fbf5"/>
              <path id="Path_181" data-name="Path 181" d="M-554.957,244.067a3.263,3.263,0,0,0-3.262,3.262,3.263,3.263,0,0,0,3.262,3.262H-485.7q-2.743-3.174-5.222-6.525Z" transform="translate(558.219 -244.067)" fill="#dfdfdf"/>
            </g>
            <g id="Group_478" data-name="Group 478" transform="translate(0 41.068)">
              <path id="Path_182" data-name="Path 182" d="M-376.659,268.02h-178.3a3.262,3.262,0,0,1-3.262-3.262h0a3.263,3.263,0,0,1,3.262-3.262h178.3a3.263,3.263,0,0,1,3.264,3.262h0A3.262,3.262,0,0,1-376.659,268.02Z" transform="translate(558.219 -261.495)" fill="#f8fbf5"/>
              <path id="Path_183" data-name="Path 183" d="M-558.219,264.757a3.263,3.263,0,0,0,3.262,3.262h91.431c-.1-.079-.209-.156-.312-.234q-3.968-3.035-7.749-6.29h-83.369A3.263,3.263,0,0,0-558.219,264.757Z" transform="translate(558.219 -261.495)" fill="#dfdfdf"/>
            </g>
          </g>
          <g id="Group_485" data-name="Group 485">
            <g id="Group_480" data-name="Group 480">
              <path id="Path_184" data-name="Path 184" d="M-545.506,211.051l-6.3,3.31a1.237,1.237,0,0,1-1.8-1.3l1.2-7.01a1.234,1.234,0,0,0-.356-1.1l-5.093-4.965a1.237,1.237,0,0,1,.686-2.11l7.04-1.023a1.238,1.238,0,0,0,.931-.677l3.148-6.379a1.238,1.238,0,0,1,2.22,0l3.148,6.379a1.235,1.235,0,0,0,.931.677l7.04,1.023a1.237,1.237,0,0,1,.686,2.11l-5.093,4.965a1.234,1.234,0,0,0-.356,1.1l1.2,7.01a1.237,1.237,0,0,1-1.8,1.3l-6.3-3.31A1.238,1.238,0,0,0-545.506,211.051Z" transform="translate(558.219 -189.107)" fill="#febd00"/>
              <path id="Path_185" data-name="Path 185" d="M-544.354,211.051l6.3,3.31a1.237,1.237,0,0,0,1.8-1.3l-.041-.244a19.821,19.821,0,0,1-5.183-2.751c-3.418-2.577-5.744-6.6-5.406-10.682a9.669,9.669,0,0,1,4.308-7.081l-1.235-2.5a1.238,1.238,0,0,0-2.22,0l-3.148,6.379a1.238,1.238,0,0,1-.931.677l-7.04,1.023a1.237,1.237,0,0,0-.686,2.11l5.093,4.965a1.234,1.234,0,0,1,.356,1.1l-1.2,7.01a1.237,1.237,0,0,0,1.8,1.3l6.3-3.31A1.238,1.238,0,0,1-544.354,211.051Z" transform="translate(558.219 -189.107)" fill="#ffd868"/>
            </g>
            <g id="Group_481" data-name="Group 481" transform="translate(39.561)">
              <path id="Path_186" data-name="Path 186" d="M-511.928,211.051l-6.3,3.31a1.238,1.238,0,0,1-1.8-1.3l1.2-7.01a1.241,1.241,0,0,0-.356-1.1l-5.094-4.965a1.237,1.237,0,0,1,.686-2.11l7.039-1.023a1.24,1.24,0,0,0,.932-.677l3.148-6.379a1.237,1.237,0,0,1,2.219,0l3.148,6.379a1.24,1.24,0,0,0,.932.677l7.039,1.023a1.237,1.237,0,0,1,.686,2.11l-5.093,4.965a1.234,1.234,0,0,0-.356,1.1l1.2,7.01a1.237,1.237,0,0,1-1.794,1.3l-6.3-3.31A1.235,1.235,0,0,0-511.928,211.051Z" transform="translate(524.642 -189.107)" fill="#febd00"/>
              <path id="Path_187" data-name="Path 187" d="M-510.777,211.051l6.3,3.31a1.237,1.237,0,0,0,1.794-1.3l-.041-.244a19.812,19.812,0,0,1-5.182-2.751c-3.418-2.577-5.745-6.6-5.406-10.682a9.664,9.664,0,0,1,4.306-7.081l-1.235-2.5a1.237,1.237,0,0,0-2.219,0l-3.148,6.379a1.24,1.24,0,0,1-.932.677l-7.039,1.023a1.237,1.237,0,0,0-.686,2.11l5.094,4.965a1.241,1.241,0,0,1,.356,1.1l-1.2,7.01a1.238,1.238,0,0,0,1.8,1.3l6.3-3.31A1.235,1.235,0,0,1-510.777,211.051Z" transform="translate(524.642 -189.107)" fill="#ffd868"/>
            </g>
            <g id="Group_482" data-name="Group 482" transform="translate(79.123)">
              <path id="Path_188" data-name="Path 188" d="M-478.351,211.051l-6.3,3.31a1.237,1.237,0,0,1-1.794-1.3l1.2-7.01a1.234,1.234,0,0,0-.356-1.1l-5.093-4.965a1.237,1.237,0,0,1,.686-2.11l7.039-1.023a1.238,1.238,0,0,0,.932-.677l3.148-6.379a1.237,1.237,0,0,1,2.219,0l3.148,6.379a1.239,1.239,0,0,0,.932.677l7.039,1.023a1.237,1.237,0,0,1,.686,2.11l-5.093,4.965a1.241,1.241,0,0,0-.356,1.1l1.2,7.01a1.237,1.237,0,0,1-1.8,1.3l-6.3-3.31A1.235,1.235,0,0,0-478.351,211.051Z" transform="translate(491.064 -189.107)" fill="#febd00"/>
              <path id="Path_189" data-name="Path 189" d="M-477.2,211.051l6.3,3.31a1.237,1.237,0,0,0,1.8-1.3l-.042-.244a19.813,19.813,0,0,1-5.182-2.751c-3.418-2.577-5.744-6.6-5.406-10.682a9.662,9.662,0,0,1,4.307-7.081l-1.236-2.5a1.237,1.237,0,0,0-2.219,0l-3.148,6.379a1.238,1.238,0,0,1-.932.677L-490,197.875a1.237,1.237,0,0,0-.686,2.11l5.093,4.965a1.234,1.234,0,0,1,.356,1.1l-1.2,7.01a1.237,1.237,0,0,0,1.794,1.3l6.3-3.31A1.235,1.235,0,0,1-477.2,211.051Z" transform="translate(491.064 -189.107)" fill="#ffd868"/>
            </g>
            <g id="Group_483" data-name="Group 483" transform="translate(118.684)">
              <path id="Path_190" data-name="Path 190" d="M-444.774,211.051l-6.3,3.31a1.237,1.237,0,0,1-1.8-1.3l1.2-7.01a1.241,1.241,0,0,0-.356-1.1l-5.095-4.965a1.237,1.237,0,0,1,.686-2.11l7.04-1.023a1.239,1.239,0,0,0,.932-.677l3.147-6.379a1.238,1.238,0,0,1,2.22,0l3.148,6.379a1.238,1.238,0,0,0,.931.677l7.04,1.023a1.237,1.237,0,0,1,.686,2.11l-5.093,4.965a1.234,1.234,0,0,0-.356,1.1l1.2,7.01a1.237,1.237,0,0,1-1.794,1.3l-6.3-3.31A1.238,1.238,0,0,0-444.774,211.051Z" transform="translate(457.487 -189.107)" fill="#febd00"/>
              <path id="Path_191" data-name="Path 191" d="M-443.622,211.051l6.3,3.31a1.237,1.237,0,0,0,1.794-1.3l-.041-.244a19.839,19.839,0,0,1-5.183-2.751c-3.417-2.577-5.744-6.6-5.406-10.682a9.669,9.669,0,0,1,4.308-7.081l-1.235-2.5a1.238,1.238,0,0,0-2.22,0l-3.147,6.379a1.239,1.239,0,0,1-.932.677l-7.04,1.023a1.237,1.237,0,0,0-.686,2.11l5.095,4.965a1.241,1.241,0,0,1,.356,1.1l-1.2,7.01a1.237,1.237,0,0,0,1.8,1.3l6.3-3.31A1.238,1.238,0,0,1-443.622,211.051Z" transform="translate(457.487 -189.107)" fill="#ffd868"/>
            </g>
            <g id="Group_484" data-name="Group 484" transform="translate(158.246)">
              <path id="Path_192" data-name="Path 192" d="M-411.2,211.051l-6.3,3.31a1.238,1.238,0,0,1-1.8-1.3l1.2-7.01a1.241,1.241,0,0,0-.356-1.1l-5.093-4.965a1.237,1.237,0,0,1,.686-2.11l7.039-1.023a1.24,1.24,0,0,0,.932-.677l3.148-6.379a1.237,1.237,0,0,1,2.219,0l3.148,6.379a1.24,1.24,0,0,0,.932.677l7.039,1.023a1.237,1.237,0,0,1,.686,2.11l-5.093,4.965a1.241,1.241,0,0,0-.356,1.1l1.2,7.01a1.238,1.238,0,0,1-1.8,1.3l-6.3-3.31A1.235,1.235,0,0,0-411.2,211.051Z" transform="translate(423.909 -189.107)" fill="#febd00"/>
              <path id="Path_193" data-name="Path 193" d="M-410.045,211.051l6.3,3.31a1.238,1.238,0,0,0,1.8-1.3l-.042-.244a19.812,19.812,0,0,1-5.182-2.751c-3.418-2.577-5.745-6.6-5.406-10.682a9.664,9.664,0,0,1,4.306-7.081l-1.235-2.5a1.237,1.237,0,0,0-2.219,0l-3.148,6.379a1.24,1.24,0,0,1-.932.677l-7.039,1.023a1.237,1.237,0,0,0-.686,2.11l5.093,4.965a1.241,1.241,0,0,1,.356,1.1l-1.2,7.01a1.238,1.238,0,0,0,1.8,1.3l6.3-3.31A1.235,1.235,0,0,1-410.045,211.051Z" transform="translate(423.909 -189.107)" fill="#ffd868"/>
            </g>
          </g>
        </g>
      </g>
      <g id="Group_516" data-name="Group 516" transform="translate(0)">
        <g id="Group_490" data-name="Group 490" transform="translate(32.089 63.712)">
          <g id="Group_488" data-name="Group 488" transform="translate(0 92.864)">
            <path id="Path_194" data-name="Path 194" d="M-587.555,282.154l-10.088,5.3a1.983,1.983,0,0,1-2.877-2.09l1.926-11.233a1.982,1.982,0,0,0-.57-1.756l-8.162-7.955a1.983,1.983,0,0,1,1.1-3.381l11.279-1.64a1.979,1.979,0,0,0,1.493-1.084l5.044-10.221a1.983,1.983,0,0,1,3.556,0l5.044,10.221a1.981,1.981,0,0,0,1.493,1.084l11.28,1.64a1.982,1.982,0,0,1,1.1,3.381l-8.162,7.955a1.982,1.982,0,0,0-.57,1.756l1.926,11.233a1.982,1.982,0,0,1-2.876,2.09l-10.089-5.3A1.987,1.987,0,0,0-587.555,282.154Z" transform="translate(607.925 -246.993)" fill="#febd00"/>
            <path id="Path_195" data-name="Path 195" d="M-585.71,282.154l10.089,5.3a1.982,1.982,0,0,0,2.876-2.09l-.067-.391a31.714,31.714,0,0,1-8.3-4.408c-5.476-4.128-9.2-10.574-8.662-17.115a15.488,15.488,0,0,1,6.9-11.347l-1.979-4.009a1.983,1.983,0,0,0-3.556,0l-5.044,10.221a1.979,1.979,0,0,1-1.493,1.084l-11.279,1.64a1.983,1.983,0,0,0-1.1,3.381l8.162,7.955a1.982,1.982,0,0,1,.57,1.756l-1.926,11.233a1.983,1.983,0,0,0,2.877,2.09l10.088-5.3A1.987,1.987,0,0,1-585.71,282.154Z" transform="translate(607.925 -246.993)" fill="#ffd868"/>
          </g>
          <g id="Group_489" data-name="Group 489" transform="translate(251.535)">
            <path id="Path_196" data-name="Path 196" d="M-374.067,203.337l-10.088,5.3a1.983,1.983,0,0,1-2.877-2.09l1.928-11.234a1.985,1.985,0,0,0-.57-1.754l-8.163-7.957a1.983,1.983,0,0,1,1.1-3.381l11.279-1.639a1.985,1.985,0,0,0,1.493-1.084l5.044-10.221a1.982,1.982,0,0,1,3.556,0l5.045,10.221a1.983,1.983,0,0,0,1.493,1.084l11.279,1.639a1.982,1.982,0,0,1,1.1,3.381l-8.161,7.957a1.981,1.981,0,0,0-.57,1.754l1.926,11.234a1.983,1.983,0,0,1-2.876,2.09l-10.089-5.3A1.981,1.981,0,0,0-374.067,203.337Z" transform="translate(394.438 -168.176)" fill="#febd00"/>
            <path id="Path_197" data-name="Path 197" d="M-372.222,203.337l10.089,5.3a1.983,1.983,0,0,0,2.876-2.09l-.066-.391a31.709,31.709,0,0,1-8.3-4.409c-5.476-4.127-9.2-10.574-8.662-17.115a15.486,15.486,0,0,1,6.9-11.346l-1.979-4.009a1.982,1.982,0,0,0-3.556,0l-5.044,10.221a1.982,1.982,0,0,1-1.493,1.084l-11.279,1.639a1.983,1.983,0,0,0-1.1,3.381l8.163,7.957a1.985,1.985,0,0,1,.57,1.754l-1.928,11.234a1.983,1.983,0,0,0,2.877,2.09l10.088-5.3A1.981,1.981,0,0,1-372.222,203.337Z" transform="translate(394.438 -168.176)" fill="#ffd868"/>
          </g>
        </g>
        <g id="Group_515" data-name="Group 515">
          <g id="Group_509" data-name="Group 509" transform="translate(0 15.123)">
            <g id="Group_498" data-name="Group 498" transform="translate(262.064 119.682)">
              <g id="Group_492" data-name="Group 492">
                <g id="Group_491" data-name="Group 491">
                  <circle id="Ellipse_18" data-name="Ellipse 18" cx="42.852" cy="42.852" r="42.852" fill="#ffd868"/>
                </g>
              </g>
              <path id="Path_198" data-name="Path 198" d="M-369.883,314.22a42.638,42.638,0,0,0,23.125-6.783,58.808,58.808,0,0,1-20.223-7.875c-9.984-6.467-17.506-17.7-16.9-29.584.6-11.786,9-22.079,19.2-28a68.924,68.924,0,0,1,17.61-6.882,42.634,42.634,0,0,0-22.813-6.584,42.852,42.852,0,0,0-42.852,42.853A42.851,42.851,0,0,0-369.883,314.22Z" transform="translate(412.735 -228.516)" fill="#febd00"/>
              <g id="Group_494" data-name="Group 494" transform="translate(8.605 8.605)">
                <g id="Group_493" data-name="Group 493">
                  <circle id="Ellipse_19" data-name="Ellipse 19" cx="34.247" cy="34.247" r="34.247" fill="#f8e9ff"/>
                </g>
              </g>
              <path id="Path_199" data-name="Path 199" d="M-365.982,240.68a56.646,56.646,0,0,1,5.961-2.989,34.152,34.152,0,0,0-11.164-1.872,34.248,34.248,0,0,0-34.247,34.248,34.248,34.248,0,0,0,34.247,34.247,34.177,34.177,0,0,0,11.021-1.823,50.386,50.386,0,0,1-8.119-4.231c-9.984-6.467-17.506-17.7-16.9-29.584C-384.591,256.891-376.19,246.6-365.982,240.68Z" transform="translate(414.037 -227.214)" fill="#ffecb7"/>
              <g id="Group_496" data-name="Group 496" transform="translate(28.089 28.727)">
                <path id="Path_200" data-name="Path 200" d="M-366.068,261.2c1.768,0,3.2-1.859,3.2-4.151s-1.434-4.152-3.2-4.152-3.2,1.859-3.2,4.152S-367.836,261.2-366.068,261.2Z" transform="translate(392.392 -252.898)" fill="#2d2d2d"/>
                <g id="Group_495" data-name="Group 495">
                  <path id="Path_201" data-name="Path 201" d="M-388.557,255.2c-.012.029-.022.06-.034.091-.028.078-.054.157-.079.237-.014.047-.027.094-.04.143-.019.07-.038.138-.054.209s-.026.128-.038.192-.024.12-.033.181c-.012.081-.02.164-.029.246,0,.048-.012.1-.015.146-.009.133-.015.267-.015.405a5.16,5.16,0,0,0,.033.561c0,.046.009.092.015.137a5.135,5.135,0,0,0,.094.53v0a4.96,4.96,0,0,0,.154.507c.013.038.026.074.04.111a4.44,4.44,0,0,0,.467.9c.017.026.034.051.052.075a3.608,3.608,0,0,0,.65.7l.058.046a2.666,2.666,0,0,0,1.639.589c1.769,0,3.2-1.859,3.2-4.151s-1.434-4.152-3.2-4.152a3.144,3.144,0,0,0-2.738,2.005l-.014.031C-388.485,255.021-388.522,255.109-388.557,255.2Z" transform="translate(388.895 -252.898)" fill="#613a99"/>
                  <path id="Path_202" data-name="Path 202" d="M-388.847,257.748a5.135,5.135,0,0,0,.094.53v0a4.96,4.96,0,0,0,.154.507c.013.038.026.074.04.111a4.44,4.44,0,0,0,.467.9c.017.026.034.051.052.075a3.608,3.608,0,0,0,.65.7l0,0a30.546,30.546,0,0,1,2.878-7.373,2.572,2.572,0,0,0-1.185-.3,3.144,3.144,0,0,0-2.738,2.005l-.014.031c-.04.087-.077.176-.112.266-.012.029-.022.06-.034.091-.028.078-.054.157-.079.237-.014.047-.027.094-.04.143-.019.07-.038.138-.054.209s-.026.128-.038.192-.024.12-.033.181c-.012.081-.02.164-.029.246,0,.048-.012.1-.015.146-.009.133-.015.267-.015.405a5.16,5.16,0,0,0,.033.561C-388.857,257.657-388.853,257.7-388.847,257.748Z" transform="translate(388.895 -252.898)" fill="#2d2d2d"/>
                </g>
              </g>
              <g id="Group_497" data-name="Group 497" transform="translate(27.415 49.88)">
                <path id="Path_203" data-name="Path 203" d="M-388.4,270.851a1.054,1.054,0,0,0-1.029,1.31,15.958,15.958,0,0,0,15.4,11.908,15.96,15.96,0,0,0,15.4-11.908,1.055,1.055,0,0,0-1.029-1.31Z" transform="translate(389.467 -270.851)" fill="#2d2d2d"/>
                <path id="Path_204" data-name="Path 204" d="M-381.642,282.123a33.694,33.694,0,0,1-5.485-11.272H-388.4a1.054,1.054,0,0,0-1.029,1.31A16.05,16.05,0,0,0-381.642,282.123Z" transform="translate(389.467 -270.851)" fill="#523187"/>
              </g>
            </g>
            <g id="Group_508" data-name="Group 508">
              <g id="Group_501" data-name="Group 501">
                <g id="Group_500" data-name="Group 500">
                  <g id="Group_499" data-name="Group 499">
                    <circle id="Ellipse_20" data-name="Ellipse 20" cx="42.852" cy="42.852" r="42.852" transform="translate(0 83.412) rotate(-76.717)" fill="#ffd868"/>
                  </g>
                </g>
                <path id="Path_205" data-name="Path 205" d="M-584.924,220.024a42.637,42.637,0,0,0,23.124-6.783,58.839,58.839,0,0,1-20.223-7.875c-9.984-6.467-17.5-17.7-16.9-29.585.6-11.786,9-22.077,19.206-28a68.985,68.985,0,0,1,17.608-6.882,42.639,42.639,0,0,0-22.811-6.583,42.851,42.851,0,0,0-42.853,42.852A42.852,42.852,0,0,0-584.924,220.024Z" transform="translate(636.476 -125.621)" fill="#febd00"/>
              </g>
              <g id="Group_504" data-name="Group 504" transform="translate(10.352 10.352)">
                <g id="Group_503" data-name="Group 503">
                  <g id="Group_502" data-name="Group 502">
                    <circle id="Ellipse_21" data-name="Ellipse 21" cx="34.247" cy="34.247" r="34.247" transform="translate(0 66.663) rotate(-76.717)" fill="#f8e9ff"/>
                  </g>
                </g>
                <path id="Path_206" data-name="Path 206" d="M-581.023,146.483a56.872,56.872,0,0,1,5.961-2.989,34.193,34.193,0,0,0-11.164-1.871,34.248,34.248,0,0,0-34.248,34.247,34.248,34.248,0,0,0,34.248,34.248A34.22,34.22,0,0,0-575.2,208.3a50.4,50.4,0,0,1-8.12-4.231c-9.984-6.467-17.5-17.7-16.9-29.585C-599.633,162.694-591.232,152.4-581.023,146.483Z" transform="translate(627.426 -134.671)" fill="#feebb4"/>
              </g>
              <g id="Group_507" data-name="Group 507" transform="translate(29.938 35.756)">
                <g id="Group_506" data-name="Group 506">
                  <g id="Group_505" data-name="Group 505">
                    <path id="Path_207" data-name="Path 207" d="M-598.124,188.875h-.09a3.114,3.114,0,0,1-2.233-1.039l-8.515-9.547a3.11,3.11,0,0,1,.251-4.391,3.11,3.11,0,0,1,4.392.251l6.322,7.088,23.041-23.041a3.111,3.111,0,0,1,4.4,0,3.111,3.111,0,0,1,0,4.4l-25.37,25.37A3.113,3.113,0,0,1-598.124,188.875Z" transform="translate(609.751 -157.284)" fill="#2d2d2d"/>
                  </g>
                </g>
                <path id="Path_208" data-name="Path 208" d="M-600.447,185.442a3.114,3.114,0,0,0,2.233,1.039h.09a3.152,3.152,0,0,0,.649-.071,31.552,31.552,0,0,1-4.418-11.939l-2.425-2.718a3.11,3.11,0,0,0-4.392-.251,3.11,3.11,0,0,0-.251,4.391Z" transform="translate(609.751 -154.89)" fill="#212529"/>
              </g>
            </g>
          </g>
          <g id="Group_514" data-name="Group 514" transform="translate(145.476)">
            <path id="Path_209" data-name="Path 209" d="M-447.126,114.1h-44.255a20.307,20.307,0,0,0-20.308,20.308h0a20.307,20.307,0,0,0,20.308,20.308h13.236a2.1,2.1,0,0,1,.848.178l23.261,10.183a2.644,2.644,0,0,0,3.7-2.422v-5.824a2.116,2.116,0,0,1,2.116-2.115h1.089a20.308,20.308,0,0,0,20.308-20.308h0A20.308,20.308,0,0,0-447.126,114.1Z" transform="translate(511.689 -114.101)" fill="#f3f3f3"/>
            <path id="Path_210" data-name="Path 210" d="M-463.095,152.954c-6.867-3.009-13.095-7.9-16.632-14.514s-4.053-15.03-.344-21.546a16.216,16.216,0,0,1,2.015-2.792h-13.326a20.307,20.307,0,0,0-20.308,20.308h0a20.307,20.307,0,0,0,20.308,20.308h13.236a2.1,2.1,0,0,1,.848.178l23.261,10.183a2.644,2.644,0,0,0,3.7-2.422v-5.824c0-.042.011-.082.013-.125A57.03,57.03,0,0,1-463.095,152.954Z" transform="translate(511.689 -114.101)" fill="#fff"/>
            <g id="Group_513" data-name="Group 513" transform="translate(16.084 12.556)">
              <g id="Group_512" data-name="Group 512">
                <g id="Group_510" data-name="Group 510">
                  <path id="Path_211" data-name="Path 211" d="M-447.635,129.357h-48.1a2.3,2.3,0,0,1-2.3-2.3h0a2.3,2.3,0,0,1,2.3-2.3h48.1a2.3,2.3,0,0,1,2.3,2.3h0A2.3,2.3,0,0,1-447.635,129.357Z" transform="translate(498.038 -124.758)" fill="#febd00"/>
                  <path id="Path_212" data-name="Path 212" d="M-485.047,124.758h-10.692a2.3,2.3,0,0,0-2.3,2.3,2.3,2.3,0,0,0,2.3,2.3h11.085A23.77,23.77,0,0,1-485.047,124.758Z" transform="translate(498.038 -124.758)" fill="#ffd868"/>
                </g>
                <g id="Group_511" data-name="Group 511" transform="translate(0 10.904)">
                  <path id="Path_213" data-name="Path 213" d="M-447.635,138.612h-48.1a2.3,2.3,0,0,1-2.3-2.3h0a2.3,2.3,0,0,1,2.3-2.3h48.1a2.3,2.3,0,0,1,2.3,2.3h0A2.3,2.3,0,0,1-447.635,138.612Z" transform="translate(498.038 -134.013)" fill="#febd00"/>
                  <path id="Path_214" data-name="Path 214" d="M-498.038,136.312a2.3,2.3,0,0,0,2.3,2.3h15.986a27.448,27.448,0,0,1-2.406-3.721c-.154-.289-.3-.583-.437-.878h-13.143A2.3,2.3,0,0,0-498.038,136.312Z" transform="translate(498.038 -134.013)" fill="#ffd868"/>
                </g>
              </g>
            </g>
          </g>
        </g>
      </g>
    </g>
    <g id="Group_521" data-name="Group 521" transform="translate(-635.812 125.258)">
      <g id="Group_519" data-name="Group 519" transform="translate(36.678 25.09)">
        <g id="Group_518" data-name="Group 518">
          <path id="Path_215" data-name="Path 215" d="M-407.44,148.006h-3.141v-3.141H-412.5v3.141h-3.141v1.915h3.141v3.141h1.915v-3.141h3.141Z" transform="translate(638.372 -144.865)" fill="#febd00"/>
          <path id="Path_216" data-name="Path 216" d="M-596.484,218.579h-3.141v-3.141h-1.915v3.141h-3.141v1.915h3.141v3.141h1.915v-3.141h3.141Z" transform="translate(604.681 -132.288)" fill="#febd00"/>
          <path id="Path_217" data-name="Path 217" d="M-519.343,311.853h-3.141v-3.141H-524.4v3.141h-3.141v1.915h3.141v3.141h1.915v-3.141h3.141Z" transform="translate(618.429 -115.665)" fill="#febd00"/>
          <path id="Path_218" data-name="Path 218" d="M-324.229,226.3h-3.141V223.16h-1.915V226.3h-3.141v1.915h3.141v3.141h1.915v-3.141h3.141Z" transform="translate(653.201 -130.912)" fill="#febd00"/>
        </g>
      </g>
      <g id="Group_520" data-name="Group 520">
        <path id="Path_219" data-name="Path 219" d="M-536.041,130.911a1.45,1.45,0,0,0,0,2.9A1.449,1.449,0,0,0-536.041,130.911Z" transform="translate(653.343 -122.262)" fill="none" stroke="#efc04d" stroke-miterlimit="10" stroke-width="0.738"/>
        <path id="Path_220" data-name="Path 220" d="M-634.412,250.817a1.449,1.449,0,0,0,0,2.9A1.449,1.449,0,0,0-634.412,250.817Z" transform="translate(635.812 -100.893)" fill="none" stroke="#efc04d" stroke-miterlimit="10" stroke-width="0.738"/>
        <path id="Path_221" data-name="Path 221" d="M-455.288,316.4a1.449,1.449,0,0,0,0,2.9A1.449,1.449,0,0,0-455.288,316.4Z" transform="translate(667.734 -89.205)" fill="none" stroke="#efc04d" stroke-miterlimit="10" stroke-width="0.738"/>
        <path id="Path_222" data-name="Path 222" d="M-328.53,282.629a1.449,1.449,0,0,0,0,2.9A1.449,1.449,0,0,0-328.53,282.629Z" transform="translate(690.324 -95.223)" fill="none" stroke="#efc04d" stroke-miterlimit="10" stroke-width="0.738"/>
        <path id="Path_223" data-name="Path 223" d="M-361.81,123.57a1.449,1.449,0,0,0,0,2.9A1.449,1.449,0,0,0-361.81,123.57Z" transform="translate(684.393 -123.57)" fill="none" stroke="#efc04d" stroke-miterlimit="10" stroke-width="0.738"/>
      </g>
    </g>
  </g>
</svg>
