<svg xmlns="http://www.w3.org/2000/svg" width="408.585" height="495.812" viewBox="0 0 408.585 495.812">
  <g id="call-back" transform="translate(-145.703 -32.169)">
    <path id="Path_1" data-name="Path 1" d="M245.28,232.57l25.7-7.895a41.547,41.547,0,0,0,29.23-41.1l-3.977-111.44v0A41.493,41.493,0,0,0,242.592,34L203.838,45.869c-31.7,9.742-51.91,45.414-56.9,100.41-4.535,49.672,3.473,110.99,22.4,172.65s46.871,116.87,78.4,155.4v0a172.147,172.147,0,0,0,50.4,43.848,76.564,76.564,0,0,0,35.785,9.8,58.8,58.8,0,0,0,17.359-2.633l38.754-11.93h0a41.492,41.492,0,0,0,22.907-61.6L353.75,357.348a41.551,41.551,0,0,0-47.32-17.528l-25.762,7.895a2.739,2.739,0,0,1-3.359-1.512A547.329,547.329,0,0,1,243.6,235.713a2.745,2.745,0,0,1,1.68-3.137ZM221.2,239.965a567.894,567.894,0,0,0,35.449,115.024,25.089,25.089,0,0,0,30.52,14.055l25.762-7.895a19.1,19.1,0,0,1,21.727,8.062l59.359,94.359A19.1,19.1,0,0,1,383.6,492.02L344.847,504a46.975,46.975,0,0,1-36.121-5.6,150.5,150.5,0,0,1-43.512-38.246c-29.848-36.344-56.281-88.816-74.426-147.79s-25.59-117.26-21.5-164.08c4.031-44.8,19.1-74.2,41.16-81.031l38.75-11.93A19.1,19.1,0,0,1,273.893,72.8l3.977,111.44v0a19.092,19.092,0,0,1-13.437,18.93l-25.7,7.895h0a25.154,25.154,0,0,0-17.527,28.9Z"/>
    <path id="Path_2" data-name="Path 2" d="M440.55,74.535A11.2,11.2,0,0,0,424.7,74.2l-71.625,68.824a11.2,11.2,0,0,0,0,16.129L424.7,228.031A11.2,11.2,0,1,0,440.214,211.9l-52.246-50.4h99.121a44.8,44.8,0,0,1,44.8,44.8v128.52a11.2,11.2,0,0,0,22.4,0V206.475a67.2,67.2,0,0,0-67.2-67.2H389.2l50.9-48.887,0,0a11.2,11.2,0,0,0,.445-15.848Z"/>
  </g>
</svg>
