<?xml version="1.0" encoding="utf-8"?>
<!-- Generator: Adobe Illustrator 25.4.0, SVG Export Plug-In . SVG Version: 6.00 Build 0)  -->
<svg version="1.1" id="Layer_1" xmlns="http://www.w3.org/2000/svg" xmlns:xlink="http://www.w3.org/1999/xlink" x="0px" y="0px"
	 viewBox="0 0 259.1 27.8" style="enable-background:new 0 0 259.1 27.8;" xml:space="preserve">
<style type="text/css">
	.st0{stroke:#000000;stroke-width:0.25;stroke-miterlimit:10;}
	.st1{fill-rule:evenodd;clip-rule:evenodd;fill:#005A9B;}
	.st2{fill:#FFFFFF;}
	.st3{fill-rule:evenodd;clip-rule:evenodd;fill:#4D4D4D;}
	.st4{fill-rule:evenodd;clip-rule:evenodd;fill:#FFFFFF;}
	.st5{fill-rule:evenodd;clip-rule:evenodd;fill:#F47216;}
	.st6{fill:#FF5F00;}
	.st7{fill:#EB001B;}
	.st8{fill:#F79E1B;}
	.st9{fill-rule:evenodd;clip-rule:evenodd;fill:#EFEFEF;}
	.st10{fill-rule:evenodd;clip-rule:evenodd;fill:#FAA929;}
</style>
<g>
	<g>
		<path class="st0" d="M9.7,10.3c0-0.2,0.1-0.4,0.2-0.6c0.1-0.2,0.2-0.2,0.4-0.2s0.3,0.1,0.4,0.2c0.1,0.1,0.1,0.2,0.1,0.3
			s0,0.2,0,0.3s0,0.2-0.1,0.2l-1.9,7.2c0,0.1-0.1,0.3-0.1,0.4s-0.1,0.2-0.1,0.3c-0.1,0.1-0.1,0.2-0.2,0.2s-0.2,0.1-0.3,0.1
			c-0.1,0-0.3,0-0.3-0.1c-0.1,0-0.2-0.1-0.2-0.2c-0.1-0.1-0.1-0.2-0.2-0.3c0-0.1-0.1-0.3-0.1-0.4L5.5,11l-1.8,6.7
			c0,0.2-0.1,0.3-0.1,0.4s-0.1,0.2-0.1,0.3c-0.1,0.1-0.1,0.2-0.2,0.2S3.1,18.7,3,18.7s-0.3,0-0.3-0.1c-0.1,0-0.2-0.1-0.2-0.2
			c-0.1-0.1-0.1-0.2-0.1-0.3S2,17.9,2,17.7l-1.9-7.2c0,0,0-0.1-0.1-0.2s0-0.2,0-0.3s0-0.2,0.1-0.3s0.2-0.2,0.4-0.2S0.9,9.6,1,9.7
			c0.1,0.2,0.1,0.4,0.2,0.6l1.6,6.6l1.7-6.3c0-0.2,0.1-0.3,0.1-0.4c0-0.1,0.1-0.2,0.1-0.3s0.1-0.1,0.2-0.2s0.2-0.1,0.4-0.1
			c0.2,0,0.3,0,0.4,0.1c0.1,0,0.2,0.1,0.3,0.2s0.1,0.2,0.2,0.3c0,0.1,0.1,0.3,0.1,0.4L8,16.9L9.7,10.3z"/>
		<path class="st0" d="M13.4,13.5h3.8c0.1,0,0.2,0,0.3,0c0.1,0,0.2,0,0.3,0c0.1,0,0.1,0.1,0.2,0.1c0.1,0.1,0.1,0.2,0.1,0.3
			s0,0.2-0.1,0.3c0,0.1-0.1,0.1-0.2,0.1s-0.2,0.1-0.3,0.1s-0.2,0-0.3,0h-3.8v3.2h4.3c0.1,0,0.2,0,0.3,0s0.2,0,0.3,0
			c0.1,0,0.2,0.1,0.2,0.1s0.1,0.2,0.1,0.3s0,0.2-0.1,0.3c0,0.1-0.1,0.1-0.2,0.1s-0.2,0-0.3,0.1c-0.1,0-0.2,0-0.3,0h-4.5
			c-0.1,0-0.2,0-0.3,0s-0.2,0-0.2,0c-0.1,0-0.1,0-0.1-0.1l-0.1-0.1c-0.1-0.1-0.1-0.2-0.2-0.3c0-0.1,0-0.3,0-0.5v-7
			c0-0.2,0-0.4,0-0.5s0.1-0.2,0.1-0.3c0.1-0.1,0.2-0.1,0.3-0.2c0.1,0,0.3,0,0.6,0h4.4c0.1,0,0.2,0,0.3,0c0.1,0,0.2,0,0.3,0
			c0.1,0,0.1,0.1,0.2,0.1c0,0.1,0.1,0.2,0.1,0.3s0,0.2-0.1,0.3s-0.1,0.1-0.2,0.1s-0.2,0-0.3,0c-0.1,0-0.2,0-0.3,0h-4.2L13.4,13.5
			L13.4,13.5z"/>
		<path class="st0" d="M24.8,16L24,18c-0.1,0.2-0.2,0.4-0.3,0.6s-0.2,0.2-0.4,0.2c-0.2,0-0.3-0.1-0.4-0.2s-0.2-0.2-0.2-0.4
			c0-0.1,0-0.2,0-0.3c0-0.1,0.1-0.2,0.1-0.3l2.8-7c0.1-0.2,0.1-0.3,0.2-0.5c0.1-0.1,0.1-0.2,0.2-0.3s0.2-0.2,0.2-0.2
			c0.1,0,0.2-0.1,0.4-0.1c0.1,0,0.2,0,0.3,0.1c0.1,0,0.2,0.1,0.3,0.2c0.1,0.1,0.1,0.2,0.2,0.3c0.1,0.2,0.1,0.3,0.2,0.5l2.9,7
			c0.1,0.2,0.1,0.3,0.1,0.4s0,0.2,0,0.3c0,0.1-0.1,0.2-0.2,0.4c-0.1,0.1-0.3,0.2-0.4,0.2c-0.2,0-0.4-0.1-0.4-0.2s-0.2-0.3-0.3-0.6
			l-0.8-2h-3.7V16z M28.5,15l-1.7-4.2L25.2,15H28.5z"/>
		<path class="st0" d="M39.1,16.6c-0.1,0.3-0.3,0.7-0.6,1s-0.6,0.6-1.1,0.8c-0.5,0.2-1,0.4-1.6,0.4c-0.2,0-0.5,0-0.8-0.1
			c-0.3,0-0.5-0.1-0.8-0.2s-0.5-0.2-0.8-0.3s-0.5-0.3-0.7-0.5c-0.4-0.4-0.7-1-0.9-1.6c-0.2-0.6-0.3-1.3-0.3-2c0-0.7,0.1-1.3,0.3-1.9
			c0.2-0.6,0.5-1.1,0.9-1.5S33.5,10,34,9.8s1.1-0.3,1.7-0.3c0.4,0,0.8,0.1,1.2,0.2c0.3,0.1,0.6,0.2,0.9,0.4c0.3,0.2,0.5,0.3,0.7,0.5
			s0.3,0.4,0.4,0.6s0.2,0.4,0.2,0.5s0.1,0.3,0.1,0.3c0,0.1,0,0.2-0.1,0.3s-0.2,0.2-0.4,0.2c-0.1,0-0.2,0-0.2-0.1s-0.1-0.1-0.2-0.2
			c-0.1-0.1-0.1-0.2-0.2-0.2C38,11.9,38,11.8,38,11.7c-0.1-0.2-0.3-0.4-0.4-0.6c-0.2-0.2-0.3-0.3-0.5-0.4c-0.1-0.1-0.3-0.2-0.5-0.2
			c-0.2-0.1-0.5-0.1-0.8-0.1s-0.7,0.1-1,0.2c-0.4,0.1-0.7,0.3-1,0.6s-0.5,0.7-0.7,1.1c-0.2,0.5-0.3,1.1-0.3,1.8s0.1,1.3,0.3,1.8
			c0.2,0.5,0.4,0.8,0.7,1.1c0.3,0.3,0.6,0.5,0.9,0.6c0.3,0.1,0.7,0.2,1,0.2c0.6,0,1.2-0.2,1.6-0.5c0.4-0.3,0.8-0.8,1-1.5
			c0-0.1,0.1-0.2,0.2-0.3c0.1-0.1,0.2-0.2,0.4-0.2c0.1,0,0.2,0,0.3,0.1s0.2,0.2,0.2,0.4C39.2,16,39.2,16.2,39.1,16.6z"/>
		<path class="st0" d="M48.2,16.6c-0.1,0.3-0.3,0.7-0.6,1s-0.6,0.6-1.1,0.8c-0.5,0.2-1,0.4-1.6,0.4c-0.2,0-0.5,0-0.8-0.1
			c-0.3,0-0.5-0.1-0.8-0.2s-0.5-0.2-0.8-0.3s-0.5-0.3-0.7-0.5c-0.4-0.4-0.7-1-0.9-1.6c-0.2-0.6-0.3-1.3-0.3-2c0-0.7,0.1-1.3,0.3-1.9
			c0.2-0.6,0.5-1.1,0.9-1.5s0.8-0.7,1.3-0.9s1.1-0.3,1.7-0.3c0.4,0,0.8,0.1,1.2,0.2c0.3,0.1,0.6,0.2,0.9,0.4
			c0.3,0.2,0.5,0.3,0.7,0.5s0.3,0.4,0.4,0.6s0.2,0.4,0.2,0.5s0.1,0.3,0.1,0.3c0,0.1,0,0.2-0.1,0.3s-0.2,0.2-0.4,0.2
			c-0.1,0-0.2,0-0.2-0.1s-0.1-0.1-0.2-0.2c-0.1-0.1-0.1-0.2-0.2-0.2c-0.1-0.1-0.1-0.2-0.1-0.3c-0.1-0.2-0.3-0.4-0.4-0.6
			c-0.2-0.2-0.3-0.3-0.5-0.4c-0.1-0.1-0.3-0.2-0.5-0.2c-0.2-0.1-0.5-0.1-0.8-0.1s-0.7,0.1-1,0.2c-0.4,0.1-0.7,0.3-1,0.6
			s-0.5,0.7-0.7,1.1c-0.2,0.5-0.3,1.1-0.3,1.8s0.1,1.3,0.3,1.8c0.2,0.5,0.4,0.8,0.7,1.1c0.3,0.3,0.6,0.5,0.9,0.6
			c0.3,0.1,0.7,0.2,1,0.2c0.6,0,1.2-0.2,1.6-0.5c0.4-0.3,0.8-0.8,1-1.5c0-0.1,0.1-0.2,0.2-0.3c0.1-0.1,0.2-0.2,0.4-0.2
			c0.1,0,0.2,0,0.3,0.1s0.2,0.2,0.2,0.4C48.4,16,48.3,16.2,48.2,16.6z"/>
		<path class="st0" d="M51.3,13.5h3.8c0.1,0,0.2,0,0.3,0s0.2,0,0.3,0s0.1,0.1,0.2,0.1c0.1,0.1,0.1,0.2,0.1,0.3s0,0.2-0.1,0.3
			c0,0.1-0.1,0.1-0.2,0.1c-0.1,0-0.2,0.1-0.3,0.1s-0.2,0-0.3,0h-3.8v3.2h4.3c0.1,0,0.2,0,0.3,0s0.2,0,0.3,0s0.2,0.1,0.2,0.1
			s0.1,0.2,0.1,0.3s0,0.2-0.1,0.3c0,0.1-0.1,0.1-0.2,0.1c-0.1,0-0.2,0-0.3,0.1c-0.1,0-0.2,0-0.3,0h-4.5c-0.1,0-0.2,0-0.3,0
			s-0.2,0-0.2,0c-0.1,0-0.1,0-0.1-0.1l-0.1-0.1c-0.1-0.1-0.1-0.2-0.2-0.3c0-0.1,0-0.3,0-0.5v-7c0-0.2,0-0.4,0-0.5s0.1-0.2,0.1-0.3
			c0.1-0.1,0.2-0.1,0.3-0.2c0.1,0,0.3,0,0.6,0h4.4c0.1,0,0.2,0,0.3,0s0.2,0,0.3,0s0.1,0.1,0.2,0.1c0,0.1,0.1,0.2,0.1,0.3
			s0,0.2-0.1,0.3s-0.1,0.1-0.2,0.1c-0.1,0-0.2,0-0.3,0s-0.2,0-0.3,0h-4.2L51.3,13.5L51.3,13.5z"/>
		<path class="st0" d="M59.3,17.7c0,0.1,0,0.3,0,0.4s0,0.2-0.1,0.3c0,0.1-0.1,0.1-0.2,0.2c-0.1,0.1-0.2,0.1-0.3,0.1
			c-0.2,0-0.3-0.1-0.5-0.2c-0.1-0.1-0.1-0.2-0.1-0.3c0-0.1,0-0.3,0-0.5v-7.1c0-0.2,0-0.4,0-0.6c0-0.1,0.1-0.2,0.2-0.3
			c0.1-0.1,0.2-0.1,0.3-0.1s0.3,0,0.6,0h2.1c0.4,0,0.7,0,1.1,0.1c0.4,0.1,0.7,0.2,1,0.4s0.5,0.5,0.7,0.9c0.2,0.4,0.2,0.8,0.2,1.2
			c0,0.2,0,0.4-0.1,0.6c0,0.2-0.1,0.4-0.2,0.6c-0.1,0.2-0.2,0.4-0.4,0.6s-0.3,0.3-0.5,0.4c-0.1,0-0.1,0.1-0.2,0.1s-0.2,0.1-0.4,0.1
			s-0.3,0.1-0.5,0.1s-0.4,0-0.7,0h-2C59.3,14.7,59.3,17.7,59.3,17.7z M59.3,10.6v3.3H61c0.2,0,0.4,0,0.6,0c0.2,0,0.5-0.1,0.7-0.2
			c0.2-0.1,0.4-0.3,0.6-0.5c0.2-0.2,0.2-0.5,0.2-0.9c0-0.2,0-0.4-0.1-0.6c-0.1-0.2-0.2-0.4-0.3-0.6c-0.1-0.1-0.2-0.2-0.4-0.3
			s-0.3-0.1-0.4-0.1s-0.3-0.1-0.5-0.1s-0.3,0-0.4,0C61,10.6,59.3,10.6,59.3,10.6z"/>
		<path class="st0" d="M69.1,17.7c0,0.2,0,0.4,0,0.5S69,18.4,69,18.5c0,0-0.1,0.1-0.2,0.1s-0.2,0.1-0.3,0.1c-0.2,0-0.3-0.1-0.4-0.2
			c-0.1,0-0.1-0.1-0.1-0.3c0-0.1,0-0.3,0-0.5v-7.1h-2c-0.2,0-0.3,0-0.4,0s-0.2-0.1-0.3-0.1c0,0-0.1-0.1-0.1-0.2
			c0-0.1-0.1-0.1-0.1-0.2c0-0.1,0-0.1,0-0.2c0-0.1,0.1-0.1,0.1-0.2c0.1-0.1,0.2-0.1,0.3-0.1c0.1,0,0.3,0,0.4,0h5.3
			c0.2,0,0.3,0,0.4,0s0.2,0.1,0.3,0.1L72,9.8c0,0.1,0.1,0.1,0.1,0.2c0,0.1,0,0.1-0.1,0.2s-0.1,0.1-0.1,0.2c-0.1,0.1-0.2,0.1-0.3,0.1
			c-0.1,0-0.3,0-0.4,0h-2v7.2H69.1z"/>
	</g>
	<g>
		<path class="st1" d="M177.5,2.7c-1.4,0-2.5,1.1-2.5,2.5v17.9c0,1.4,1.1,2.5,2.5,2.5h30.6c1.4,0,2.5-1.1,2.5-2.5V5.2
			c0-1.4-1.1-2.5-2.5-2.5H177.5z"/>
		<path class="st2" d="M183,10.9l-2.9,6.3h3.4l0.4-1h1l0.4,1h3.8v-0.7l0.4,0.7h1.9l0.4-0.8v0.8h7.8l1-1l0.9,1h4l-2.9-3.2l2.9-3.2h-4
			l-1,1l-0.9-1h-8.5l-0.7,1.6l-0.7-1.6h-3.4v0.7l-0.4-0.7C185.9,10.9,183,10.9,183,10.9z M183.7,11.8h1.7l1.9,4.3v-4.3h1.8l1.5,3.1
			l1.3-3.1h1.8v4.6h-1.1v-3.5l-1.6,3.5h-1l-1.6-3.5v3.5h-2.4l-0.4-1h-2.4l-0.4,1h-1.3C181.7,16.4,183.7,11.8,183.7,11.8z
			 M194.7,11.8h4.5l1.4,1.5l1.4-1.5h1.4l-2.1,2.3l2.1,2.3H202l-1.4-1.5l-1.4,1.5h-4.4L194.7,11.8L194.7,11.8z M184.5,12.6l-0.7,1.8
			h1.5L184.5,12.6z M195.8,12.8v0.8h2.4v1h-2.4v0.9h2.7l1.3-1.3l-1.3-1.3L195.8,12.8L195.8,12.8z"/>
	</g>
	<g>
		<path class="st3" d="M219.6,2.7c-1.4,0-2.5,1.1-2.5,2.5v17.9c0,1.4,1.1,2.5,2.5,2.5h30.6c1.4,0,2.5-1.1,2.5-2.5V5.2
			c0-1.4-1.1-2.5-2.5-2.5H219.6z"/>
		<path class="st4" d="M232.1,10.1c0.4,0,0.7,0.1,1.2,0.3v1c-0.4-0.4-0.7-0.5-1.2-0.5c-0.9,0-1.5,0.7-1.5,1.5c0,0.9,0.7,1.5,1.6,1.5
			c0.4,0,0.7-0.1,1.1-0.5v1c-0.4,0.2-0.7,0.3-1.2,0.3c-1.4,0-2.5-1-2.5-2.4C229.5,11.1,230.6,10.1,232.1,10.1L232.1,10.1z
			 M227.6,10.1c0.5,0,1,0.1,1.4,0.5l-0.5,0.6c-0.2-0.3-0.4-0.4-0.7-0.4c-0.4,0-0.7,0.2-0.7,0.5c0,0.2,0.1,0.4,0.7,0.6
			c1.1,0.4,1.4,0.7,1.4,1.4c0,0.9-0.7,1.5-1.7,1.5c-0.7,0-1.3-0.3-1.7-0.9l0.6-0.5c0.2,0.4,0.6,0.6,1,0.6c0.4,0,0.7-0.3,0.7-0.7
			c0-0.2-0.1-0.4-0.3-0.4c-0.1-0.1-0.3-0.1-0.7-0.3c-0.9-0.3-1.2-0.6-1.2-1.3C226.1,10.6,226.8,10.1,227.6,10.1z M238.3,10.1h1
			l1.3,3l1.3-3h1l-2.1,4.7h-0.5L238.3,10.1L238.3,10.1z M220.2,10.2h1.4c1.5,0,2.6,1,2.6,2.3c0,0.7-0.3,1.3-0.9,1.8
			c-0.4,0.4-1,0.5-1.7,0.5h-1.4V10.2L220.2,10.2z M224.5,10.2h1v4.6h-1V10.2z M243.4,10.2h2.6v0.7h-1.7v1h1.7v0.7h-1.7V14h1.7v0.7
			h-2.6V10.2L243.4,10.2z M246.6,10.2h1.4c1.1,0,1.7,0.5,1.7,1.3c0,0.7-0.4,1.2-1.1,1.3l1.5,1.9H249l-1.3-1.8h-0.1v1.8h-1
			L246.6,10.2L246.6,10.2z M247.6,10.9v1.4h0.3c0.6,0,0.9-0.2,0.9-0.7c0-0.4-0.3-0.7-0.9-0.7H247.6L247.6,10.9z M221.1,10.9v3h0.2
			c0.6,0,1-0.1,1.3-0.4c0.3-0.3,0.5-0.7,0.5-1.2s-0.2-0.9-0.5-1.1c-0.3-0.3-0.7-0.4-1.3-0.4H221.1L221.1,10.9z"/>
		<path class="st5" d="M236,10.1c1.4,0,2.6,1.1,2.6,2.4l0,0c0,1.3-1.2,2.4-2.6,2.4s-2.6-1.1-2.6-2.4l0,0
			C233.5,11.1,234.6,10.1,236,10.1L236,10.1z M252.7,15.8c-1.2,0.8-10.1,6.8-25.5,9.7h23c1.4,0,2.5-1.1,2.5-2.5V15.8L252.7,15.8z"/>
	</g>
	<g>
		<path class="st3" d="M91.4,2.7c-1.4,0-2.5,1.1-2.5,2.5v17.9c0,1.4,1.1,2.5,2.5,2.5H122c1.4,0,2.5-1.1,2.5-2.5V5.2
			c0-1.4-1.1-2.5-2.5-2.5H91.4z"/>
		<g>
			<rect x="103.5" y="8.5" class="st6" width="6.3" height="11.3"/>
			<path class="st7" d="M103.9,14.1c0-2.2,1-4.3,2.7-5.6C103.5,6,99,6.6,96.6,9.7c-2.4,3.1-1.9,7.6,1.2,10c2.6,2.1,6.3,2.1,8.8,0
				C104.9,18.4,103.9,16.3,103.9,14.1z"/>
			<path class="st8" d="M118.2,14.1c0,4-3.2,7.1-7.1,7.1c-1.6,0-3.2-0.5-4.4-1.5c3.1-2.4,3.6-6.9,1.2-10c-0.4-0.4-0.7-0.9-1.2-1.2
				c3.1-2.5,7.6-1.9,10,1.2C117.7,10.9,118.2,12.5,118.2,14.1z"/>
			<path class="st8" d="M117.6,18.5v-0.2h0.1v-0.1h-0.2v0.1h0.1L117.6,18.5L117.6,18.5z M118,18.5v-0.3h-0.1l-0.1,0.2l-0.1-0.2h-0.1
				v0.3h0.1v-0.2l0.1,0.1L118,18.5v-0.2V18.5L118,18.5z"/>
		</g>
	</g>
	<g>
		<g>
			<path class="st9" d="M135.4,2.7c-1.4,0-2.5,1.1-2.5,2.5v17.9c0,1.4,1.1,2.5,2.5,2.5h30.6c1.4,0,2.5-1.1,2.5-2.5V5.2
				c0-1.4-1.1-2.5-2.5-2.5H135.4z"/>
			<path class="st10" d="M132.9,23c0,1.3,1,2.4,2.3,2.5h31.1c1.3-0.1,2.3-1.2,2.3-2.5v-2.3h-35.6L132.9,23L132.9,23z"/>
			<path class="st1" d="M166.1,2.7h-30.6c-1.4,0-2.5,1.1-2.5,2.5v2.3h35.6V5.2C168.6,3.8,167.4,2.7,166.1,2.7z"/>
		</g>
		<g>
			<polygon class="st1" points="146.2,17.2 148.1,10.9 149.8,10.9 147.9,17.2 			"/>
			<path class="st1" d="M145.5,10.9l-1.5,2.6c-0.4,0.7-0.6,1-0.7,1.5l0,0c0-0.6-0.1-1.3-0.1-1.6l-0.1-2.5h-2.9v0.1
				c0.7,0,1.2,0.4,1.3,1.1l0.6,5h1.8l3.5-6.3H145.5L145.5,10.9z"/>
			<path class="st1" d="M158.7,17.2l-0.1-1h-2.1l-0.4,1h-1.8l3.4-6.3h2.3l0.6,6.3H158.7L158.7,17.2z M158.5,13.5c0-0.4,0-1.1,0-1.5
				l0,0c-0.1,0.3-0.5,1.3-0.7,1.7l-0.7,1.4h1.5L158.5,13.5L158.5,13.5z"/>
			<path class="st1" d="M151.6,17.4c-1.2,0-2-0.4-2.6-0.7l0.8-1.3c0.5,0.3,0.9,0.6,1.8,0.6c0.3,0,0.6-0.1,0.7-0.4
				c0.2-0.4-0.1-0.7-0.7-1l-0.3-0.2c-1-0.7-1.4-1.3-1-2.4c0.3-0.7,1.1-1.3,2.4-1.3c0.9,0,1.7,0.4,2.2,0.7l-1,1.2
				c-0.4-0.4-0.9-0.6-1.3-0.6c-0.4,0-0.7,0.1-0.7,0.3c-0.1,0.4,0.1,0.6,0.6,0.9l0.4,0.2c1.2,0.7,1.5,1.5,1.2,2.3
				C153.7,17.1,152.7,17.4,151.6,17.4L151.6,17.4z"/>
			<path class="st1" d="M160.9,11.8L160.9,11.8l-0.1-0.4h0.1c0.1,0,0.1,0.1,0.1,0.1c0,0.1-0.1,0.1-0.1,0.1l0.1,0.2h-0.1l-0.1-0.2
				h-0.1L160.9,11.8L160.9,11.8z M161,11.5C161.1,11.5,161.1,11.5,161,11.5c0.1-0.1,0-0.1,0-0.1h-0.1L161,11.5L161,11.5L161,11.5z
				 M161,12c-0.2,0-0.4-0.1-0.4-0.4c0-0.2,0.2-0.4,0.4-0.4c0.2,0,0.4,0.1,0.4,0.4C161.4,11.8,161.2,12,161,12L161,12z M161,11.2
				c-0.1,0-0.3,0.1-0.3,0.4c0,0.2,0.1,0.4,0.3,0.4c0.1,0,0.3-0.1,0.3-0.4C161.4,11.4,161.2,11.2,161,11.2L161,11.2z"/>
		</g>
	</g>
</g>
<g>
	<path class="st1" d="M221.3,78.8h-0.4v-2.6h1c0.6,0,0.9,0.2,0.9,0.7s-0.3,0.7-0.7,0.7l0.7,1.1h-0.5l-0.7-1.1h-0.4L221.3,78.8
		L221.3,78.8z M221.8,77.4c0.3,0,0.6,0,0.6-0.4c0-0.3-0.3-0.4-0.6-0.4h-0.5v0.8H221.8L221.8,77.4z M221.8,79.8c-1.3,0-2.3-1-2.3-2.3
		c0-1.4,1.1-2.3,2.3-2.3s2.3,0.9,2.3,2.3C224.1,78.9,223,79.8,221.8,79.8L221.8,79.8z M221.8,75.6c-1,0-1.8,0.8-1.8,1.9
		s0.7,1.9,1.8,1.9c1,0,1.8-0.8,1.8-1.9C223.6,76.3,222.8,75.6,221.8,75.6L221.8,75.6z"/>
</g>
</svg>
