<?xml version="1.0" encoding="utf-8"?>
<!-- Generator: Adobe Illustrator 24.3.0, SVG Export Plug-In . SVG Version: 6.00 Build 0)  -->
<svg version="1.1" id="Layer_1" xmlns="http://www.w3.org/2000/svg" xmlns:xlink="http://www.w3.org/1999/xlink" x="0px" y="0px"
	 viewBox="0 0 257 84" style="enable-background:new 0 0 257 84;" xml:space="preserve">
<style type="text/css">
	.st0{fill:#5856E9;}
	.st1{fill:#FFFFFF;}
</style>
<g>
	<g>
		<g>
			<path class="st0" d="M70.6,6.83C63.24,18.98,55.87,30.95,48.5,43.1c-0.76-1.13-1.43-2.31-2.01-3.54
				c-0.86-2.39-2.49-3.16-5.07-3.06c-5.74,0.19-11.58,0.1-17.32,0.1c-0.64,0.06-1.25-0.29-1.53-0.86c-2.11-3.54-4.31-6.99-6.7-10.81
				h28.42c0.77,0.08,1.5-0.35,1.82-1.05c0.96-1.72,2.01-3.35,3.06-5.07c-0.48,0-0.86-0.1-1.15-0.1H13.28
				c-0.8,0.1-1.57-0.33-1.91-1.05c-2.01-3.35-4.12-6.7-6.22-9.95c-0.21-0.31-0.4-0.63-0.57-0.96C26.58,6.83,48.5,6.83,70.6,6.83z"/>
			<path class="st1" d="M92.42,6.73C77.69,30.37,63.14,53.82,48.5,77.36C41.32,65.78,34.14,54.3,26.96,42.81
				c0.38,0,0.57-0.1,0.86-0.1h13.02c0.55-0.01,1.06,0.29,1.34,0.77c2.11,3.73,4.12,7.37,6.32,11.2c0.24-0.29,0.43-0.61,0.57-0.96
				c9.57-15.31,19.11-30.66,28.61-46.03c0.36-0.71,1.12-1.13,1.91-1.05h11.58C91.59,6.73,92.01,6.76,92.42,6.73z"/>
		</g>
		<g>
			<g>
				<path class="st0" d="M101.99,40.13V12.38h9.47c2.78-0.11,5.55,0.49,8.04,1.72c2.04,1.09,3.68,2.8,4.69,4.88
					c1.08,2.27,1.6,4.76,1.53,7.27c0.08,2.51-0.45,5.01-1.53,7.27c-1.01,2.08-2.65,3.79-4.69,4.88c-2.49,1.24-5.26,1.83-8.04,1.72
					L101.99,40.13z M107.07,35.83h4.21c1.92,0.09,3.83-0.3,5.55-1.15c1.31-0.71,2.32-1.87,2.87-3.25c0.61-1.65,0.9-3.41,0.86-5.17
					c0.05-1.73-0.24-3.46-0.86-5.07c-0.55-1.39-1.56-2.54-2.87-3.25c-1.72-0.85-3.63-1.25-5.55-1.15h-4.21L107.07,35.83z"/>
				<path class="st0" d="M130.13,40.13V12.38h18.09v4.12H135.2v7.66h11.87v3.92H135.2v8.04h13.02v4.02L130.13,40.13z"/>
				<path class="st0" d="M162.57,40.61c-1.84,0.02-3.66-0.34-5.36-1.05c-1.48-0.66-2.76-1.68-3.73-2.97
					c-0.9-1.44-1.4-3.09-1.44-4.79h5.36c0.01,1.24,0.53,2.41,1.44,3.25c0.98,0.92,2.29,1.4,3.64,1.34c1.16,0.06,2.31-0.27,3.25-0.96
					c0.75-0.64,1.18-1.59,1.15-2.58c0.04-1-0.34-1.97-1.05-2.68c-0.8-0.72-1.75-1.24-2.78-1.53c-1.15-0.38-2.39-0.86-3.73-1.24
					c-1.82-0.59-3.48-1.57-4.88-2.87c-1.18-1.23-1.8-2.89-1.72-4.59c-0.04-1.49,0.36-2.95,1.15-4.21c0.84-1.21,2-2.17,3.35-2.78
					c3.13-1.28,6.63-1.28,9.76,0c1.33,0.63,2.49,1.58,3.35,2.78c0.82,1.25,1.26,2.71,1.24,4.21h-5.46
					c-0.01-0.98-0.43-1.92-1.15-2.58c-0.81-0.8-1.93-1.21-3.06-1.15c-1-0.04-1.98,0.27-2.78,0.86c-0.77,0.59-1.2,1.52-1.15,2.49
					c-0.04,0.82,0.27,1.62,0.86,2.2c0.69,0.62,1.51,1.07,2.39,1.34c1.05,0.38,2.2,0.77,3.45,1.15c1.28,0.47,2.52,1.01,3.73,1.63
					c1.09,0.62,2.04,1.47,2.78,2.49c0.77,1.19,1.14,2.6,1.05,4.02c0,1.42-0.39,2.81-1.15,4.02c-0.79,1.27-1.92,2.29-3.25,2.97
					C166.24,40.27,164.41,40.7,162.57,40.61z"/>
				<path class="st0" d="M176.74,40.13V12.38h5.07v27.75H176.74z"/>
				<path class="st0" d="M199.42,40.61c-4.82,0.16-9.3-2.49-11.48-6.79c-1.12-2.33-1.68-4.88-1.63-7.46
					c-0.05-2.62,0.54-5.22,1.72-7.56c1.04-2.14,2.71-3.91,4.79-5.07c2.26-1.23,4.8-1.85,7.37-1.82c2.88-0.1,5.73,0.7,8.13,2.3
					c2.15,1.59,3.64,3.9,4.21,6.51h-5.65c-0.36-1.27-1.18-2.36-2.3-3.06c-1.3-0.77-2.8-1.14-4.31-1.05
					c-2.44-0.15-4.81,0.84-6.41,2.68c-1.63,2.06-2.45,4.65-2.3,7.27c0,3.06,0.77,5.45,2.2,7.08c1.56,1.71,3.81,2.63,6.12,2.49
					c2.49,0,4.4-0.67,5.65-2.01c1.31-1.5,2.11-3.38,2.3-5.36h-6.99v-3.83h12.15v15.31h-4.69l-0.38-3.64c-0.85,1.28-2,2.33-3.35,3.06
					C202.94,40.3,201.19,40.63,199.42,40.61z"/>
				<path class="st0" d="M217.89,40.13V12.38h5.07l13.02,19.52V12.38h5.07v27.75h-5.07l-13.02-19.52v19.52H217.89z"/>
			</g>
			<g>
				<path class="st1" d="M111.09,71.81l-9.09-24.98h4.88l7.08,20.29l7.08-20.29h4.79l-9.09,24.98H111.09z"/>
				<path class="st1" d="M128.79,71.81V46.74h4.59v24.98h-4.59V71.81z"/>
				<path class="st1" d="M138.17,71.81V46.74h4.59v10.14l9.28-10.14h5.65l-9.19,9.95l9.47,15.03h-5.65l-7.18-11.48l-2.39,2.58v9
					L138.17,71.81z"/>
				<path class="st1" d="M161.04,71.81V46.74h4.59v24.98h-4.59V71.81z"/>
				<path class="st1" d="M170.52,71.81V46.74h4.59l11.77,17.61V46.74h4.59v24.98h-4.59L175.02,54.2v17.51h-4.5L170.52,71.81z"/>
				<path class="st1" d="M207.17,72.19c-2.18,0.03-4.33-0.53-6.22-1.63c-1.77-1.08-3.19-2.64-4.12-4.5c-1-2.09-1.49-4.38-1.44-6.7
					c-0.07-2.36,0.46-4.7,1.53-6.79c0.96-1.91,2.46-3.51,4.31-4.59c2.05-1.12,4.36-1.68,6.7-1.63c2.59-0.12,5.15,0.62,7.27,2.11
					c1.92,1.42,3.24,3.5,3.73,5.84h-5.07c-0.35-1.14-1.1-2.13-2.11-2.78c-1.15-0.7-2.48-1.03-3.83-0.96
					c-2.18-0.15-4.31,0.74-5.74,2.39c-1.43,1.86-2.14,4.17-2.01,6.51c-0.15,2.31,0.57,4.6,2.01,6.41c2.89,2.87,7.49,3.08,10.62,0.48
					c1.19-1.37,1.92-3.08,2.11-4.88h-6.32v-3.45h10.91v13.78h-4.21l-0.38-3.25c-0.78,1.16-1.83,2.11-3.06,2.78
					C210.37,71.94,208.78,72.23,207.17,72.19z"/>
				<path class="st1" d="M232.34,72.19c-1.68,0.04-3.34-0.28-4.88-0.96c-1.33-0.59-2.48-1.51-3.35-2.68
					c-0.84-1.28-1.27-2.78-1.24-4.31h4.79c0.02,1.11,0.47,2.17,1.24,2.97c0.89,0.8,2.06,1.21,3.25,1.15
					c1.03,0.07,2.05-0.24,2.87-0.86c1.32-1.21,1.41-3.25,0.21-4.57c-0.04-0.04-0.07-0.08-0.11-0.12c-0.73-0.63-1.58-1.12-2.49-1.44
					c-1.05-0.38-2.2-0.77-3.35-1.15c-1.64-0.52-3.15-1.4-4.4-2.58c-1.08-1.13-1.63-2.65-1.53-4.21c-0.06-1.36,0.31-2.7,1.05-3.83
					c0.76-1.07,1.78-1.93,2.97-2.49c1.39-0.61,2.89-0.9,4.4-0.86c1.51-0.03,3.01,0.26,4.4,0.86c1.21,0.53,2.23,1.39,2.97,2.49
					c0.79,1.12,1.19,2.46,1.15,3.83h-4.88c-0.02-0.88-0.4-1.71-1.05-2.3c-1.48-1.29-3.65-1.41-5.26-0.29
					c-0.7,0.51-1.09,1.34-1.05,2.2c-0.03,0.75,0.25,1.47,0.77,2.01c0.63,0.53,1.34,0.95,2.11,1.24c0.86,0.29,1.91,0.67,3.06,1.05
					c1.17,0.37,2.3,0.89,3.35,1.53c1,0.56,1.85,1.34,2.49,2.3c0.65,1.1,0.99,2.36,0.96,3.64c0.02,1.28-0.31,2.54-0.96,3.64
					c-0.7,1.17-1.73,2.11-2.97,2.68C235.47,71.9,233.91,72.27,232.34,72.19z"/>
			</g>
		</g>
	</g>
	<g>
		<path d="M243.88,7.52h-1.52V6.64h4.11v0.89h-1.51v4.11h-1.08L243.88,7.52z"/>
		<path d="M251.39,9.76c0-0.85,0.01-1.81,0.04-2.37h-0.03c-0.24,1.02-0.74,2.69-1.21,4.25h-0.92c-0.36-1.37-0.88-3.27-1.1-4.26
			h-0.03c0.04,0.59,0.06,1.62,0.06,2.47v1.79h-0.99v-5h1.61c0.39,1.31,0.83,2.95,0.98,3.69h0.01c0.12-0.66,0.67-2.41,1.09-3.69h1.55
			v5h-1.04V9.76z"/>
	</g>
</g>
</svg>
