<?xml version="1.0" encoding="utf-8"?>
<!-- Generator: Adobe Illustrator 26.0.1, SVG Export Plug-In . SVG Version: 6.00 Build 0)  -->
<!DOCTYPE svg PUBLIC "-//W3C//DTD SVG 1.1//EN" "http://www.w3.org/Graphics/SVG/1.1/DTD/svg11.dtd" [
	<!ENTITY ns_extend "http://ns.adobe.com/Extensibility/1.0/">
	<!ENTITY ns_ai "http://ns.adobe.com/AdobeIllustrator/10.0/">
	<!ENTITY ns_graphs "http://ns.adobe.com/Graphs/1.0/">
	<!ENTITY ns_vars "http://ns.adobe.com/Variables/1.0/">
	<!ENTITY ns_imrep "http://ns.adobe.com/ImageReplacement/1.0/">
	<!ENTITY ns_sfw "http://ns.adobe.com/SaveForWeb/1.0/">
	<!ENTITY ns_custom "http://ns.adobe.com/GenericCustomNamespace/1.0/">
	<!ENTITY ns_adobe_xpath "http://ns.adobe.com/XPath/1.0/">
]>
<svg version="1.1" id="Layer_1" xmlns:x="&ns_extend;" xmlns:i="&ns_ai;" xmlns:graph="&ns_graphs;"
	 xmlns="http://www.w3.org/2000/svg" xmlns:xlink="http://www.w3.org/1999/xlink" x="0px" y="0px" width="180.8px" height="60.9px"
	 viewBox="0 0 180.8 60.9" style="enable-background:new 0 0 180.8 60.9;" xml:space="preserve">
<style type="text/css">
	.st0{fill:#39B75D;}
	.st1{fill-rule:evenodd;clip-rule:evenodd;}
	.st2{fill:#00377C;}
	.st3{fill:#001E61;}
	.st4{fill:#EF7741;}
	.st5{fill:#3F3F47;}
	.st6{fill:#EE3D8F;}
	.st7{fill:#BFD730;}
	.st8{fill:#00C0F3;}
	.st9{fill:#F58220;}
	.st10{fill:#393E40;}
	.st11{fill:#A2192F;}
</style>
<metadata>
	<sfw  xmlns="&ns_sfw;">
		<slices></slices>
		<sliceSourceBounds  bottomLeftOrigin="true" height="65.3" width="1358.9" x="1503" y="-299.5"></sliceSourceBounds>
	</sfw>
</metadata>
<g>
	<g>
		<g>
			<path class="st2" d="M47,0.2c-10,0-21.1,6.2-28.1,12l0.5,0.8C30.3,5.4,45.3,0.5,49.4,7.8c2.2,3.9-1.5,11.7-6.7,18
				c1.2-2.7,0.4-8-6.8-8C23.8,17.8,0,33.8,0,50.1C0,56.7,4.5,61,12,61c20.1,0,47.3-32.9,47.3-49.4C59.3,5.8,55.9,0.2,47,0.2z
				 M18.9,43.3c-3.5,0-5.1-2.7-4.3-5.8c1.8-6.4,13.4-15.9,21.2-15.9c5.7,0,5.3,5.1,1.9,9.5l-1.9,2.1C29.3,39.8,23.1,43.3,18.9,43.3z
				"/>
			<g>
				<path class="st2" d="M84.9,17.5c-1.8-2.3-4.8-3.3-7-3.3H66.2l-2,7.4h11.1l1.1,0.1c0,0,1,0.1,1.6,0.9c0.5,0.6,0.5,1.6,0.2,2.8
					l-0.5,2h-7c-6,0-14.4,4.3-16.2,11.3c-0.9,3.5-0.1,6.5,1.7,8.7c1.8,2.2,5.2,3.4,8.8,3.4h6.5l0,0h8.2l3.8-14.4l2.8-10.6
					C87.3,21.6,86.1,19,84.9,17.5z M66.4,43.3c-1.2,0-2.1-0.4-2.7-1.2c-0.6-0.8-0.8-1.9-0.5-3c0.7-2.5,3.3-4.4,6.1-4.4h6.5l-2.3,8.6
					H66.4z"/>
				<path class="st2" d="M165.5,14.2c-3.2,0-6.1,0.9-8.5,2.7c-2.4,1.8-3.8,3.9-4.6,6.9c-1.7,6.4,3.3,9.5,7.4,11.7
					c2.9,1.6,5.4,2.9,4.9,5c-0.4,1.5-1,2.7-4.6,2.7h-11l-2,7.4h12.1c3.3,0,6.2-0.7,8.7-2.5c2.4-1.9,3.8-4.5,4.6-7.6
					c0.8-3,0.3-5.9-1.7-8c-1.6-1.8-3.9-3.1-6-4.2c-2.6-1.4-5.1-2.7-4.7-4.4c0.3-1,1.2-2.3,3.4-2.3h10.6l2-7.4H165.5z"/>
				<path class="st2" d="M101.9,14.2c-3.2,0-6.1,0.9-8.5,2.7c-2.4,1.8-3.8,3.9-4.6,6.9c-1.7,6.4,3.3,9.5,7.4,11.7
					c2.9,1.6,5.4,2.9,4.9,5c-0.4,1.5-1,2.7-4.6,2.7H85.6l-2,7.4h12.1c3.3,0,6.3-0.7,8.7-2.5c2.4-1.9,3.8-4.5,4.6-7.6
					c0.8-3,0.3-5.9-1.7-8c-1.6-1.8-3.9-3.1-6-4.2c-2.6-1.4-5.1-2.7-4.7-4.4c0.3-1,1.2-2.3,3.4-2.3h10.6l2-7.4H101.9z"/>
				<path class="st2" d="M118.5,14.2L109,50.7h8l9.5-36.5H118.5z"/>
				<path class="st2" d="M147.9,14.2c-14.1,0.1-21.5,9.5-23.9,18.2c-2.8,10.4,2.8,18.2,12.9,18.2h6.8l2-7.4h-6.8
					c-3.8,0-9-3-6.9-10.8c1.7-6.2,7.7-10.8,14.4-10.8h4.3l2-7.4H147.9z"/>
			</g>
		</g>
		<path class="st3" d="M179.4,44.8c0.6,0.6,0.9,1.4,0.9,2.2c0,0.9-0.3,1.6-0.9,2.2c-0.6,0.6-1.3,0.9-2.2,0.9c-0.9,0-1.6-0.3-2.2-0.9
			c-0.6-0.6-0.9-1.4-0.9-2.2c0-0.9,0.3-1.6,0.9-2.2c0.6-0.6,1.4-0.9,2.2-0.9C178,43.9,178.8,44.2,179.4,44.8z M179.7,44.5
			c-0.7-0.7-1.6-1.1-2.6-1.1c-1,0-1.9,0.4-2.6,1.1c-0.7,0.7-1.1,1.6-1.1,2.6c0,1,0.4,1.9,1.1,2.6c0.7,0.7,1.6,1.1,2.6,1.1
			s1.9-0.4,2.6-1.1c0.7-0.7,1.1-1.6,1.1-2.6C180.8,46,180.5,45.2,179.7,44.5z M177.7,46.9c-0.1,0.1-0.4,0.1-0.7,0.1h-0.6l0-1.5h0.6
			c0.4,0,0.7,0,0.9,0.1c0.2,0.1,0.3,0.3,0.3,0.6C178.1,46.6,178,46.8,177.7,46.9z M175.7,49h0.7v-1.6h0.6c0.4,0,0.6,0,0.8,0.1
			c0.3,0.2,0.4,0.5,0.4,0.9v0.3l0,0.1c0,0,0,0,0,0c0,0,0,0,0,0h0.7l0,0c0,0,0-0.1,0-0.2c0-0.1,0-0.2,0-0.3v-0.3
			c0-0.2-0.1-0.4-0.2-0.6c-0.1-0.2-0.4-0.3-0.7-0.4c0.2,0,0.4-0.1,0.6-0.2c0.3-0.2,0.4-0.4,0.4-0.8c0-0.5-0.2-0.8-0.6-1
			c-0.2-0.1-0.6-0.1-1.1-0.1h-1.4V49"/>
	</g>
</g>
</svg>
