<?xml version="1.0" encoding="utf-8"?>
<!-- Generator: Adobe Illustrator 26.0.1, SVG Export Plug-In . SVG Version: 6.00 Build 0)  -->
<!DOCTYPE svg PUBLIC "-//W3C//DTD SVG 1.1//EN" "http://www.w3.org/Graphics/SVG/1.1/DTD/svg11.dtd" [
	<!ENTITY ns_extend "http://ns.adobe.com/Extensibility/1.0/">
	<!ENTITY ns_ai "http://ns.adobe.com/AdobeIllustrator/10.0/">
	<!ENTITY ns_graphs "http://ns.adobe.com/Graphs/1.0/">
	<!ENTITY ns_vars "http://ns.adobe.com/Variables/1.0/">
	<!ENTITY ns_imrep "http://ns.adobe.com/ImageReplacement/1.0/">
	<!ENTITY ns_sfw "http://ns.adobe.com/SaveForWeb/1.0/">
	<!ENTITY ns_custom "http://ns.adobe.com/GenericCustomNamespace/1.0/">
	<!ENTITY ns_adobe_xpath "http://ns.adobe.com/XPath/1.0/">
]>
<svg version="1.1" id="Layer_1" xmlns:x="&ns_extend;" xmlns:i="&ns_ai;" xmlns:graph="&ns_graphs;"
	 xmlns="http://www.w3.org/2000/svg" xmlns:xlink="http://www.w3.org/1999/xlink" x="0px" y="0px" width="174.3px" height="60.9px"
	 viewBox="0 0 174.3 60.9" style="enable-background:new 0 0 174.3 60.9;" xml:space="preserve">
<style type="text/css">
	.st0{fill:#39B75D;}
	.st1{fill-rule:evenodd;clip-rule:evenodd;}
	.st2{fill:#00377C;}
	.st3{fill:#001E61;}
	.st4{fill:#EF7741;}
	.st5{fill:#3F3F47;}
	.st6{fill:#EE3D8F;}
	.st7{fill:#BFD730;}
	.st8{fill:#00C0F3;}
	.st9{fill:#F58220;}
	.st10{fill:#393E40;}
	.st11{fill:#A2192F;}
</style>
<metadata>
	<sfw  xmlns="&ns_sfw;">
		<slices></slices>
		<sliceSourceBounds  bottomLeftOrigin="true" height="65.3" width="1358.9" x="1503" y="-299.5"></sliceSourceBounds>
	</sfw>
</metadata>
<g>
	<path class="st5" d="M50.1,2.1h6.1v41.5h-6.1V2.1z M64.5,1.2c-2.3,0-4.2,1.9-4.2,4.1s1.9,4.1,4.2,4.1c2.3,0,4.2-1.9,4.2-4.1
		S66.8,1.2,64.5,1.2 M61.4,12.6h6.1v31h-6.1V12.6z M167.6,12.2v4.2l-1.4-1.3c-2.7-2.6-5.9-3.8-9.7-3.8c-4.2,0-7.6,1.5-10.4,4.8
		c-2.1,2.4-3.4,5.4-4,8.9c-0.1,0.8-0.2,1.7-0.2,2.7c0,0.1,0,0.2,0,0.3c0,0.1,0,0.2,0,0.3c0,0.6,0,1.3,0.1,1.9c0.3,4,1.7,7.3,4.1,10
		c2.8,3.1,6.2,4.7,10.4,4.7c3.7,0,7-1.3,9.7-3.8l1.4-1.3v4h6.4V12.2H167.6z M167.5,29.5c0,2.4-0.7,4.4-2.3,6.5
		c-1.6,2.2-4.1,3.4-7.2,3.4c-2.8,0-5.1-1-7-3.3c-1.4-1.6-2.3-3.7-2.7-6.2c-0.1-0.6-0.1-1.3-0.1-1.9c0-0.1,0-0.3,0-0.5v-0.2
		c0-0.9,0.1-1.7,0.3-2.6c0.5-1.9,1.2-3.5,2.3-4.9c1.9-2.2,4.2-3.4,7-3.4c2.8,0,5.2,1,7.1,3.3c1.5,1.7,2.3,4.3,2.3,7.7v2H167.5z"/>
	<path class="st6" d="M128.8,3.7L125.4,0l-8.5,5.9l2.1,2.2L128.8,3.7z"/>
	<path class="st5" d="M140,27.4c0-1-0.1-1.7-0.2-2.6c-0.2-1.4-0.6-2.8-1.2-4.2c-0.9-2.1-2.1-3.8-3.6-5.4s-3.3-2.7-5.4-3.6
		c-2.1-0.9-4.3-1.3-7-1.3c-2,0-4.4,0.6-6.4,1.4c-2,0.8-3.8,2.1-5.4,3.6c-1.5,1.5-2.7,3.4-3.6,5.5c-0.5,1.3-0.9,2.6-1,4
		c-0.1,0.9-0.2,1.9-0.2,2.8c0,0.9,0.1,1.7,0.2,2.6c0.2,1.4,0.6,2.8,1.2,4.1c0.9,2.1,2.1,3.8,3.6,5.4c1.5,1.5,3.4,2.7,5.4,3.6
		c1.9,0.8,4,1.2,6.2,1.3h0.2c0.1,0,0.2,0,0.3,0v0.1v-0.1c1.9,0,3.6-0.3,5.4-0.9c1.6-0.6,3.3-1.4,4.7-2.6c1.4-1,2.7-2.3,3.7-3.7
		c0.8-1.2,1.5-2.3,2-3.6l0.1-0.2h-6.2v0.1c-0.8,1.3-1.9,2.4-3.1,3.4c-1.9,1.3-4.1,2-6.5,2c-0.1,0-0.1,0-0.2,0h-0.2
		c-1.3,0-2.6-0.2-3.6-0.7c-1.3-0.5-2.4-1.2-3.5-2.1c-1-0.9-1.9-2-2.6-3.1c-0.3-0.6-0.6-1.2-0.8-1.9l-0.3-0.9H140L140,27.4z
		 M111.9,24.7l0.3-0.9c0.2-0.6,0.5-1.2,0.8-1.7c0.6-1.2,1.5-2.3,2.6-3.1c1-0.9,2.2-1.6,3.5-2.1c1.2-0.5,2.3-0.7,3.7-0.7
		c1.5,0,3,0.2,4.4,0.7c1.3,0.5,2.4,1.3,3.5,2.1c1,0.9,1.9,2,2.6,3.1c0.2,0.6,0.6,1.2,0.8,1.7l0.3,0.9H111.9L111.9,24.7z M87.6,11
		h-0.3c-7.7,0.1-15.3,4.9-15.3,13.6v19h6.3V23.8c0-2.2,0.8-4,2.7-5.4c1.6-1.2,3.8-1.9,6.3-2h0.1h0.2c1,0,3.6,0.1,5.8,1.4
		c2.3,1.3,3.5,3.3,3.5,5.9v19.8h6.4v-19C103.2,15.6,95.4,11,87.6,11"/>
	<path class="st7" d="M40.7,27.9H17l-3.5,7.7h30.5L40.7,27.9z"/>
	<path class="st8" d="M34.2,35.7c1.7,4,3,6.6,3,6.8c0.2,0.5,0.7,1.3,1.5,1.3h9.1l-3.6-8C44.2,35.7,34.2,35.7,34.2,35.7z"/>
	<path class="st9" d="M40.7,27.9L28.9,2.1h-4.1l-4.3,3.5c2.2,4.9,6.4,14.2,10.1,22.3H40.7z"/>
	<path class="st6" d="M24.8,2.1c-5.4,0-7.5,3.6-9.4,7.7C14.2,12.2,0,43.6,0,43.6h9.1c0.8,0,1.2-0.7,1.5-1.3
		c0.2-0.6,18.3-40.2,18.3-40.2L24.8,2.1L24.8,2.1z"/>
	<path class="st10" d="M5.5,60.7l-3.8-9.4l0,0c0,0.6,0,1.2,0,1.7v7.7H0.9V50.6h1l3.6,9l0,0l3.6-9h1v10.1H9.6V53c0-0.6,0-1,0.1-1.6
		l0,0l-3.8,9.4L5.5,60.7L5.5,60.7z M21.2,57c0,1.3-0.3,2.2-0.9,2.9c-0.6,0.7-1.4,1-2.4,1c-0.7,0-1.3-0.1-1.7-0.5
		c-0.5-0.3-0.9-0.8-1.2-1.4c-0.2-0.6-0.3-1.3-0.3-2.1c0-1.3,0.3-2.2,0.9-2.9c0.6-0.7,1.4-1,2.4-1c1,0,1.9,0.3,2.4,1
		S21.2,55.7,21.2,57L21.2,57z M15.3,57c0,1,0.2,1.9,0.7,2.4c0.5,0.6,1,0.9,2,0.9c0.8,0,1.5-0.2,2-0.9c0.5-0.6,0.7-1.4,0.7-2.4
		s-0.2-1.9-0.7-2.4c-0.5-0.6-1.2-0.8-2-0.8c-0.8,0-1.5,0.2-2,0.8C15.5,55.1,15.3,56,15.3,57z M28.4,53c1,0,1.9,0.3,2.4,1
		s0.8,1.6,0.8,2.9c0,1.3-0.2,2.2-0.8,2.9c-0.6,0.7-1.4,1-2.3,1c-0.6,0-1-0.1-1.5-0.3c-0.5-0.2-0.8-0.6-1-0.9h-0.1l-0.2,1.2h-0.5V50
		h0.7v2.7c0,0.5,0,0.8,0,1.2v0.6l0,0c0.2-0.5,0.6-0.8,1-1C27.4,53.2,27.9,53,28.4,53L28.4,53z M28.3,53.7c-0.9,0-1.5,0.2-1.9,0.8
		c-0.3,0.5-0.6,1.4-0.6,2.6v0.1c0,1.2,0.2,2,0.6,2.4c0.3,0.5,1,0.7,1.9,0.7s1.4-0.2,1.9-0.8c0.5-0.6,0.6-1.4,0.6-2.4
		C30.9,54.8,30.1,53.7,28.3,53.7L28.3,53.7z M35.4,51.1c0-0.5,0.1-0.7,0.5-0.7c0.1,0,0.2,0.1,0.3,0.1c0.1,0.1,0.1,0.2,0.1,0.5
		s0,0.3-0.1,0.5c-0.1,0.1-0.2,0.2-0.3,0.2C35.6,51.8,35.4,51.5,35.4,51.1L35.4,51.1z M36.3,60.7h-0.7v-7.6h0.7V60.7z M41.3,60.7
		h-0.7V49.9h0.7V60.7z M45.6,51.1c0-0.5,0.1-0.7,0.5-0.7c0.1,0,0.2,0.1,0.3,0.1c0.1,0.1,0.1,0.2,0.1,0.5s0,0.3-0.1,0.5
		c-0.1,0.1-0.2,0.2-0.3,0.2C45.7,51.8,45.6,51.5,45.6,51.1L45.6,51.1z M46.3,60.7h-0.7v-7.6h0.7V60.7z M53.7,61c-1,0-2-0.3-2.6-1
		c-0.6-0.7-0.9-1.6-0.9-2.8c0-1.2,0.3-2.2,0.9-2.9c0.6-0.7,1.4-1,2.4-1c0.9,0,1.6,0.3,2.1,0.9c0.5,0.6,0.8,1.5,0.8,2.6v0.6h-5.6
		c0,1,0.2,1.9,0.7,2.3c0.5,0.6,1.2,0.8,2.1,0.8c0.5,0,0.8,0,1.2-0.1s0.7-0.2,1.3-0.3v0.6c-0.5,0.2-0.8,0.3-1.2,0.3
		C54.6,60.9,54.2,61,53.7,61L53.7,61z M53.5,53.6c-0.7,0-1.3,0.2-1.7,0.7c-0.5,0.5-0.7,1.2-0.8,2.1h4.7c0-0.9-0.2-1.5-0.6-2.1
		C54.8,54,54.2,53.6,53.5,53.6L53.5,53.6z M63.3,53c0.3,0,0.7,0,1,0.1l-0.1,0.7c-0.3-0.1-0.7-0.1-0.9-0.1c-0.7,0-1.2,0.2-1.6,0.8
		c-0.5,0.6-0.6,1.3-0.6,2.1v4.2h-0.7v-7.6H61l0.1,1.4l0,0c0.3-0.6,0.7-0.9,1-1.2C62.4,53.2,62.8,53,63.3,53L63.3,53z M72.9,58.2
		c0-0.7,0.1-1.2,0.5-1.6c0.3-0.5,0.9-0.9,1.9-1.4l-0.5-0.6c-0.2-0.2-0.5-0.6-0.7-0.9c-0.1-0.3-0.2-0.7-0.2-0.9
		c0-0.7,0.2-1.2,0.7-1.6c0.5-0.3,1-0.6,1.7-0.6c0.7,0,1.3,0.2,1.7,0.6c0.5,0.3,0.6,0.9,0.6,1.5c0,0.5-0.1,0.9-0.5,1.4
		c-0.3,0.5-0.9,0.8-1.7,1.4l3.1,3.1c0.2-0.3,0.6-0.7,0.7-1c0.2-0.3,0.3-0.8,0.5-1.4h0.7c-0.3,1.2-0.8,2.1-1.5,2.9l1.9,1.9h-0.9
		l-1.4-1.4c-0.5,0.5-0.8,0.7-1.2,0.9s-0.7,0.3-1,0.5C76.8,61,76.4,61,75.8,61c-0.9,0-1.7-0.2-2.3-0.7C73.1,59.7,72.9,59.1,72.9,58.2
		L72.9,58.2z M76,60.3c0.6,0,1.2-0.1,1.6-0.3s0.9-0.6,1.5-1l-3.4-3.3c-0.6,0.3-1,0.6-1.4,0.8c-0.2,0.2-0.5,0.5-0.6,0.8
		c-0.1,0.2-0.2,0.6-0.2,0.9c0,0.7,0.2,1.2,0.7,1.5C74.7,60.2,75.3,60.3,76,60.3L76,60.3z M74.6,52.6c0,0.3,0.1,0.7,0.2,1
		c0.2,0.3,0.6,0.7,1,1.2c0.7-0.3,1.3-0.8,1.5-1.2c0.2-0.3,0.5-0.7,0.5-1.2s-0.1-0.8-0.5-1c-0.2-0.2-0.7-0.3-1.2-0.3
		c-0.6,0-0.9,0.1-1.3,0.3C74.7,51.8,74.6,52.1,74.6,52.6z M93.6,53c0.6,0,1,0.1,1.4,0.3c0.3,0.2,0.7,0.6,1,1l0,0c0-0.6,0-1.2,0-1.7
		V50h0.7v10.8h-0.5l-0.2-1.2l0,0c-0.6,0.8-1.4,1.3-2.4,1.3s-1.9-0.3-2.4-0.9c-0.6-0.7-0.8-1.6-0.8-2.8c0-1.3,0.2-2.3,0.8-3
		C91.7,53.4,92.6,53,93.6,53L93.6,53z M93.6,53.7c-0.8,0-1.4,0.2-1.9,0.8c-0.5,0.6-0.6,1.4-0.6,2.6c0,2.1,0.8,3.3,2.4,3.3
		c0.8,0,1.5-0.2,1.9-0.7c0.3-0.5,0.6-1.3,0.6-2.4v-0.1c0-1.2-0.2-2-0.6-2.6C95.1,54,94.4,53.7,93.6,53.7z M104.2,61
		c-1,0-2-0.3-2.6-1c-0.6-0.7-0.9-1.6-0.9-2.8c0-1.2,0.3-2.2,0.9-2.9c0.6-0.7,1.4-1,2.4-1c0.9,0,1.6,0.3,2.1,0.9s0.8,1.5,0.8,2.6v0.6
		h-5.5c0,1,0.2,1.9,0.7,2.3c0.5,0.6,1.2,0.8,2.1,0.8c0.5,0,0.8,0,1.2-0.1s0.7-0.2,1.3-0.3v0.6c-0.5,0.2-0.8,0.3-1.2,0.3
		C105,60.9,104.7,61,104.2,61L104.2,61z M104,53.6c-0.7,0-1.3,0.2-1.7,0.7c-0.5,0.5-0.7,1.2-0.8,2.1h4.7c0-0.9-0.2-1.5-0.6-2.1
		C105.2,54,104.7,53.6,104,53.6L104,53.6z M103.1,52c0.3-0.3,0.7-0.8,1-1.2c0.3-0.5,0.6-0.7,0.7-0.9h0.9V50
		c-0.1,0.2-0.5,0.6-0.8,0.9c-0.5,0.5-0.8,0.8-1.3,1.2L103.1,52L103.1,52z M113.8,61c-1,0-2-0.3-2.6-1c-0.6-0.7-0.9-1.6-0.9-2.9
		c0-1.3,0.3-2.2,0.9-2.9c0.6-0.7,1.5-1,2.6-1c0.7,0,1.3,0.1,1.9,0.3l-0.2,0.6c-0.7-0.2-1.3-0.3-1.7-0.3c-0.9,0-1.6,0.2-2.1,0.8
		s-0.7,1.4-0.7,2.4c0,1,0.2,1.9,0.7,2.4s1.2,0.8,2,0.8c0.7,0,1.3-0.1,1.9-0.3v0.7C115.3,60.9,114.6,61,113.8,61z M125.7,57
		c0,1.3-0.3,2.2-0.9,2.9c-0.6,0.7-1.4,1-2.4,1c-0.7,0-1.3-0.1-1.7-0.5c-0.5-0.3-0.9-0.8-1.2-1.4c-0.2-0.6-0.3-1.3-0.3-2.1
		c0-1.3,0.3-2.2,0.9-2.9c0.6-0.7,1.4-1,2.4-1s1.9,0.3,2.4,1C125.4,54.8,125.7,55.7,125.7,57L125.7,57z M119.7,57
		c0,1,0.2,1.9,0.7,2.4c0.5,0.6,1,0.9,2,0.9c0.8,0,1.5-0.2,2-0.9c0.5-0.6,0.7-1.4,0.7-2.4s-0.2-1.9-0.7-2.4c-0.5-0.6-1.2-0.8-2-0.8
		s-1.5,0.2-2,0.8C120,55.1,119.7,56,119.7,57L119.7,57z M132.5,53c0.3,0,0.7,0,1,0.1l-0.1,0.7c-0.3-0.1-0.7-0.1-0.9-0.1
		c-0.7,0-1.2,0.2-1.6,0.8c-0.5,0.6-0.6,1.3-0.6,2.1v4.2h-0.7v-7.6h0.6l0.1,1.4l0,0c0.3-0.6,0.7-0.9,1-1.2
		C131.6,53.2,132.1,53,132.5,53L132.5,53z M141.6,60.7l-0.1-1.2l0,0c-0.3,0.5-0.8,0.8-1.2,1c-0.3,0.2-0.9,0.3-1.4,0.3
		c-0.7,0-1.3-0.2-1.7-0.6c-0.5-0.3-0.6-0.9-0.6-1.6s0.3-1.3,0.9-1.7c0.6-0.5,1.5-0.6,2.7-0.7h1.4v-0.5c0-0.7-0.1-1.3-0.5-1.6
		c-0.3-0.3-0.8-0.6-1.4-0.6c-0.7,0-1.4,0.2-2.2,0.6l-0.2-0.6c0.8-0.3,1.6-0.6,2.4-0.6s1.4,0.2,1.9,0.7c0.5,0.5,0.6,1,0.6,2v5
		L141.6,60.7L141.6,60.7z M138.8,60.3c0.8,0,1.4-0.2,1.9-0.7c0.5-0.5,0.7-1,0.7-2v-0.7h-1.3c-1,0-1.9,0.2-2.3,0.5
		c-0.5,0.2-0.7,0.7-0.7,1.3c0,0.5,0.1,0.8,0.5,1C137.9,60.2,138.3,60.3,138.8,60.3L138.8,60.3z M148.4,60.3c0.5,0,0.8,0,1.2-0.1v0.6
		c-0.3,0.1-0.8,0.1-1.2,0.1c-0.7,0-1.2-0.2-1.5-0.6c-0.3-0.3-0.5-0.9-0.5-1.6v-4.9h-1.2v-0.3l1.2-0.3l0.3-1.7h0.3v1.9h2.2v0.6h-2.2
		v4.8c0,0.6,0.1,1,0.3,1.3C147.6,60.2,147.9,60.3,148.4,60.3L148.4,60.3z M153,51.1c0-0.5,0.1-0.7,0.5-0.7c0.1,0,0.2,0.1,0.3,0.1
		c0.1,0.1,0.1,0.2,0.1,0.5s0,0.3-0.1,0.5c-0.1,0.1-0.2,0.2-0.3,0.2C153.1,51.8,153,51.5,153,51.1L153,51.1z M153.7,60.7H153v-7.6
		h0.7V60.7z M164.4,57c0,1.3-0.3,2.2-0.9,2.9c-0.6,0.7-1.4,1-2.4,1c-0.7,0-1.3-0.1-1.7-0.5c-0.5-0.3-0.9-0.8-1.2-1.4
		c-0.2-0.6-0.3-1.3-0.3-2.1c0-1.3,0.3-2.2,0.9-2.9c0.6-0.7,1.4-1,2.4-1s1.9,0.3,2.4,1C164,54.8,164.4,55.7,164.4,57L164.4,57z
		 M158.3,57c0,1,0.2,1.9,0.7,2.4c0.5,0.6,1,0.9,2,0.9c0.8,0,1.5-0.2,2-0.9c0.5-0.6,0.7-1.4,0.7-2.4s-0.2-1.9-0.7-2.4
		c-0.5-0.6-1.2-0.8-2-0.8s-1.5,0.2-2,0.8C158.5,55.1,158.3,56,158.3,57L158.3,57z M173.6,60.7v-4.9c0-0.8-0.1-1.3-0.5-1.6
		c-0.3-0.3-0.8-0.5-1.5-0.5c-0.9,0-1.5,0.2-2,0.7s-0.6,1.2-0.6,2.2v4.2h-0.7v-7.6h0.6l0.1,1l0,0c0.5-0.8,1.4-1.2,2.7-1.2
		c1.7,0,2.6,0.9,2.6,2.8v5L173.6,60.7L173.6,60.7z"/>
</g>
</svg>
