<?xml version="1.0" encoding="utf-8"?>
<!-- Generator: Adobe Illustrator 26.0.1, SVG Export Plug-In . SVG Version: 6.00 Build 0)  -->
<!DOCTYPE svg PUBLIC "-//W3C//DTD SVG 1.1//EN" "http://www.w3.org/Graphics/SVG/1.1/DTD/svg11.dtd" [
	<!ENTITY ns_extend "http://ns.adobe.com/Extensibility/1.0/">
	<!ENTITY ns_ai "http://ns.adobe.com/AdobeIllustrator/10.0/">
	<!ENTITY ns_graphs "http://ns.adobe.com/Graphs/1.0/">
	<!ENTITY ns_vars "http://ns.adobe.com/Variables/1.0/">
	<!ENTITY ns_imrep "http://ns.adobe.com/ImageReplacement/1.0/">
	<!ENTITY ns_sfw "http://ns.adobe.com/SaveForWeb/1.0/">
	<!ENTITY ns_custom "http://ns.adobe.com/GenericCustomNamespace/1.0/">
	<!ENTITY ns_adobe_xpath "http://ns.adobe.com/XPath/1.0/">
]>
<svg version="1.1" id="Layer_1" xmlns:x="&ns_extend;" xmlns:i="&ns_ai;" xmlns:graph="&ns_graphs;"
	 xmlns="http://www.w3.org/2000/svg" xmlns:xlink="http://www.w3.org/1999/xlink" x="0px" y="0px" width="174.3px" height="62.9px"
	 viewBox="0 0 174.3 62.9" style="enable-background:new 0 0 174.3 62.9;" xml:space="preserve">
<style type="text/css">
	.st0{fill:#39B75D;}
	.st1{fill-rule:evenodd;clip-rule:evenodd;}
	.st2{fill:#00377C;}
	.st3{fill:#001E61;}
	.st4{fill:#EF7741;}
	.st5{fill:#3F3F47;}
	.st6{fill:#EE3D8F;}
	.st7{fill:#BFD730;}
	.st8{fill:#00C0F3;}
	.st9{fill:#F58220;}
	.st10{fill:#393E40;}
	.st11{fill:#A2192F;}
</style>
<metadata>
	<sfw  xmlns="&ns_sfw;">
		<slices></slices>
		<sliceSourceBounds  bottomLeftOrigin="true" height="65.3" width="1358.9" x="1503" y="-299.5"></sliceSourceBounds>
	</sfw>
</metadata>
<g>
	<g>
		<path class="st1" d="M86.3,1.2c9.4,0,16.8,0.4,24.8,1.8c8.7,1.5,16.9,3.5,23.5,7.3c0.5,0.3,0.9,0.5,1.5,0.9
			c2.6,1.6,5.7,4.3,6.4,7.8c0.5,2.9-0.8,5.2-2.3,6.8c-1.5,1.7-3.3,3-5.3,4.1c-8,4.6-18.5,7-29.4,8.2c-5.1,0.6-10.4,1-16.7,1
			c-6.1,0-11.4-0.2-16.6-0.8c-10.5-1-21.6-3.3-29.9-7.5c-2.1-1-4-2.2-5.7-3.7c-1.6-1.5-3.2-3.3-3.7-5.8c-0.7-4.2,2.2-7.2,4.7-9.1
			c2.6-2,6-3.7,9.3-4.9c6.8-2.5,14.9-4.2,23-5.2C75.2,1.6,80,1.2,86.3,1.2z M86.5,5c-7.3,0-14.2,1.3-20.3,3.6
			c-3,1.1-5.6,2.4-7.9,4.4c-2,1.7-4.4,4.4-3.9,8.2c0.5,3.2,3.1,5.5,5.3,7.1c2.4,1.7,5.4,3,8.4,4c6.4,2.1,13.6,3,21.1,2.9
			c7.1-0.1,14.5-1.3,20.4-3.6c2.9-1.1,5.6-2.5,7.9-4.4c2.1-1.8,4.3-4.6,3.7-8.1c-0.5-3.2-2.9-5.5-5.3-7.1c-2.6-1.8-5.3-2.9-8.4-4
			c-4.7-1.6-10-2.5-15.2-2.8C90.7,5.1,88.6,4.9,86.5,5C86.6,5,86.5,5,86.5,5z"/>
		<path class="st1" d="M141.4,35.1c0.8,0,1.9,0,2.7,0.1c0.7,0.1,1.9,0.5,1.9,1.2c0,0.7-1,1-1.6,1.1c-1.5,0.4-3.2,0.4-4.7,0
			c-0.7-0.2-1.6-0.5-1.6-1.1c0-0.7,0.8-0.9,1.3-1.1C140.2,35.2,140.7,35.1,141.4,35.1z M140.1,35.5c-0.5,0.1-1.1,0.4-1.1,0.9
			c0,0.4,0.5,0.7,0.9,0.9c1.2,0.5,3.4,0.5,4.7,0c0.3-0.1,0.8-0.5,0.8-0.8c0-0.5-0.9-0.9-1.3-1c-0.7-0.2-1.5-0.2-2.1-0.2
			C141.3,35.3,140.7,35.3,140.1,35.5z"/>
		<path class="st1" d="M140.7,35.7c0.7,0.1,3.1-0.2,3,0.5c0,0.4-0.6,0.3-1,0.4c0.3,0.3,0.8,0.4,1,0.7c-1.1,0.2-1.5-0.7-2.3-0.7
			c-0.1,0.1,0,0.4,0,0.6c-0.1,0-0.5,0-0.8,0C140.7,36.7,140.7,36.2,140.7,35.7z M141.5,36.3c0.3,0,1.2,0.1,1.4-0.2
			C142.7,35.9,141.2,35.7,141.5,36.3z"/>
		<path class="st1" d="M8.6,45.9c3.3,0,6.3,0,9,0.5c0.9,0.2,1.9,0.5,2.3,1.2c0.3,0.6,0.2,1.7,0.2,3.3c0,2.9,0,5.5,0,8.5
			c0,0.5,0.1,1.2-0.1,1.6c-0.4,1.2-2.9,1.5-4.1,1.6c-3.3,0.3-7.3,0.3-10.7,0c-1.3-0.1-3.7-0.4-4.3-1.6c-0.3-0.7-0.1-2.3-0.1-3.3
			c0-2.5,0-4.3,0-6.8c0-1.2-0.2-2.8,0.3-3.5c0.5-0.7,2.1-1.1,3.4-1.3C5.8,46,6.9,45.9,8.6,45.9z M8.3,48c-0.1,0.3-0.1,1-0.1,1.5
			c0,2.9,0,5.3,0,8.1c0,1-0.2,2.6,0.1,3.1c0.3,0.6,1.2,0.5,2,0.6c0.7,0,1.7,0.1,2.1-0.5c0.3-0.5,0.1-2,0.1-3.1c0-2.6,0-3.9,0-6.4
			c0-0.7,0.2-2.6,0-3.2c-0.3-0.7-2-0.6-2.7-0.6C9.4,47.5,8.5,47.6,8.3,48z"/>
		<path class="st1" d="M37.5,46.1c3,0,6.3,0,9.4,0c2.2,5.5,4.3,11,6.5,16.5c-2.8,0-5.7,0-8.5,0c-0.5-1.4-0.9-2.8-1.4-4.1
			c-1.6-0.1-3.4-0.1-5,0c-0.5,1.3-0.8,2.7-1.2,4.1c-1.9,0-3.9,0-5.8,0c1.4-4.1,3-8.2,4.4-12.4C36.4,48.9,37,47.3,37.5,46.1z
			 M38.8,56.6c1.3-0.1,2.8-0.1,4.1,0c-0.7-2.2-1.4-4.4-2.3-6.5C40.1,52.3,39.4,54.4,38.8,56.6z"/>
		<path class="st1" d="M74,52.8c1.8-1.8,3.6-3.9,5.4-5.9c0.2-0.2,0.6-0.7,0.8-0.8c0.4-0.1,1.2,0,1.7,0c1.7,0,3.5,0,5.1,0
			c0.1,0.2-0.2,0.3-0.3,0.4c-1.9,2.1-4,4.4-6,6.4c2,3.2,4.1,6.5,5.9,9.7c-2.8,0-5.7,0-8.5,0c-1.5-2.3-2.8-4.9-4.3-7.2
			c0,2.4,0,4.8,0,7.2c-2.7,0-5.4,0-8.1,0c0-5.3,0-11.1,0-16.5c2.6-0.1,5.5,0,8,0c0.2,0,0.1,0.4,0.1,0.7C74,48.7,74,50.9,74,52.8z"/>
		<path class="st1" d="M99.5,46.1c2.7,0,5.4,0,8,0c0,4.7,0,9.7,0,14.3c2.7,0,5.4,0,8,0c0,0.7,0,1.5,0,2.2c-5.4,0-10.8,0-16.1,0
			C99.5,57.6,99.4,51.6,99.5,46.1C99.4,46.1,99.5,46,99.5,46.1z"/>
		<path class="st1" d="M127.6,46.1c5.3,0,10.5,0,15.8,0c0,0.7,0,1.4,0,2.1c-2.6,0-5.1,0-7.7,0c-0.1,1.6,0,3.4,0,5.1c2,0,4,0,6,0
			c0,0.7,0,1.4,0,1.9c-2,0-4,0-6,0c0,1.8,0,3.5,0,5.3c2.5,0.1,5.1,0,7.7,0c0,0.7,0,1.4,0,2.1c-5.3,0-10.5,0-15.8,0
			C127.5,57.2,127.5,51.7,127.6,46.1C127.5,46.1,127.6,46,127.6,46.1z"/>
		<path class="st1" d="M174.8,46.1C174.8,46.1,174.8,46.1,174.8,46.1c-2.1,3.5-4.6,7-6.9,10.5c0,2,0,4.3,0,6.1c-2.6,0.1-5.4,0-8.1,0
			c0-1.4,0-3,0-4.6c0-0.5,0.1-1.1,0-1.5c-0.1-0.4-0.6-0.9-0.9-1.3c-2.1-3-4.1-6.1-6.1-9.1c2.8,0,5.7,0,8.5,0c1.3,2,2.4,4.1,3.6,6.1
			c1.2-2,2.4-4.1,3.6-6.1C170.6,46.1,172.8,46.2,174.8,46.1z"/>
	</g>
</g>
</svg>
