<?xml version="1.0" encoding="utf-8"?>
<!-- Generator: Adobe Illustrator 26.0.1, SVG Export Plug-In . SVG Version: 6.00 Build 0)  -->
<!DOCTYPE svg PUBLIC "-//W3C//DTD SVG 1.1//EN" "http://www.w3.org/Graphics/SVG/1.1/DTD/svg11.dtd" [
	<!ENTITY ns_extend "http://ns.adobe.com/Extensibility/1.0/">
	<!ENTITY ns_ai "http://ns.adobe.com/AdobeIllustrator/10.0/">
	<!ENTITY ns_graphs "http://ns.adobe.com/Graphs/1.0/">
	<!ENTITY ns_vars "http://ns.adobe.com/Variables/1.0/">
	<!ENTITY ns_imrep "http://ns.adobe.com/ImageReplacement/1.0/">
	<!ENTITY ns_sfw "http://ns.adobe.com/SaveForWeb/1.0/">
	<!ENTITY ns_custom "http://ns.adobe.com/GenericCustomNamespace/1.0/">
	<!ENTITY ns_adobe_xpath "http://ns.adobe.com/XPath/1.0/">
]>
<svg version="1.1" id="Layer_1" xmlns:x="&ns_extend;" xmlns:i="&ns_ai;" xmlns:graph="&ns_graphs;"
	 xmlns="http://www.w3.org/2000/svg" xmlns:xlink="http://www.w3.org/1999/xlink" x="0px" y="0px" width="172.6px" height="62.9px"
	 viewBox="0 0 172.6 62.9" style="enable-background:new 0 0 172.6 62.9;" xml:space="preserve">
<style type="text/css">
	.st0{fill:#39B75D;}
	.st1{fill-rule:evenodd;clip-rule:evenodd;}
	.st2{fill:#00377C;}
	.st3{fill:#001E61;}
	.st4{fill:#EF7741;}
	.st5{fill:#3F3F47;}
	.st6{fill:#EE3D8F;}
	.st7{fill:#BFD730;}
	.st8{fill:#00C0F3;}
	.st9{fill:#F58220;}
	.st10{fill:#393E40;}
	.st11{fill:#A2192F;}
</style>
<metadata>
	<sfw  xmlns="&ns_sfw;">
		<slices></slices>
		<sliceSourceBounds  bottomLeftOrigin="true" height="65.3" width="1358.9" x="1503" y="-299.5"></sliceSourceBounds>
	</sfw>
</metadata>
<g>
	<path class="st4" d="M108.6,23.2c0,7.7,0,15.5,0,23.2h5.2l0-19.2c0-6.7,3.9-8.5,7.4-9c5.8-0.8,8.8,2.2,8.8,7.8c0,6.8,0,13.6,0,20.4
		h5.1c0-6.8,0-13.6,0-20.4c0-5.6-2.4-9.2-9.5-9.6c-3-0.2-6.5,0.3-10.6,3.6c-0.5,0.4-1.2,0.9-1.2,0l0-2.9c0-0.1,0-0.3-0.3-0.2
		l-4.8,0.6L108.6,23.2"/>
	<polygon class="st4" points="63.8,23.1 57,40 56.4,41.4 55.8,40 48.4,21.9 46.6,17.6 41.2,17.6 43,22.1 53.1,46.7 56,46.7 
		65.7,22.4 67.7,17.6 66,17.6 	"/>
	<path class="st4" d="M150.5,27.1h15c0,0,0.9,0,0.9-0.8c0.3-11.6-14.8-12-16.3,0.5C150.1,27.2,150.5,27.1,150.5,27.1 M172.3,28.1
		v0.4l-22,0c0,0-0.4,0-0.4,0.3c-1.9,19.5,16.2,19.9,20.9,10.4l1,0.2c-2.6,5.4-7.1,7.7-13.2,7.6c-10.1-0.2-15.2-7.3-15.3-14.6
		c-0.1-7.3,4.7-14.7,14.4-15.5C169.4,15.9,172.2,25.2,172.3,28.1"/>
	<path class="st4" d="M24.9,26.1L24.9,26.1L17.7,9.8c-0.1-0.3-0.2-0.3-0.3,0c0,0-6.8,16.4-6.8,16.4L24.9,26.1 M2.5,46.6H0.4
		C6.9,30.8,13.3,15.1,19.6-0.8l1,0l21.4,47.4l-8.3,0l-8.3-19.1H10.2L2.5,46.6z"/>
	<g>
		<polygon class="st4" points="8.1,52.3 14.5,52.3 14.5,53.3 9.5,53.3 9.5,56.4 14.4,56.4 14.4,57.5 9.5,57.5 9.5,61.5 14.5,61.5 
			14.5,62.6 8.1,62.6 		"/>
		<path class="st4" d="M22.8,59.6l-1.5,2.9h-1.5l5.7-10.8L31,62.5h-1.5L28,59.6H22.8z M25.4,54.5l-2.1,4.1h4.2L25.4,54.5z"/>
		<path class="st4" d="M37.7,58.4c0,0.8,0,1.6,0.5,2.3c0.5,0.6,1.6,1,2.5,1c0.9,0,1.8-0.3,2.4-0.9c0.7-0.7,0.6-1.6,0.6-2.4v-6.1h1.4
			v6.4c0,1.1-0.1,2-1.1,2.8c-0.9,0.8-2.1,1.2-3.3,1.2c-1.2,0-2.4-0.4-3.2-1c-1.1-0.9-1.2-1.8-1.2-3v-6.4h1.4V58.4"/>
		<polygon class="st4" points="64,62.5 62.6,62.5 62.6,53.3 59.7,53.3 59.7,52.3 67,52.3 67,53.3 64,53.3 		"/>
		<polygon class="st4" points="80.2,56.4 80.2,52.3 81.6,52.3 81.6,62.5 80.2,62.5 80.2,57.5 73.9,57.5 73.9,62.5 72.5,62.5 
			72.5,52.3 73.9,52.3 73.9,56.4 		"/>
		<polygon class="st4" points="88.2,52.3 94.6,52.3 94.6,53.3 89.6,53.3 89.6,56.4 94.4,56.4 94.4,57.5 89.6,57.5 89.6,61.5 
			94.6,61.5 94.6,62.6 88.2,62.6 		"/>
		<path class="st4" d="M102.3,62.5H101V52.3h1.8c2.3,0,4.5,0.5,4.5,2.8c0,1.6-1.2,2.7-3.1,2.8l3.9,4.6h-1.7l-3.7-4.5h-0.3V62.5
			 M102.3,57h0.4c1.6,0,3.1-0.2,3.1-1.8c0-1.7-1.5-1.9-3.1-1.9h-0.4V57z"/>
		<polygon class="st4" points="115.5,51.7 120,60.3 124.4,51.7 126.9,62.5 125.5,62.5 124,55.6 123.9,55.6 120,63 116,55.6 
			116,55.6 114.4,62.5 113,62.5 		"/>
		<path class="st4" d="M134.4,59.6l-1.5,2.9h-1.5l5.7-10.8l5.5,10.8h-1.5l-1.5-2.9H134.4z M137.1,54.5l-2.1,4.1h4.2L137.1,54.5z"/>
		<polygon class="st4" points="149.4,61.5 152.8,61.5 152.8,62.5 148,62.5 148,52.3 149.4,52.3 		"/>
		<polygon class="st4" points="158.2,52.3 164.6,52.3 164.6,53.3 159.6,53.3 159.6,56.4 164.5,56.4 164.5,57.5 159.6,57.5 
			159.6,61.5 164.6,61.5 164.6,62.6 158.2,62.6 		"/>
	</g>
	<path class="st4" d="M77.6,27.6h15c0,0,0.9,0,0.9-0.8c0.3-11.6-14.8-12-16.3,0.5C77.2,27.6,77.6,27.6,77.6,27.6 M99.5,28.5v0.4
		l-22,0c0,0-0.4,0-0.4,0.3C75.2,48.7,93.3,49.1,98,39.6l1,0.2c-2.6,5.4-7.1,7.7-13.2,7.6C75.7,47.2,70.7,40,70.6,32.8
		C70.5,25.5,75.3,18,85,17.2C96.5,16.3,99.4,25.6,99.5,28.5"/>
	<polygon class="st4" points="75.2,2.4 86.7,13.8 87.1,13.6 83.1,2.4 	"/>
</g>
</svg>
