<?xml version="1.0" encoding="utf-8"?>
<!-- Generator: Adobe Illustrator 26.0.1, SVG Export Plug-In . SVG Version: 6.00 Build 0)  -->
<!DOCTYPE svg PUBLIC "-//W3C//DTD SVG 1.1//EN" "http://www.w3.org/Graphics/SVG/1.1/DTD/svg11.dtd" [
	<!ENTITY ns_extend "http://ns.adobe.com/Extensibility/1.0/">
	<!ENTITY ns_ai "http://ns.adobe.com/AdobeIllustrator/10.0/">
	<!ENTITY ns_graphs "http://ns.adobe.com/Graphs/1.0/">
	<!ENTITY ns_vars "http://ns.adobe.com/Variables/1.0/">
	<!ENTITY ns_imrep "http://ns.adobe.com/ImageReplacement/1.0/">
	<!ENTITY ns_sfw "http://ns.adobe.com/SaveForWeb/1.0/">
	<!ENTITY ns_custom "http://ns.adobe.com/GenericCustomNamespace/1.0/">
	<!ENTITY ns_adobe_xpath "http://ns.adobe.com/XPath/1.0/">
]>
<svg version="1.1" id="Layer_1" xmlns:x="&ns_extend;" xmlns:i="&ns_ai;" xmlns:graph="&ns_graphs;"
	 xmlns="http://www.w3.org/2000/svg" xmlns:xlink="http://www.w3.org/1999/xlink" x="0px" y="0px" width="228.4px" height="65.2px"
	 viewBox="0 0 228.4 65.2" style="enable-background:new 0 0 228.4 65.2;" xml:space="preserve">
<style type="text/css">
	.st0{fill:#39B75D;}
	.st1{fill-rule:evenodd;clip-rule:evenodd;}
	.st2{fill:#00377C;}
	.st3{fill:#001E61;}
	.st4{fill:#EF7741;}
	.st5{fill:#3F3F47;}
	.st6{fill:#EE3D8F;}
	.st7{fill:#BFD730;}
	.st8{fill:#00C0F3;}
	.st9{fill:#F58220;}
	.st10{fill:#393E40;}
	.st11{fill:#A2192F;}
</style>
<metadata>
	<sfw  xmlns="&ns_sfw;">
		<slices></slices>
		<sliceSourceBounds  bottomLeftOrigin="true" height="65.3" width="1358.9" x="1503" y="-299.5"></sliceSourceBounds>
	</sfw>
</metadata>
<g>
	<path class="st0" d="M77.2,17.2c-3.1-2-6.7-3-10.3-3H54.2v39H62V39.1h4.4c3.7,0.1,7.3-1,10.4-3c1.5-1,2.8-2.5,3.6-4.1
		c0.8-1.7,1.2-3.5,1-5.3C81.5,22.3,80,19.1,77.2,17.2 M71.3,31.1c-1.3,1-2.9,1.5-4.6,1.5H62V20.8h4.6c1.7-0.1,3.5,0.4,4.9,1.5
		c0.6,0.6,1.1,1.3,1.4,2.1c0.3,0.8,0.4,1.7,0.3,2.5c0,0.8-0.2,1.6-0.5,2.3C72.4,30,71.9,30.6,71.3,31.1"/>
	<path class="st0" d="M89.5,30.3l-2.4-3.6h-4v26.5H91V36.8c1.2-1.1,2.7-2,4.2-2.7c1.3-0.5,2.7-0.8,4.1-0.8v-6.6
		c-2.1-0.1-4.1,0.3-6,1.1C92,28.5,90.7,29.4,89.5,30.3"/>
	<rect x="103.1" y="26.8" class="st0" width="7.9" height="26.5"/>
	<path class="st0" d="M107,14.2c-0.6,0-1.1,0.1-1.7,0.3c-0.5,0.2-1,0.6-1.4,1c-0.8,0.8-1.3,2-1.2,3.1c0,0.6,0.1,1.2,0.3,1.8
		c0.2,0.6,0.5,1.1,1,1.5c0.4,0.4,0.9,0.7,1.4,1c0.5,0.2,1.1,0.3,1.7,0.3c0.6,0,1.2-0.1,1.7-0.3c0.5-0.2,1-0.5,1.4-1
		c0.4-0.4,0.8-0.9,1-1.5c0.2-0.6,0.3-1.2,0.3-1.8c0-1.2-0.5-2.3-1.3-3.1C109.3,14.7,108.2,14.2,107,14.2L107,14.2z"/>
	<path class="st0" d="M131.9,25.8c-1.8,0-3.5,0.4-5.1,1.1c-1.6,0.6-3.1,1.5-4.4,2.6l-2.1-2.7h-4.1v26.5h7.9V34.8
		c0.9-0.6,1.9-1.2,2.9-1.6c0.9-0.4,1.9-0.7,2.9-0.7c0.6,0,1.1,0.1,1.6,0.3c0.5,0.2,1,0.5,1.4,0.9c0.8,0.9,1.2,2.1,1.1,3.4v16.2h7.9
		V36.7c0.1-2.8-0.7-5.5-2.3-7.8C138,26.9,135.5,25.8,131.9,25.8"/>
	<rect x="168.1" y="26.8" class="st0" width="7.9" height="26.5"/>
	<path class="st0" d="M191.8,26.8v-1.5c-0.1-1.1,0.2-2.2,0.8-3.2c0.3-0.4,0.7-0.7,1.2-0.9c0.5-0.2,1-0.3,1.5-0.3
		c0.5,0,1,0.1,1.5,0.2c0.6,0.2,1.1,0.4,1.6,0.6l2.3-5.6c-0.8-0.6-1.7-1.1-2.6-1.3c-1-0.4-2.1-0.6-3.2-0.6c-2.9-0.1-5.7,0.8-7.9,2.6
		c-1,0.9-1.8,2.1-2.4,3.4c-0.5,1.3-0.8,2.7-0.7,4.1v2.5h-4.1v6.8h4.1v19.7h7.9V33.6h7.3l-2.2-6.9H191.8z"/>
	<path class="st0" d="M218.9,26.8l-5.5,15.7c-0.9-2.6-1.9-5.2-2.8-7.9c-1-2.6-1.9-5.2-2.9-7.9h-8.3l8.9,22.9c0.6,1.4,0.6,3,0,4.5
		c-0.6,1.2-1.5,2.2-2.8,2.8c-1.3,0.7-2.6,1.4-4,1.9l2.7,6.5c2.4-0.6,4.7-1.7,6.7-3.2c2-1.4,3.5-3.3,4.4-5.5L227,26.8H218.9z"/>
	<path class="st0" d="M172,14.2c-0.6,0-1.2,0.1-1.7,0.3c-0.5,0.2-1,0.6-1.4,1c-0.4,0.4-0.7,0.9-0.9,1.4c-0.2,0.5-0.3,1.1-0.3,1.7
		c0,0.6,0.1,1.2,0.3,1.7c0.2,0.5,0.5,1,0.9,1.4c0.4,0.4,0.9,0.7,1.4,1c0.5,0.2,1.1,0.3,1.7,0.3c0.6,0,1.2-0.1,1.8-0.3
		c0.6-0.2,1.1-0.5,1.5-1c0.4-0.4,0.8-0.9,1-1.4c0.2-0.5,0.3-1.1,0.3-1.7c0-0.6-0.1-1.2-0.3-1.7c-0.2-0.5-0.6-1-1-1.4
		c-0.4-0.4-0.9-0.8-1.5-1C173.2,14.3,172.6,14.2,172,14.2"/>
	<path class="st0" d="M161.1,46.2c-0.5,0.1-1,0.2-1.5,0.2c-0.5,0-1,0-1.5-0.3c-0.5-0.2-0.9-0.5-1.2-0.9c-0.6-0.9-0.9-2-0.9-3.2V34
		h7.1l-2.3-6.8h-4.8v-8.5h-7.9v8.1h-4.1v6.8h4.1v9.5c-0.1,1.4,0.2,2.8,0.7,4.1c0.5,1.3,1.3,2.4,2.4,3.4c2.2,1.8,5,2.8,7.9,2.6
		c1.1,0,2.2-0.2,3.2-0.6c0.9-0.3,1.8-0.7,2.6-1.3l-2.2-5.7C162.3,45.9,161.7,46.1,161.1,46.2"/>
	<path class="st0" d="M13.2,21.5c0.4-2.2,0.7-3.5,0.8-4.2c0.9-4.6,0-7.8-2.3-8.2C10.4,8.9,9.6,9.7,9,11.8
		c-1.2,4.4-4.6,17.8-4.6,17.8L8.6,24c0.5-0.7,1.2-1.3,2-1.7C11.4,21.8,12.3,21.6,13.2,21.5"/>
	<path class="st0" d="M10.2,27.8c0.4-0.6,1-1.1,1.7-1.4c0.7-0.3,1.4-0.5,2.1-0.5c0.8,0,1.7,0.2,2.4,0.7c0.1,0,3.2,2.3,5.1,3.7h3.6
		c2.2,0,4.4-0.5,6.3-1.5c0.9-0.5,1.6-1.2,2.1-2.1c0.2-0.5,0.3-1.1,0.1-1.6c-0.1-0.2-0.2-0.4-0.4-0.6c-0.2-0.2-0.3-0.3-0.6-0.4
		c-0.5-0.2-1.1-0.3-1.6-0.3H13.2c-0.6,0-1.1,0.2-1.6,0.4c-0.5,0.3-0.9,0.6-1.3,1.1l-7.2,9.7c-0.1,0.2-0.2,0.4-0.3,0.6
		c-0.1,0.3-0.1,0.6,0,0.8c0.1,0.3,0.2,0.5,0.3,0.8L10.2,27.8z"/>
	<path class="st0" d="M9.2,35.4c0.4-0.5,0.8-0.9,1.4-1.2c0.5-0.3,1.1-0.5,1.7-0.6c0.6-0.1,1.2-0.1,1.8,0.1c0.6,0.1,1.2,0.4,1.7,0.8
		l6,4.4c0.7,0.5,1.4,1.2,1.8,2c0.2,0.4,0.3,0.8,0.4,1.2c0.6,0.2,1.2,0.3,1.8,0.4c1,0.1,2,0,2.9-0.4c0.5-0.3,1-0.8,1.2-1.3
		c0.1-0.2,0.1-0.4,0.1-0.7c0-0.2-0.1-0.4-0.2-0.6c-0.3-0.5-0.7-0.9-1.1-1.2l-13-9.5l-0.2-0.1c-0.4-0.2-0.8-0.3-1.2-0.3
		c-0.3,0-0.7,0.1-1,0.2c-0.3,0.1-0.6,0.3-0.8,0.5L12,29.2L3.1,41.4c-0.2,0.3-0.3,0.7-0.3,1.1c0,0.4,0.2,0.8,0.4,1.1L9.2,35.4z"/>
	<path class="st0" d="M20.6,21.5h7.6c-0.2-0.4-0.3-0.7-0.5-1c-0.8-1.4-1.9-2.7-3.1-3.7c-0.5-0.5-1.2-0.9-1.9-1.1
		c-0.7-0.2-1.5-0.1-2.2,0.2c-0.6,0.3-1,0.9-1.1,1.5c-0.2,0.6-0.1,1.3,0.3,1.9L20.6,21.5z"/>
	<path class="st0" d="M32.2,30.9c-0.5,0.3-1.1,0.5-1.6,0.7c-1.4,0.5-2.9,0.8-4.4,0.9h-1.6l3.2,2.4l1.9,1.4c0.7,0.5,1.4,1.2,1.8,2
		c0.3,0.5,0.4,1,0.5,1.5c0.1,0.5,0,1.1-0.1,1.6c-0.4,1.1-1.2,2.1-2.3,2.6c-1.5,0.7-3.2,0.8-4.8,0.5l-1.2-0.2
		c-0.4,0.9-1.2,1.7-2.1,2.2c-1.3,0.6-2.7,0.8-4.2,0.6c-1.4-0.2-2.8-0.7-4.1-1.3c-0.1-0.1-0.3-0.2-0.4-0.3c-0.1-0.1-0.2-0.3-0.2-0.4
		c0-0.2-0.1-0.3,0-0.5c0-0.2,0.1-0.3,0.2-0.4c0.1-0.2,0.3-0.4,0.6-0.4c0.2-0.1,0.5-0.1,0.7,0c1.1,0.5,2.3,0.9,3.5,1.1
		c1,0.1,2,0,2.9-0.4c0.5-0.3,0.9-0.8,1.1-1.3c0.1-0.2,0.1-0.4,0.1-0.7c0-0.2-0.1-0.4-0.2-0.6c-0.2-0.4-0.5-0.7-0.8-0.9l-6.2-4.6
		c-0.5-0.4-1.1-0.5-1.7-0.5c-0.6,0.1-1.2,0.3-1.6,0.8L11,36.7L3.2,47.3c-0.3,0.4-0.4,0.9-0.4,1.3c0,0.3,0.1,0.6,0.2,0.9
		c0.1,0.3,0.3,0.5,0.6,0.7c3.5,2.9,7.3,5.5,11.1,7.9c0.3,0.2,1.2,0.7,1.2,0.7c2.2,1.2,4.7,1.8,7.3,1.7c2.5-0.1,5-0.8,7.1-2.1
		c2.2-1.3,3.9-3.2,5.2-5.4c1.2-2.2,1.9-4.7,1.9-7.2c0-2.1-0.5-4.1-1.3-6C35.6,39,32.2,30.9,32.2,30.9"/>
	<path class="st0" d="M21.5,2.4c-0.2,0-0.4,0.1-0.5,0.1c-0.2,0.1-0.3,0.2-0.4,0.3c-0.1,0.1-0.2,0.3-0.3,0.5
		c-0.1,0.2-0.1,0.4-0.1,0.6c0,1.3,0.2,4,0.2,5.3c0,0.3,0.1,0.6,0.4,0.8c0.2,0.2,0.5,0.3,0.8,0.3c0.3,0,0.6-0.1,0.9-0.3
		c0.2-0.2,0.4-0.5,0.4-0.8c0-1.3,0.2-4.1,0.2-5.5c0-0.2,0-0.4-0.1-0.5c-0.1-0.2-0.2-0.3-0.3-0.5c-0.1-0.1-0.3-0.2-0.5-0.3
		C21.9,2.4,21.7,2.4,21.5,2.4"/>
	<path class="st0" d="M33.6,6.2C33.3,6,32.9,5.9,32.5,6c-0.4,0.1-0.7,0.3-0.9,0.6l-2.9,4.5c-0.2,0.3-0.2,0.6-0.2,0.9
		c0.1,0.3,0.2,0.6,0.5,0.8c0.3,0.2,0.6,0.3,0.9,0.2c0.3,0,0.6-0.2,0.8-0.5c0.8-1.1,2.5-3.2,3.2-4.3C34,8,34.1,7.8,34.2,7.6
		c0-0.2,0-0.4,0-0.6c0-0.2-0.1-0.4-0.2-0.5C33.9,6.4,33.8,6.3,33.6,6.2"/>
	<path class="st0" d="M41.3,16.2c-0.2-0.3-0.4-0.6-0.8-0.8c-0.3-0.1-0.7-0.1-1.1,0l-4.9,2c-0.3,0.1-0.5,0.3-0.6,0.6
		c-0.1,0.3-0.1,0.6-0.1,0.9c0,0.1,0.1,0.3,0.2,0.4c0.1,0.1,0.2,0.2,0.4,0.3c0.1,0.1,0.3,0.1,0.4,0.1s0.3,0,0.5-0.1
		c1.3-0.4,3.9-1.2,5.2-1.6c0.2-0.1,0.3-0.2,0.5-0.3c0.1-0.1,0.2-0.3,0.3-0.5c0.1-0.2,0.1-0.4,0.1-0.6C41.4,16.5,41.4,16.3,41.3,16.2
		"/>
</g>
</svg>
