<?xml version="1.0" encoding="utf-8"?>
<!-- Generator: Adobe Illustrator 26.0.1, SVG Export Plug-In . SVG Version: 6.00 Build 0)  -->
<!DOCTYPE svg PUBLIC "-//W3C//DTD SVG 1.1//EN" "http://www.w3.org/Graphics/SVG/1.1/DTD/svg11.dtd" [
	<!ENTITY ns_extend "http://ns.adobe.com/Extensibility/1.0/">
	<!ENTITY ns_ai "http://ns.adobe.com/AdobeIllustrator/10.0/">
	<!ENTITY ns_graphs "http://ns.adobe.com/Graphs/1.0/">
	<!ENTITY ns_vars "http://ns.adobe.com/Variables/1.0/">
	<!ENTITY ns_imrep "http://ns.adobe.com/ImageReplacement/1.0/">
	<!ENTITY ns_sfw "http://ns.adobe.com/SaveForWeb/1.0/">
	<!ENTITY ns_custom "http://ns.adobe.com/GenericCustomNamespace/1.0/">
	<!ENTITY ns_adobe_xpath "http://ns.adobe.com/XPath/1.0/">
]>
<svg version="1.1" id="Layer_1" xmlns:x="&ns_extend;" xmlns:i="&ns_ai;" xmlns:graph="&ns_graphs;"
	 xmlns="http://www.w3.org/2000/svg" xmlns:xlink="http://www.w3.org/1999/xlink" x="0px" y="0px" width="214.1px" height="65.2px"
	 viewBox="0 0 214.1 65.2" style="enable-background:new 0 0 214.1 65.2;" xml:space="preserve">
<style type="text/css">
	.st0{fill:#39B75D;}
	.st1{fill-rule:evenodd;clip-rule:evenodd;}
	.st2{fill:#00377C;}
	.st3{fill:#001E61;}
	.st4{fill:#EF7741;}
	.st5{fill:#3F3F47;}
	.st6{fill:#EE3D8F;}
	.st7{fill:#BFD730;}
	.st8{fill:#00C0F3;}
	.st9{fill:#F58220;}
	.st10{fill:#393E40;}
	.st11{fill:#A2192F;}
</style>
<metadata>
	<sfw  xmlns="&ns_sfw;">
		<slices></slices>
		<sliceSourceBounds  bottomLeftOrigin="true" height="65.3" width="1358.9" x="1503" y="-299.5"></sliceSourceBounds>
	</sfw>
</metadata>
<g>
	<path class="st11" d="M117.6,25H93.8V3.2l9.5-3.2v17.5h14.3V25z"/>
	<path class="st11" d="M106.5,0h23.8v21.8l-9.4,3.2V7.5h-14.4L106.5,0z M20.5,65H0V40.8L8.1,38v20.5h12.3V65z M193.7,38h20.5v24.2
		L206,65V44.5h-12.3V38z M33.3,65h-8.1V38h8.1L33.3,65z M68.9,51.5c0,2.4-0.6,4.8-1.7,6.9c-1.2,2.1-3,3.9-5.2,5
		c-2.6,1.3-5.5,1.9-8.4,1.8c-2.9,0.1-5.8-0.6-8.4-1.9c-2.2-1.2-4-2.9-5.1-5.1c-2.2-4.2-2.2-9.3,0-13.6c1.2-2.2,3-3.9,5.1-5.1
		c2.6-1.4,5.5-2,8.5-1.9c2.3,0,4.5,0.3,6.7,1.1c1.8,0.6,3.4,1.7,4.8,3c1.3,1.3,2.2,2.8,2.8,4.5C68.6,47.9,68.9,49.7,68.9,51.5
		L68.9,51.5z M61,51.5c0-1-0.1-2-0.5-2.9c-0.3-0.9-0.8-1.6-1.4-2.3c-0.7-0.7-1.5-1.2-2.3-1.5c-1-0.4-2.1-0.6-3.2-0.5
		c-4-0.1-7.4,3-7.5,7s3,7.4,7,7.5c0.2,0,0.3,0,0.5,0c1.4,0,2.8-0.3,4-0.9c1.1-0.6,1.9-1.5,2.5-2.6C60.7,54.1,61,52.8,61,51.5
		L61,51.5z M102.7,65h-7.2l-14-15v15h-8V38h7.2L94.5,53V38h8.1L102.7,65z M133.5,62.9c-1.1,0.6-2.3,1-3.4,1.4
		c-1.2,0.3-2.3,0.6-3.5,0.8c-1.2,0.1-2.4,0.2-3.7,0.2c-2.1,0-4.3-0.3-6.3-1c-1.8-0.6-3.4-1.6-4.8-2.9c-1.3-1.2-2.4-2.7-3.1-4.4
		c-0.7-1.8-1-3.7-1-5.6c0-2.1,0.4-4.2,1.2-6.1c0.8-1.7,1.9-3.2,3.4-4.3c1.5-1.2,3.1-2,4.9-2.6c1.9-0.6,3.9-0.8,5.8-0.8
		c3.6,0.1,7.1,0.8,10.4,2v7.1c-1.3-0.8-2.6-1.5-4-2.1c-1.5-0.6-3-0.9-4.6-0.8c-1.5,0-3,0.3-4.4,0.9c-1.3,0.6-2.4,1.5-3.3,2.7
		c-1.6,2.3-1.7,5.4-0.2,7.8c0.7,1.2,1.8,2.1,3,2.7c1.3,0.7,2.8,1,4.4,1c1.3,0,2.5-0.2,3.7-0.5c1-0.3,2-0.6,2.9-1.1
		c0.8-0.4,1.7-0.9,2.5-1.4V62.9z M168.5,65h-8.3l-2.2-5.5h-11.7l-2.2,5.5h-8.3L147.7,38h8.9L168.5,65z M156.2,54.8l-3.9-9.8l-4,9.8
		H156.2z M190.9,57.1c0,1.6-0.4,3.1-1.3,4.4c-0.9,1.3-2.2,2.2-3.6,2.8c-1.7,0.7-3.5,1-5.3,1c-0.6,0-1.2,0-2.1-0.1
		c-1.1-0.1-2.2-0.3-3.2-0.6c-1.4-0.4-2.8-0.8-4.1-1.4v-6.6c1.3,0.8,2.6,1.5,4,2.1c1.3,0.6,2.8,0.8,4.2,0.8c1.4,0,2.3-0.2,2.7-0.7
		c0.4-0.3,0.6-0.8,0.6-1.3c0-0.8-0.4-1.4-1.1-1.8c-1-0.6-2-1.2-3.1-1.5c-1.4-0.6-2.7-1.2-3.9-2c-1.1-0.7-2-1.6-2.7-2.7
		c-0.7-1.2-1.1-2.5-1.1-3.9c-0.1-2.9,1.6-5.6,4.3-6.7c1.7-0.7,3.5-1.1,5.4-1.1c1.4,0,2.8,0.1,4.2,0.4c1.1,0.2,2.1,0.6,3.2,1
		c0.6,0.2,1.2,0.5,1.7,0.9v6.3c-1.2-0.8-2.4-1.5-3.7-2.1c-1.4-0.6-2.8-0.9-4.3-0.9c-0.8-0.1-1.6,0.1-2.2,0.6
		c-0.4,0.4-0.7,0.9-0.7,1.4c0,0.5,0.3,1,0.7,1.4c0.7,0.6,1.6,1,2.4,1.4c1.7,0.8,3.4,1.7,5,2.6c1.1,0.7,2.1,1.6,2.9,2.7
		C190.6,54.5,191,55.8,190.9,57.1L190.9,57.1z"/>
</g>
</svg>
