<?xml version="1.0" encoding="utf-8"?>
<!-- Generator: Adobe Illustrator 25.4.0, SVG Export Plug-In . SVG Version: 6.00 Build 0)  -->
<svg version="1.1" id="Layer_1" xmlns="http://www.w3.org/2000/svg" xmlns:xlink="http://www.w3.org/1999/xlink" x="0px" y="0px"
	 viewBox="0 0 200 160" style="enable-background:new 0 0 200 160;" xml:space="preserve">
<style type="text/css">
	.st0{fill:#FFBA02;}
	.st1{fill:#FFFFFF;}
</style>
<g>
	<path class="st0" d="M149.367,0.174c-16.663,27.299-33.171,54.345-49.943,81.822c-1.643-2.875-3.49-5.304-4.5-8.041
		c-2.028-5.498-5.54-7.044-11.358-6.814c-13.03,0.516-26.094,0.137-39.144,0.193c-1.598,0.007-2.574-0.419-3.444-1.85
		c-4.831-7.949-9.78-15.825-15.04-24.292c1.358,0,2.318,0,3.277,0c20.292-0.001,40.583-0.033,60.875,0.047
		c2.02,0.008,3.156-0.603,4.133-2.356c2.11-3.79,4.453-7.451,6.873-11.45c-1.139-0.064-1.904-0.144-2.668-0.145
		c-26.1-0.016-52.201-0.047-78.301,0.01c-2.048,0.004-3.272-0.508-4.378-2.355C11.213,17.37,6.474,9.921,1.816,2.423
		C1.406,1.764,1.031,1.084,0.5,0.174C50.118,0.174,99.482,0.174,149.367,0.174z"/>
	<path class="st1" d="M198.5,0.001c-33.165,53.329-66.041,106.193-99.101,159.351c-16.248-26.135-32.272-51.91-48.458-77.944
		c0.823-0.102,1.33-0.218,1.837-0.219c9.791-0.011,19.582,0.029,29.373-0.048c1.52-0.012,2.245,0.582,2.934,1.815
		c4.653,8.33,9.373,16.623,14.289,25.312c0.566-0.846,0.994-1.446,1.383-2.071c21.527-34.579,43.065-69.151,64.531-103.768
		c1.104-1.781,2.249-2.443,4.345-2.418c8.675,0.106,17.352,0.011,26.029-0.01C196.436-0.001,197.211,0.001,198.5,0.001z"/>
</g>
</svg>
