<svg xmlns="http://www.w3.org/2000/svg" width="536.664" height="490.002" viewBox="0 0 536.664 490.002">
  <g id="chat-icon" transform="translate(-81.673 -35.002)">
    <path id="Path_3" data-name="Path 3" d="M163.33,198.33H350A11.666,11.666,0,1,0,350,175H163.33a11.666,11.666,0,0,0,0,23.332Z" fill-rule="evenodd"/>
    <path id="Path_4" data-name="Path 4" d="M163.33,151.67h23.336a11.668,11.668,0,0,0,0-23.336H163.33a11.668,11.668,0,0,0,0,23.336Z" fill-rule="evenodd"/>
    <path id="Path_5" data-name="Path 5" d="M233.33,151.67H350a11.668,11.668,0,1,0,0-23.336H233.33a11.668,11.668,0,0,0,0,23.336Z" fill-rule="evenodd"/>
    <path id="Path_6" data-name="Path 6" d="M282.36,291.67A128.336,128.336,0,0,0,396.673,478.334h32.164l36.422,36.414A34.994,34.994,0,0,0,525,490V473.471a128.334,128.334,0,0,0-35-251.8H417.65A128.338,128.338,0,0,0,303.337,35H210a128.334,128.334,0,0,0-35,251.8v16.531a34.994,34.994,0,0,0,59.746,24.746l36.422-36.41ZM402.33,245q-3.885,4.705-8.246,9.078a128.3,128.3,0,0,1-84.621,37.438A105,105,0,0,0,396.674,455h37a11.667,11.667,0,0,1,8.25,3.418l39.828,39.832A11.666,11.666,0,0,0,501.674,490V464.311a11.668,11.668,0,0,1,9.332-11.434,105,105,0,0,0-21-207.875Zm6.008-81.668a105,105,0,0,0-105-105H210.006a105,105,0,0,0-21,207.879,11.661,11.661,0,0,1,9.332,11.434v25.688a11.666,11.666,0,0,0,19.918,8.25l39.828-39.832a11.667,11.667,0,0,1,8.25-3.418h37a105,105,0,0,0,105-105Z" fill-rule="evenodd"/>
  </g>
</svg>
